<svg viewBox="0 0 169 129" xmlns="http://www.w3.org/2000/svg" xmlns:xlink="http://www.w3.org/1999/xlink" width="169.000000" height="129.000000" fill="none" customFrame="#000000">
	<g id="组合 4">
		<path id="矢量 31" d="M52.7959 41.1583C55.0936 41.1396 57.3913 41.1256 59.689 41.1171C60.7568 41.113 61.8246 41.1075 62.8924 41.0983C74.8822 40.9979 74.8822 40.9979 79.3141 42.1592C79.9412 42.346 80.5637 42.5405 81.1837 42.7495C81.1837 42.9245 81.1837 43.0995 81.1837 43.2799C81.7965 43.2799 82.4094 43.2799 83.0408 43.2799C83.1438 43.3992 83.2467 43.5185 83.3528 43.6414C83.8289 44.1102 83.8289 44.1102 84.4948 44.3852C84.7318 44.4744 84.9688 44.5637 85.213 44.6556C85.4521 44.7469 85.6911 44.8381 85.9374 44.9322C86.1197 44.9995 86.302 45.0669 86.4898 45.1363C86.6868 45.3824 86.8838 45.6285 87.0867 45.8821C87.5029 46.3851 87.8503 46.7524 88.3801 47.1418C88.5443 47.2676 88.7084 47.3934 88.8776 47.523C89.5735 48.5085 90.0264 49.6061 90.5046 50.7085C90.6603 51.0653 90.8258 51.418 91 51.7662C91.0876 59.8176 91.1751 67.869 91.2653 76.1643C91.4404 76.3394 91.6155 76.5144 91.7959 76.6947C94.4091 76.7009 97.0222 76.7056 99.6354 76.7085C100.849 76.7098 102.063 76.7117 103.276 76.7147C104.449 76.7176 105.623 76.7192 106.796 76.7199C107.241 76.7204 107.687 76.7213 108.133 76.7228C111.994 76.8458 111.994 76.8458 115.773 76.2424C116.146 76.11 116.519 75.9747 116.89 75.837C118.132 75.4434 119.428 75.2885 120.714 75.1035C121.24 74.7097 121.24 74.7097 121.776 74.3079C122.563 74.2204 123.351 74.1329 124.163 74.0427C124.305 73.9371 124.446 73.8315 124.592 73.7226C125.449 73.1135 126.243 72.5564 127.244 72.2154C127.47 72.1566 127.695 72.0978 127.927 72.0372C128.357 71.9248 128.783 71.7985 129.204 71.656C129.829 71.2614 130.268 70.8579 130.796 70.33C130.883 70.155 130.971 69.9799 131.061 69.7996C131.236 69.7996 131.411 69.7996 131.592 69.7996C131.63 69.6355 131.668 69.4714 131.708 69.3023C131.857 68.7388 131.857 68.7388 132.122 68.2084C132.122 63.4826 132.122 58.7568 132.122 53.8878C131.685 53.7127 131.247 53.5377 130.796 53.3574C130.796 53.0948 130.796 52.8323 130.796 52.5618C128.082 52.4743 125.368 52.3867 122.571 52.2966C121.871 51.684 121.171 51.0714 120.449 50.4402C120.274 49.9151 120.099 49.39 119.918 48.849C119.803 48.7506 119.689 48.6521 119.57 48.5507C119 47.9174 118.685 47.2308 118.327 46.4622C118.327 45.6746 118.327 44.887 118.327 44.0755C118.764 43.6379 119.202 43.2003 119.653 42.7495C121.352 42.7427 123.051 42.7381 124.751 42.7349C125.328 42.7336 125.905 42.7318 126.483 42.7295C127.315 42.7262 128.148 42.7247 128.98 42.7236C129.364 42.7215 129.364 42.7215 129.756 42.7194C131.189 42.7193 132.563 42.7866 133.98 43.0147C134.643 43.2964 134.643 43.2964 135.041 43.5451C135.041 43.7201 135.041 43.8951 135.041 44.0755C135.829 44.163 136.617 44.2505 137.429 44.3407C138.73 45.2581 139.874 46.1825 140.861 47.4402C141.396 48.1514 141.849 48.8287 142.204 49.6446C143.19 53.4322 143.074 57.2626 142.976 61.146C142.95 62.1769 142.932 63.2077 142.915 64.2387C142.901 64.9059 142.887 65.573 142.873 66.2401C142.867 66.5425 142.861 66.8448 142.856 67.1562C142.798 69.3091 142.538 71.3846 142.204 73.5123C141.504 74.3875 140.803 75.2626 140.082 76.1643C139.819 76.2518 139.556 76.3394 139.286 76.4295C139.198 76.7796 139.111 77.1296 139.02 77.4903C138.495 77.9279 137.97 78.3655 137.429 78.8163C137.078 78.8163 136.728 78.8163 136.367 78.8163C136.28 79.0788 136.192 79.3414 136.102 79.6119C135.868 79.7367 135.635 79.8614 135.394 79.99C134.932 80.2377 134.932 80.2377 134.46 80.4904C134.156 80.6534 133.851 80.8165 133.537 80.9845C132.788 81.3943 132.055 81.8185 131.327 82.2639C131.151 82.2639 130.976 82.2639 130.796 82.2639C130.796 82.4389 130.796 82.6139 130.796 82.7943C128.563 83.0568 128.563 83.0568 126.286 83.3246C126.198 83.4122 126.111 83.4997 126.02 83.5898C125.781 83.6059 125.541 83.622 125.294 83.6385C124.981 83.6608 124.668 83.683 124.346 83.7059C124.035 83.7274 123.724 83.7489 123.404 83.7711C122.565 83.825 122.565 83.825 121.776 84.1202C121.776 84.2953 121.776 84.4703 121.776 84.6506C121.468 84.6605 121.16 84.6705 120.843 84.6807C118.107 84.7886 115.632 85.1063 113.02 85.9766C112.592 86.0045 112.162 86.0179 111.732 86.0227C111.469 86.0262 111.207 86.0298 110.936 86.0335C110.508 86.0376 110.508 86.0376 110.072 86.0419C109.46 86.0506 108.849 86.0594 108.237 86.0683C107.279 86.0807 106.321 86.0925 105.363 86.1031C102.13 86.1406 98.905 86.1986 95.6812 86.4666C95.4445 86.4846 95.2078 86.5027 94.9639 86.5212C94.3406 86.5796 93.7365 86.6502 93.1225 86.7722C92.2207 87.119 92.2207 87.119 91.5306 87.5678C91.3555 87.7428 91.1804 87.9179 91 88.0982C90.8039 93.9823 90.7061 99.8629 90.7015 105.75C90.7009 106.046 90.7002 106.342 90.6995 106.646C90.6938 109.757 90.6984 112.845 91 115.944C91.3502 116.381 91.7004 116.819 92.0612 117.27C92.1488 117.707 92.2363 118.145 92.3265 118.596C92.5947 118.634 92.8628 118.672 93.139 118.712C93.7833 118.804 94.4272 118.899 95.0703 119C95.9762 119.118 96.8443 119.168 97.7571 119.181C98.0871 119.186 98.4172 119.191 98.7572 119.197C99.1151 119.201 99.4729 119.206 99.8308 119.21C100.208 119.216 100.584 119.221 100.961 119.227C101.754 119.239 102.546 119.249 103.338 119.26C104.328 119.272 105.317 119.287 106.307 119.301C110.26 119.36 114.214 119.403 118.168 119.413C118.484 119.415 118.8 119.416 119.126 119.418C123.064 119.42 126.977 119.058 130.864 118.428C131.559 118.335 132.218 118.313 132.918 118.331C133.006 117.981 133.093 117.631 133.184 117.27C133.621 116.832 134.059 116.395 134.51 115.944C134.685 115.944 134.86 115.944 135.041 115.944C135.041 114.544 135.041 113.143 135.041 111.701C135.216 111.351 135.391 111.001 135.571 110.64C135.661 110.222 135.738 109.802 135.804 109.38C135.98 108.424 136.227 107.63 136.666 106.761C136.83 106.466 136.994 106.171 137.163 105.866C138.214 105.079 138.214 105.079 139.286 104.275C139.811 104.275 140.336 104.275 140.878 104.275C141.403 104.713 141.928 105.15 142.469 105.601C142.743 108.375 142.766 111.121 142.751 113.905C142.75 114.337 142.749 114.768 142.748 115.2C142.745 116.243 142.74 117.287 142.735 118.331C142.647 118.506 142.56 118.681 142.469 118.861C142.409 119.313 142.361 119.766 142.32 120.22C142.287 120.582 142.287 120.582 142.253 120.952C142.237 121.137 142.221 121.322 142.204 121.513C141.305 122.757 140.405 123.908 139.286 124.961C139.111 124.961 138.936 124.961 138.755 124.961C138.668 125.311 138.58 125.661 138.49 126.021C138.227 126.196 137.964 126.371 137.694 126.552C136.998 126.744 136.308 126.92 135.605 127.082C134.186 127.402 134.186 127.402 132.817 127.878C131.497 128.382 130.117 128.628 128.71 128.727C127.87 128.751 127.031 128.76 126.191 128.763C125.874 128.766 125.557 128.769 125.231 128.772C124.368 128.78 123.506 128.785 122.644 128.788C122.102 128.79 121.561 128.793 121.02 128.796C119.319 128.805 117.618 128.811 115.918 128.814C113.968 128.818 112.018 128.83 110.068 128.848C108.552 128.862 107.036 128.868 105.52 128.87C104.618 128.87 103.717 128.874 102.816 128.886C97.373 128.946 97.373 128.946 95.5921 128.491C94.3359 128.06 93.2085 127.48 92.0612 126.817C91.6215 126.613 91.1799 126.412 90.7347 126.22C90.4685 126.101 90.4685 126.101 90.1968 125.98C89.3264 125.608 88.4406 125.284 87.551 124.961C87.1578 124.575 86.7655 124.188 86.3737 123.8C86.1552 123.585 85.9367 123.37 85.7115 123.148C85.5306 122.958 85.3497 122.769 85.1633 122.574C85.0757 122.399 84.9882 122.224 84.898 122.043C84.4602 121.956 84.0224 121.868 83.5714 121.778C83.0815 120.91 82.7161 120.079 82.4895 119.112C82.1969 117.729 82.1568 116.379 82.1444 114.97C82.1378 114.561 82.1378 114.561 82.131 114.144C82.1219 113.557 82.1138 112.97 82.1068 112.382C82.0955 111.453 82.0812 110.523 82.0661 109.594C82.0292 107.287 81.9975 104.98 81.9658 102.672C81.9387 100.719 81.9096 98.765 81.8778 96.8113C81.8637 95.8957 81.8526 94.98 81.8417 94.0643C81.8329 93.5037 81.8239 92.9431 81.8148 92.3825C81.8126 92.1282 81.8104 91.8738 81.8081 91.6118C81.7959 90.9665 81.7779 90.3317 81.7143 89.6894C81.4814 88.8987 81.4814 88.8987 81.1837 88.3634C76.9923 88.3232 72.8186 88.4477 68.6314 88.6286C68.0177 88.6543 67.404 88.6798 66.7903 88.7052C65.3091 88.7669 63.828 88.8298 62.3469 88.8938C62.3469 89.0688 62.3469 89.2439 62.3469 89.4242C61.9942 89.4274 61.9942 89.4274 61.6343 89.4307C59.4133 89.4514 57.1923 89.4745 54.9714 89.5004C53.8297 89.5137 52.688 89.5259 51.5463 89.5361C50.4436 89.5459 49.3409 89.5582 48.2383 89.5722C47.8185 89.5771 47.3987 89.5811 46.9789 89.5842C46.3889 89.5887 45.7991 89.5964 45.2092 89.6048C44.7064 89.6101 44.7064 89.6101 44.1934 89.6155C43.1911 89.6936 42.3393 89.9 41.3878 90.2198C40.6061 90.6503 39.9764 91.096 39.3524 91.7343C38.9472 92.1914 38.5586 92.6395 38.2041 93.1369C38.1165 93.3995 38.029 93.662 37.9388 93.9325C37.7637 93.9325 37.5886 93.9325 37.4082 93.9325C36.6583 97.4649 36.2456 100.938 36.0816 104.54C35.9065 104.54 35.7314 104.54 35.551 104.54C35.563 105.709 35.5817 106.878 35.6061 108.046C35.6135 108.442 35.6191 108.837 35.6229 109.233C35.6494 111.845 35.9399 114.201 36.6524 116.718C36.8776 117.535 36.8776 117.535 36.8776 118.065C37.0308 118.142 37.184 118.219 37.3418 118.298C37.8946 118.574 38.4473 118.85 39 119.126C39.0876 119.301 39.1751 119.476 39.2653 119.657C40.0519 119.959 40.0519 119.959 40.8846 119.959C41.2175 119.962 41.5505 119.965 41.8935 119.968C42.2645 119.975 42.6355 119.981 43.0065 119.988C43.5868 119.997 44.167 120.005 44.7474 120.008C47.9737 120.032 47.9737 120.032 49.4754 120.435C50.1549 120.682 50.8143 120.943 51.4694 121.248C51.8951 121.801 52.265 122.308 52.5783 122.933C52.7959 123.635 52.7959 123.635 52.8477 124.46C52.8416 124.74 52.8354 125.02 52.8291 125.309C52.8243 125.592 52.8195 125.875 52.8146 126.167C52.8084 126.382 52.8023 126.596 52.7959 126.817C52.2706 127.342 51.7453 127.867 51.2041 128.408C47.0837 129.156 42.9038 129.011 38.7347 128.939C38.4775 128.935 38.2203 128.931 37.9554 128.927C36.7021 128.904 35.4663 128.859 34.2245 128.673C33.4108 128.397 32.8352 128.078 32.102 127.613C31.8668 127.531 31.6315 127.448 31.389 127.364C31.1866 127.271 30.9841 127.178 30.7755 127.082C30.0293 126.386 30.0293 126.386 29.449 125.756C29.3614 124.969 29.2739 124.181 29.1837 123.369C28.921 123.369 28.6584 123.369 28.3878 123.369C28.3745 123.216 28.3612 123.062 28.3475 122.904C28.2856 122.202 28.2206 121.501 28.1556 120.8C28.1348 120.558 28.1139 120.317 28.0924 120.067C27.9746 118.707 27.9746 118.707 27.5918 117.408C27.1483 116.291 27.1258 115.112 27.0281 113.922C27.0052 113.674 26.9822 113.426 26.9586 113.171C26.7777 111.09 26.6416 108.988 26.9213 106.911C27.1165 105.454 27.1529 103.999 27.1985 102.531C27.2482 101.309 27.397 100.245 27.7253 99.0614C28.0359 97.5993 28.0633 96.0841 28.1556 94.5955C28.1785 94.2509 28.2014 93.9063 28.2251 93.5513C28.281 92.7061 28.3352 91.8608 28.3878 91.0154C28.7233 90.4122 29.0607 89.8102 29.3992 89.2087C29.4938 89.0383 29.5884 88.8679 29.6858 88.6923C30.1594 87.854 30.6299 87.183 31.3061 86.507C31.4905 86.0681 31.668 85.6262 31.8367 85.181C32.5692 84.372 33.3328 83.6905 34.2245 83.0594C35.5896 82.4635 36.9904 82.0466 38.4196 81.634C38.9798 81.4659 39.5393 81.2961 40.0987 81.1257C40.6021 80.9733 41.1067 80.8253 41.6114 80.6775C42.4205 80.4401 42.4205 80.4401 43.0275 80.1174C43.5102 79.8771 43.5102 79.8771 44.0279 79.7724C44.2928 79.7458 44.2928 79.7458 44.5631 79.7186C44.8561 79.687 44.8561 79.687 45.1549 79.6549C45.4571 79.6254 45.4571 79.6254 45.7653 79.5953C47.1668 79.4737 47.1668 79.4737 48.5441 79.2088C49.1285 79.0704 49.6458 79.0462 50.246 79.0431C50.4774 79.0413 50.7087 79.0394 50.947 79.0376C51.3245 79.0365 51.3245 79.0365 51.7097 79.0355C52.1098 79.0328 52.1098 79.0328 52.5179 79.0301C53.097 79.0264 53.676 79.0232 54.2551 79.0206C55.1717 79.0162 56.0883 79.01 57.0049 79.0033C59.611 78.9846 62.2171 78.9686 64.8232 78.955C66.4173 78.9466 68.0115 78.9357 69.6056 78.9232C70.213 78.9189 70.8203 78.9156 71.4277 78.9134C72.2774 78.9102 73.1271 78.9037 73.9768 78.8966C74.3527 78.8964 74.3527 78.8964 74.7362 78.8962C75.7603 78.8848 76.6097 78.8339 77.6028 78.5602C77.8214 78.4697 78.0401 78.3792 78.2653 78.2859C78.4507 78.2114 78.636 78.1368 78.827 78.0601C78.9809 77.9924 79.1348 77.9247 79.2934 77.8549C79.567 77.7346 79.8406 77.6143 80.1225 77.4903C80.3851 77.0527 80.6478 76.6152 80.9184 76.1643C80.9184 75.3767 80.9184 74.5891 80.9184 73.7775C80.8308 73.69 80.7433 73.6025 80.6531 73.5123C80.6531 67.5613 80.6531 61.6103 80.6531 55.4789C80.478 55.4789 80.3029 55.4789 80.1225 55.4789C79.9306 55.2584 79.9306 55.2584 79.7349 55.0335C79.5673 54.8414 79.3997 54.6492 79.227 54.4513C79.0608 54.2605 78.8946 54.0698 78.7234 53.8733C78.4048 53.5145 78.0741 53.1662 77.7347 52.827C77.0151 52.6277 76.3547 52.5229 75.6091 52.4965C75.4079 52.4878 75.2066 52.4791 74.9993 52.4701C74.584 52.4541 74.1688 52.4389 73.7536 52.4245C73.5506 52.4155 73.3476 52.4064 73.1385 52.3971C72.8673 52.3871 72.8673 52.3871 72.5906 52.3769C71.898 52.2966 71.898 52.2966 70.8784 52.0307C69.0995 51.6249 67.2953 51.679 65.4798 51.6771C65.0889 51.6754 64.698 51.6736 64.3071 51.6717C63.4899 51.6686 62.6726 51.6676 61.8554 51.6679C60.8205 51.668 59.7858 51.6607 58.751 51.6516C57.9436 51.6456 57.1362 51.6446 56.3287 51.6449C55.9479 51.6443 55.5671 51.642 55.1863 51.6378C52.7335 51.6135 50.5528 51.9073 48.2035 52.5863C47.156 52.8438 46.2439 52.9195 45.1684 52.9596C43.8933 53.0185 42.7865 53.1649 41.5702 53.5563C40.1282 54.0882 38.7598 54.7496 37.4082 55.4789C37.3206 55.829 37.2331 56.1791 37.1429 56.5397C36.9678 56.5397 36.7927 56.5397 36.6122 56.5397C36.6122 59.3402 36.6122 62.1407 36.6122 65.026C36.1745 65.4636 35.7367 65.9012 35.2857 66.352C35.1106 66.6146 34.9355 66.8771 34.7551 67.1476C34.58 67.1476 34.4049 67.1476 34.2245 67.1476C34.1971 67.3008 34.1698 67.4539 34.1416 67.6117C34.0814 67.8086 34.0212 68.0055 33.9592 68.2084C33.5446 68.8051 33.5446 68.8051 33.1633 69.2692C32.3674 69.5344 32.3674 69.5344 31.863 69.5645C31.6782 69.5631 31.4934 69.5617 31.303 69.5603C31.0016 69.559 31.0016 69.559 30.6942 69.5577C30.3815 69.5544 30.3815 69.5544 30.0625 69.551C29.851 69.5498 29.6395 69.5486 29.4215 69.5473C28.9001 69.5442 28.3786 69.5395 27.8571 69.5344C27.5069 69.2719 27.1567 69.0093 26.7959 68.7388C26.484 67.773 26.2709 66.9592 26.1967 65.9432C26.1961 65.6176 26.1955 65.2921 26.1948 64.9566C26.1943 64.7784 26.1938 64.6003 26.1933 64.4167C26.1929 64.0416 26.1939 63.6665 26.1961 63.2914C26.199 62.7281 26.1962 62.1651 26.1928 61.6018C26.1902 59.4376 26.2897 57.3283 26.7959 55.2137C27.1286 54.2721 27.1286 54.2721 27.4758 53.5397C27.8708 52.656 28.2064 51.8657 28.338 50.9043C28.3544 50.6636 28.3708 50.423 28.3878 50.175C29.0317 49.2032 29.6822 48.309 30.5703 47.5458C30.9799 47.235 31.3917 46.9269 31.8056 46.6218C32.508 46.0907 33.0905 45.5108 33.6939 44.8711C33.869 44.696 34.0441 44.521 34.2245 44.3407C34.5032 44.2764 34.7819 44.2121 35.0691 44.1459C35.4453 44.0562 35.8215 43.9665 36.1977 43.8766C36.3802 43.8349 36.5626 43.7932 36.7506 43.7502C37.7551 43.5073 38.6355 43.2103 39.5581 42.7422C40.225 42.442 40.8073 42.2275 41.5295 42.105C42.2545 42.0476 42.9749 42.0174 43.7019 41.9995C43.9635 41.9892 44.2252 41.9789 44.4947 41.9683C45.3216 41.9369 46.1486 41.9121 46.9758 41.8876C47.5401 41.8673 48.1044 41.8466 48.6686 41.8254C50.0443 41.7748 51.42 41.7301 52.7959 41.6887C52.7959 41.5137 52.7959 41.3386 52.7959 41.1583Z" fill="rgb(232,192,55)" fill-rule="nonzero" />
		<path id="矢量 32" d="M39.5306 7.74344C41.0031 7.73026 42.4755 7.72067 43.9481 7.71431C44.4483 7.71165 44.9485 7.70804 45.4487 7.70343C46.1705 7.69695 46.8923 7.69397 47.6142 7.69165C47.8353 7.68891 48.0565 7.68617 48.2844 7.68335C49.7015 7.68308 50.9039 7.8756 52.2653 8.27384C52.6432 8.40629 53.0196 8.54335 53.3929 8.68821C54.842 9.19049 56.3143 9.25995 57.8367 9.33462C57.9913 9.4594 58.1459 9.58418 58.3052 9.71274C58.5008 9.85051 58.6964 9.98827 58.898 10.1302C59.5117 10.3245 60.1305 10.5045 60.7551 10.6606C61.0177 11.0544 61.0177 11.0544 61.2857 11.4562C63.2031 12.2894 65.1039 13.0287 67.1224 13.5778C67.2974 13.7649 67.2974 13.7649 67.4758 13.9559C67.6219 14.0937 67.7679 14.2314 67.9184 14.3734C68.6079 14.689 68.6079 14.689 69.2449 14.9038C69.2449 15.0788 69.2449 15.2538 69.2449 15.4342C69.4019 15.4632 69.5588 15.4923 69.7206 15.5222C70.6695 15.7125 71.5058 15.9026 72.3788 16.3292C72.9592 16.7601 72.9592 16.7601 73.4566 17.274C74.04 17.84 74.6412 18.2299 75.3552 18.6155C77.339 19.6266 79.2721 20.2521 81.449 20.7381C81.6241 21.0882 81.7992 21.4382 81.9796 21.7989C82.9427 21.7989 83.9057 21.7989 84.898 21.7989C84.9855 22.0614 85.0731 22.324 85.1633 22.5945C85.3384 22.5945 85.5135 22.5945 85.6939 22.5945C85.6939 22.857 85.6939 23.1196 85.6939 23.3901C85.9134 23.3887 86.1328 23.3873 86.359 23.3859C87.3532 23.3804 88.3475 23.3769 89.3418 23.3735C89.6872 23.3713 90.0327 23.3691 90.3885 23.3668C90.8862 23.3655 90.8862 23.3655 91.3938 23.3642C91.8523 23.3621 91.8523 23.3621 92.3201 23.36C92.9949 23.3853 93.5427 23.4566 94.1837 23.6553C94.1837 23.9178 94.1837 24.1804 94.1837 24.4509C95.3777 24.4215 96.5715 24.3869 97.7653 24.3514C98.1018 24.3432 98.4383 24.335 98.7851 24.3266C100.769 24.2876 100.769 24.2876 102.707 23.9122C104.16 23.5491 105.56 23.5989 107.051 23.6221C107.345 23.6245 107.639 23.6269 107.942 23.6294C108.662 23.6356 109.382 23.6443 110.102 23.6553C110.715 24.0928 111.328 24.5304 111.959 24.9813C111.959 25.4188 111.959 25.8564 111.959 26.3072C111.672 26.5288 111.672 26.5288 111.379 26.7548C110.623 27.3481 110.623 27.3481 110.003 28.0476C109.773 28.2609 109.543 28.4742 109.306 28.694C109.011 28.8144 108.715 28.9347 108.411 29.0587C107.475 29.4225 107.475 29.4225 106.917 29.9506C106.464 30.4069 106.022 30.8686 105.592 31.346C105.356 31.3896 105.356 31.3896 105.116 31.434C104.118 31.6342 103.297 31.8271 102.392 32.3073C102.222 32.4277 102.052 32.548 101.878 32.672C101.44 32.672 101.002 32.672 100.551 32.672C100.551 32.847 100.551 33.022 100.551 33.2024C100.229 33.2793 100.229 33.2793 99.9012 33.3578C99.6177 33.4268 99.3342 33.4959 99.0421 33.567C98.762 33.6347 98.4819 33.7024 98.1933 33.7721C97.3885 33.97 97.3885 33.97 96.7456 34.2735C96.0408 34.5284 96.0408 34.5284 95.3273 34.5921C95.071 34.591 94.8148 34.5898 94.5507 34.5886C94.2587 34.5885 93.9667 34.5885 93.6658 34.5884C93.1973 34.5843 93.1973 34.5843 92.7193 34.5802C92.3973 34.5794 92.0753 34.5787 91.7435 34.5779C90.7163 34.5749 89.6892 34.5683 88.662 34.5615C87.965 34.5588 87.2681 34.5564 86.5711 34.5543C84.8637 34.5484 83.1564 34.5395 81.449 34.5284C81.1863 34.3533 80.9237 34.1783 80.6531 33.998C80.6531 33.8229 80.6531 33.6479 80.6531 33.4676C80.4178 33.4894 80.1825 33.5113 79.94 33.5339C79.2027 33.54 78.6246 33.4222 77.9047 33.2314C77.0486 32.9661 76.1963 32.6928 75.3469 32.4068C75.0843 32.1442 74.8216 31.8817 74.551 31.6112C74.4002 31.563 74.2494 31.5148 74.094 31.4651C72.7986 31.0436 71.5401 30.599 70.3061 30.02C70.131 29.845 69.9559 29.6699 69.7755 29.4896C69.1627 29.4021 68.5498 29.3146 67.9184 29.2244C67.7652 29.1041 67.6119 28.9837 67.4541 28.8598C66.9155 28.471 66.3967 28.1773 65.7959 27.8984C65.7959 27.7234 65.7959 27.5484 65.7959 27.368C65.3582 27.2805 64.9204 27.193 64.4694 27.1028C64.256 26.8649 64.256 26.8649 64.0383 26.6222C63.425 26.0134 63.425 26.0134 62.6454 25.6111C61.8236 25.2344 61.8236 25.2344 60.9707 24.9647C60.2245 24.7161 60.2245 24.7161 59.4286 24.1857C58.8858 24.0102 58.8858 24.0102 58.3176 23.8873C57.9838 23.8107 57.65 23.7342 57.3061 23.6553C57.2186 23.3927 57.131 23.1302 57.0408 22.8597C56.8808 22.8467 56.7207 22.8337 56.5558 22.8203C56.3438 22.8005 56.1317 22.7807 55.9133 22.7602C55.704 22.7418 55.4947 22.7233 55.279 22.7043C54.6531 22.5945 54.6531 22.5945 54.0437 22.3189C53.8946 22.2348 53.7455 22.1507 53.5918 22.0641C53.5918 21.8891 53.5918 21.714 53.5918 21.5337C53.0665 21.5337 52.5412 21.5337 52 21.5337C51.3434 21.1399 51.3434 21.1399 50.6735 20.7381C45.6831 20.7381 40.6926 20.7381 35.551 20.7381C35.2008 21.0006 34.8506 21.2632 34.4898 21.5337C34.2728 21.5773 34.2728 21.5773 34.0514 21.6217C32.997 21.8433 31.9871 22.0919 30.9745 22.4619C29.4483 22.9901 27.8674 23.2193 26.2653 23.3901C25.7348 23.398 25.204 23.4004 24.6735 23.3901C24.6735 23.5651 24.6735 23.7401 24.6735 23.9205C24.4108 24.0955 24.1482 24.2705 23.8776 24.4509C22.9583 24.5821 22.9583 24.5821 22.0204 24.7161C21.4951 25.1099 21.4951 25.1099 20.9592 25.5117C20.7283 25.5552 20.7283 25.5552 20.4928 25.5997C19.846 25.7309 19.2084 25.8686 18.5714 26.042C18.3307 26.1788 18.0899 26.3155 17.8418 26.4564C17.5573 26.5822 17.2728 26.708 16.9796 26.8376C16.0964 26.935 15.2205 26.9869 14.3327 27.021C14.068 27.048 13.8033 27.075 13.5306 27.1028C12.9167 27.348 12.9167 27.348 12.4694 27.6332C11.769 27.6332 11.0686 27.6332 10.3469 27.6332C10.3469 27.8083 10.3469 27.9833 10.3469 28.1636C10.0843 28.2949 10.0843 28.2949 9.81633 28.4288C8.62799 28.4444 7.43968 28.4537 6.25128 28.462C5.91698 28.4664 5.58267 28.4709 5.23824 28.4754C3.40126 28.485 1.77284 28.3882 0 27.8984C0 26.8482 0 25.7981 0 24.7161C0.612857 24.7161 1.22571 24.7161 1.85714 24.7161C1.85714 24.541 1.85714 24.366 1.85714 24.1857C2.0596 24.0708 2.26207 23.9559 2.47066 23.8376C3.16761 23.4403 3.16761 23.4403 3.58163 22.9757C3.71296 22.8499 3.84429 22.7241 3.97959 22.5945C4.17111 22.5234 4.36263 22.4523 4.55995 22.379C5.27309 22.078 5.73048 21.759 6.33418 21.2851C7.27131 20.5606 8.17818 20.1122 9.28571 19.6773C9.66912 19.4993 10.0505 19.3169 10.4298 19.1303C10.6039 19.0452 10.778 18.9601 10.9573 18.8724C11.4558 18.6159 11.4558 18.6159 11.9388 18.0861C12.3801 17.9073 12.8224 17.7308 13.2653 17.5557C13.9944 17.1393 14.6889 16.6955 15.3878 16.2298C15.6504 16.2298 15.9131 16.2298 16.1837 16.2298C16.3588 15.7922 16.5339 15.3546 16.7143 14.9038C17.2396 14.9038 17.7649 14.9038 18.3061 14.9038C18.3061 14.7287 18.3061 14.5537 18.3061 14.3734C18.4853 14.3029 18.6645 14.2325 18.8492 14.16C19.0858 14.0663 19.3225 13.9726 19.5663 13.8761C19.9172 13.7377 19.9172 13.7377 20.2752 13.5964C20.945 13.3286 20.945 13.3286 21.5147 13.0308C22.27 12.6595 23.0671 12.4699 23.8776 12.2518C24.0527 12.0768 24.2278 11.9017 24.4082 11.7214C25.021 11.7214 25.6339 11.7214 26.2653 11.7214C26.2653 11.5464 26.2653 11.3713 26.2653 11.191C27.3007 10.5882 28.3386 10.052 29.449 9.59982C30.4211 9.40065 31.3716 9.27467 32.3591 9.18131C32.7571 9.12593 32.7571 9.12593 33.1633 9.06943C33.4136 8.9361 33.4136 8.9361 33.669 8.80009C33.944 8.67087 33.944 8.67087 34.2245 8.53903C35.1255 8.45647 36.0154 8.41664 36.919 8.38882C37.4367 8.36662 37.9533 8.32112 38.4694 8.27384C39.0483 8.01848 39.0483 8.01848 39.5306 7.74344Z" fill="rgb(232,192,55)" fill-rule="nonzero" />
		<path id="矢量 33" d="M91.0072 0.000897204C91.519 0.00346112 91.519 0.00346112 92.041 0.00607684C92.396 0.010507 92.7509 0.0149968 93.1059 0.0195439C93.4681 0.0222083 93.8303 0.0246276 94.1925 0.0267954C95.0739 0.0330222 95.9553 0.041732 96.8367 0.0526935C97.0994 0.183966 97.0994 0.183966 97.3673 0.317891C97.3673 0.492921 97.3673 0.667951 97.3673 0.848285C97.6108 0.842132 97.8543 0.835978 98.1052 0.829638C101.096 0.785681 101.096 0.785681 102.375 1.11348C102.649 1.201 102.922 1.28851 103.204 1.37868C103.729 1.81625 104.255 2.25383 104.796 2.70467C106.241 2.96721 106.241 2.96721 107.714 3.23506C108.24 3.62888 108.24 3.62888 108.775 4.03065C109.367 4.32404 109.964 4.60518 110.566 4.87597C111.032 5.08672 111.032 5.08672 111.507 5.30173C111.862 5.46018 111.862 5.46018 112.224 5.62183C112.224 5.97189 112.224 6.32195 112.224 6.68262C112.75 6.68262 113.275 6.68262 113.816 6.68262C114.079 6.94517 114.342 7.20771 114.612 7.47821C115.138 7.65324 115.663 7.82827 116.204 8.00861C116.204 8.18364 116.204 8.35867 116.204 8.539C116.39 8.56088 116.576 8.58276 116.768 8.6053C117.531 8.8042 117.531 8.8042 118.26 9.23515C119.374 10.0221 120.441 10.8757 121.51 11.7214C121.598 12.0714 121.685 12.4215 121.775 12.7822C121.951 12.8369 122.126 12.8916 122.306 12.9479C123.012 13.2711 123.479 13.584 124.08 14.0584C125.088 14.8438 126.134 15.3882 127.294 15.9179C127.487 16.0208 127.679 16.1237 127.878 16.2297C128.004 16.3565 128.13 16.4834 128.26 16.614C128.687 17.0724 128.687 17.0724 129.38 17.4418C129.769 17.6458 129.769 17.6458 130.166 17.8541C130.643 18.1055 131.118 18.359 131.592 18.6165C131.679 18.704 131.767 18.7915 131.857 18.8817C132.042 18.9169 132.228 18.9521 132.419 18.9884C132.66 19.0352 132.902 19.0821 133.15 19.1303C133.391 19.1765 133.631 19.2226 133.878 19.2702C134.51 19.4121 134.51 19.4121 135.041 19.6773C139.944 19.7648 144.847 19.8523 149.898 19.9425C149.898 19.7674 149.898 19.5924 149.898 19.4121C150.073 19.3246 150.248 19.2371 150.429 19.1469C151.036 19.1183 151.644 19.0977 152.253 19.0806C155.116 18.9532 157.809 18.1551 160.557 17.3962C161.58 17.1245 162.503 16.9628 163.561 16.9922C163.788 16.9969 164.015 17.0017 164.249 17.0067C164.416 17.0128 164.583 17.019 164.755 17.0253C164.93 16.6753 165.105 16.3252 165.286 15.9645C165.755 15.9573 166.225 15.9522 166.695 15.9479C167.088 15.9433 167.088 15.9433 167.488 15.9386C168.204 15.9645 168.204 15.9645 169 16.2297C169 17.0174 169 17.805 169 18.6165C168.825 18.879 168.65 19.1416 168.469 19.4121C168.294 19.4121 168.119 19.4121 167.939 19.4121C167.884 19.5567 167.829 19.7013 167.772 19.8503C167.408 20.4729 167.408 20.4729 166.688 21.1866C166.404 21.442 166.119 21.6958 165.833 21.948C164.775 22.8839 164.775 22.8839 163.758 23.8624C163.595 24.0224 163.595 24.0224 163.429 24.1856C163.259 24.2677 163.089 24.3497 162.915 24.4343C162.734 24.5272 162.553 24.6202 162.367 24.716C162.192 24.8911 162.017 25.0661 161.837 25.2464C161.306 25.7768 161.306 25.7768 160.709 26.1083C160.556 26.1739 160.403 26.2396 160.245 26.3072C160.07 26.5698 159.895 26.8323 159.714 27.1028C159.539 27.163 159.364 27.2231 159.184 27.2851C158.524 27.5737 158.044 27.8603 157.459 28.263C156.276 29.018 155.046 29.4079 153.703 29.7952C152.445 30.1141 151.181 30.355 149.898 30.5504C149.898 30.7254 149.898 30.9004 149.898 31.0808C143.857 31.0808 137.816 31.0808 131.592 31.0808C131.504 30.8182 131.417 30.5557 131.327 30.2852C130.451 30.1977 129.576 30.1101 128.673 30.02C128.411 29.7574 128.148 29.4949 127.878 29.2244C127.09 28.9618 126.302 28.6993 125.49 28.4288C125.315 28.1662 125.14 27.9037 124.959 27.6332C124.084 27.2831 123.208 26.9331 122.306 26.5724C122.306 26.3099 122.306 26.0473 122.306 25.7768C122.131 25.7768 121.956 25.7768 121.775 25.7768C121.775 25.6018 121.775 25.4268 121.775 25.2464C121.425 25.2464 121.075 25.2464 120.714 25.2464C120.714 25.0714 120.714 24.8964 120.714 24.716C120.447 24.6324 120.447 24.6324 120.174 24.5472C119.12 24.0624 118.306 23.3791 117.415 22.6442C117.244 22.5059 117.074 22.3676 116.898 22.2251C116.102 21.5779 115.312 20.9235 114.525 20.2647C113.856 19.7104 113.262 19.2768 112.49 18.8817C111.886 18.6721 111.279 18.4785 110.67 18.285C109.97 18.04 109.391 17.7008 108.775 17.2905C108.529 17.1428 108.283 16.9951 108.029 16.843C107.838 16.7281 107.646 16.6133 107.449 16.4949C107.449 16.2324 107.449 15.9698 107.449 15.6993C106.924 15.6993 106.398 15.6993 105.857 15.6993C105.726 15.5899 105.594 15.4805 105.459 15.3678C104.576 14.7495 103.666 14.2639 102.673 13.8429C102.153 13.6869 101.633 13.5621 101.102 13.4441C99.6433 13.096 98.2184 12.5658 96.8367 11.9866C96.8367 11.8115 96.8367 11.6365 96.8367 11.4562C95.4592 11.4495 94.0818 11.4448 92.7043 11.4416C92.237 11.4403 91.7698 11.4385 91.3026 11.4362C87.4239 11.3651 87.4239 11.3651 83.5714 11.7214C83.3125 11.8089 83.0536 11.8964 82.7868 11.9866C81.2473 12.4923 79.6166 12.488 78.0057 12.531C76.8859 12.5519 75.7664 12.5548 74.6464 12.5515C74.0662 12.5501 73.486 12.5515 72.9058 12.5532C72.5294 12.553 72.1531 12.5527 71.7767 12.5522C71.443 12.5519 71.1092 12.5516 70.7654 12.5513C69.7097 12.5147 68.6986 12.3974 67.6531 12.2518C67.3028 11.9892 66.9526 11.7267 66.5918 11.4562C66.6794 10.7561 66.7669 10.0559 66.8571 9.33459C67.5575 8.63447 68.2579 7.93435 68.9796 7.21302C70.1177 6.86296 71.2559 6.5129 72.4286 6.15223C72.6912 5.80217 72.9539 5.45211 73.2245 5.09144C73.8363 4.64176 74.4238 4.34062 75.1397 4.08866C75.5536 3.95433 75.9688 3.8239 76.3854 3.69812C77.0074 3.5009 77.0074 3.5009 77.7347 2.96986C78.1406 2.87758 78.5504 2.80177 78.9617 2.73781C80.1405 2.52107 81.139 2.16137 82.2169 1.64388C82.8413 1.34743 83.4485 1.07552 84.102 0.848285C84.6198 0.78624 85.14 0.742726 85.6607 0.715686C86.5549 0.669012 87.2913 0.581363 88.1497 0.31543C89.1526 0.0501048 89.9731 -0.00829112 91.0072 0.000897204Z" fill="rgb(232,192,55)" fill-rule="nonzero" />
	</g>
</svg>
