<svg viewBox="0 0 135 133" xmlns="http://www.w3.org/2000/svg" xmlns:xlink="http://www.w3.org/1999/xlink" width="135.000000" height="133.000000" fill="none" customFrame="#000000">
	<g id="组合 8">
		<path id="矢量 286" d="M69.7344 0C70.4287 0 71.1231 0 71.8385 0C71.9022 1.59733 71.8488 3.09456 71.5433 4.66667C71.2048 6.61793 71.1333 8.52349 71.1128 10.5005C71.107 10.8552 71.1012 11.2098 71.0952 11.5752C71.0774 12.6943 71.0634 13.8133 71.0494 14.9324C71.0379 15.6969 71.0262 16.4613 71.0142 17.2257C70.9855 19.0876 70.9599 20.9494 70.9367 22.8113C71.1351 22.8113 71.3335 22.8113 71.5379 22.8113C71.6371 23.0094 71.7363 23.2075 71.8385 23.4116C71.9077 24.1233 71.9621 24.8366 72.0075 25.5502C72.0327 25.9348 72.0579 26.3194 72.0839 26.7156C72.1021 27.012 72.1203 27.3084 72.139 27.6137C72.5854 28.208 72.5854 28.208 73.0408 28.8143C73.0408 29.1115 73.0408 29.4086 73.0408 29.7148C73.4871 29.8633 73.4871 29.8633 73.9425 30.0149C73.972 30.2436 74.0014 30.4722 74.0318 30.7078C74.2595 32.2781 74.5166 33.7171 75.1636 35.1737C75.3482 35.5598 75.5399 35.9429 75.746 36.318C75.8452 36.4171 75.9444 36.5161 76.0466 36.6182C76.1954 38.4011 76.1954 38.4011 76.3472 40.22C76.7439 40.319 77.1407 40.4181 77.5495 40.5201C77.6983 41.8573 77.6983 41.8573 77.8501 43.2215C78.0484 43.5186 78.2468 43.8158 78.4512 44.1219C78.4736 45.996 78.4899 47.87 78.5007 49.7442C78.5053 50.3809 78.5114 51.0175 78.5192 51.6541C78.5303 52.5729 78.5353 53.4914 78.5393 54.4102C78.5439 54.6917 78.5486 54.9732 78.5534 55.2632C78.5536 56.3632 78.5204 57.3605 78.2445 58.4293C78.0309 59.0721 77.8044 59.7026 77.5495 60.33C77.335 60.5325 77.335 60.5325 77.1162 60.7391C76.9616 60.9013 76.807 61.0634 76.6477 61.2304C76.4352 61.7256 76.2373 62.2271 76.0466 62.7311C75.2306 64.5476 74.2266 66.2327 73.0408 67.8337C72.8862 67.9865 72.7316 68.1393 72.5723 68.2968C72.11 68.7634 71.8431 69.2056 71.5379 69.7846C71.3498 70.1415 71.1491 70.4921 70.9367 70.8352C70.7879 70.9814 70.6392 71.1277 70.4859 71.2784C70.0125 71.7192 70.0125 71.7192 69.7156 72.2961C69.6226 72.4949 69.5296 72.6938 69.4338 72.8987C68.9741 73.8462 68.5227 74.763 67.9309 75.6376C67.4437 76.1511 66.9405 76.6498 66.428 77.1383C66.0453 77.5189 65.6633 77.9004 65.2821 78.2826C64.9627 78.6015 64.6433 78.9204 64.324 79.2393C64.2248 79.5365 64.1256 79.8336 64.0234 80.1398C63.794 80.3503 63.5646 80.5607 63.3283 80.7776C62.4877 81.6021 62.4877 81.6021 61.9945 82.616C61.8705 82.8884 61.7465 83.1608 61.6188 83.4414C61.5196 83.5405 61.4204 83.6395 61.3182 83.7416C61.219 84.633 61.1198 85.5245 61.0176 86.4429C60.72 86.542 60.4225 86.641 60.1159 86.7431C60.1159 89.1202 60.1159 91.4974 60.1159 93.9466C60.3143 94.2438 60.5126 94.5409 60.717 94.8471C60.9299 95.5438 61.1319 96.2439 61.3182 96.9481C62.6573 97.9882 62.6573 97.9882 64.0234 99.0492C64.1226 99.2473 64.2218 99.4454 64.324 99.6495C65.2483 100.038 66.0542 100.333 67.0292 100.55C68.5372 100.626 70.0285 100.604 71.5379 100.55C71.8355 100.352 72.133 100.154 72.4396 99.9496C73.4315 99.8506 74.4234 99.7515 75.4454 99.6495C75.6562 99.4204 75.867 99.1914 76.0841 98.9554C76.9483 98.1487 76.9483 98.1487 77.944 97.6047C78.2106 97.4871 78.4771 97.3695 78.7518 97.2483C79.0494 96.753 79.3469 96.2578 79.6535 95.7475C79.8519 95.7475 80.0503 95.7475 80.2547 95.7475C80.3539 95.0542 80.4531 94.3608 80.5553 93.6465C80.7536 93.6465 80.952 93.6465 81.1564 93.6465C81.1564 91.7646 81.1564 89.8826 81.1564 87.9437C80.7101 87.3494 80.7101 87.3494 80.2547 86.7431C80.2547 86.4459 80.2547 86.1488 80.2547 85.8426C79.4612 85.6445 78.6676 85.4464 77.8501 85.2423C77.7509 85.1433 77.6517 85.0442 77.5495 84.9422C76.8551 84.9422 76.1608 84.9422 75.4454 84.9422C75.1478 85.1403 74.8503 85.3384 74.5437 85.5425C73.846 85.755 73.1449 85.9567 72.4396 86.1428C71.9437 86.638 71.4477 87.1333 70.9367 87.6435C70.7383 87.6435 70.54 87.6435 70.3356 87.6435C70.2364 88.2378 70.1372 88.8321 70.035 89.4444C69.9358 89.5435 69.8366 89.6425 69.7344 89.7446C69.5856 91.5274 69.5856 91.5274 69.4338 93.3463C68.5411 93.3463 67.6484 93.3463 66.7286 93.3463C66.6294 93.2473 66.5302 93.1482 66.428 93.0462C66.428 90.669 66.428 88.2918 66.428 85.8426C66.8248 85.6445 67.2216 85.4464 67.6304 85.2423C67.7295 84.648 67.8287 84.0537 67.9309 83.4414C68.0611 83.3238 68.1913 83.2062 68.3254 83.085C68.8639 82.5496 68.8639 82.5496 69.2342 81.834C69.9194 80.7467 70.7842 80.0153 71.7504 79.1796C72.5552 78.5484 73.3052 78.1366 74.2431 77.7386C74.3423 77.6395 74.4415 77.5405 74.5437 77.4384C77.4202 77.4384 80.2968 77.4384 83.2605 77.4384C84.9583 78.5687 86.419 79.5536 87.8631 80.9277C88.0877 81.1366 88.0877 81.1366 88.3169 81.3498C88.7386 81.7436 89.1557 82.1422 89.5726 82.541C89.7815 82.7166 89.9903 82.8923 90.2055 83.0733C90.7014 83.6553 91.0768 84.1616 91.4442 84.8273C91.7481 85.5534 91.9531 86.2296 92.0418 87.0131C92.129 88.3912 92.1224 89.7677 92.101 91.1478C92.09 91.8835 92.0887 92.6188 92.0888 93.3546C92.0859 93.8278 92.0824 94.3011 92.0782 94.7744C92.0776 94.9914 92.0769 95.2085 92.0762 95.4321C92.0569 96.4774 91.9423 97.3873 91.6864 98.4037C91.584 98.7157 91.4816 99.0278 91.3761 99.3493C91.2916 99.612 91.2072 99.8747 91.1201 100.145C91.0434 100.372 90.9667 100.598 90.8877 100.831C90.8094 101.063 90.7311 101.295 90.6505 101.534C90.5633 101.79 90.5633 101.79 90.4744 102.051C90.276 102.051 90.0776 102.051 89.8732 102.051C89.8732 102.645 89.8732 103.239 89.8732 103.852C89.743 103.969 89.6128 104.087 89.4787 104.208C88.9451 104.74 88.9451 104.74 88.577 105.427C87.7952 106.7 86.8578 107.819 85.7485 108.822C85.3262 109.174 84.8953 109.515 84.4628 109.855C83.9668 109.954 83.4709 110.053 82.9599 110.155C82.8607 110.452 82.7615 110.749 82.6593 111.055C81.8658 111.154 81.0723 111.253 80.2547 111.355C80.2547 111.652 80.2547 111.95 80.2547 112.256C79.9033 112.314 79.5518 112.372 79.1897 112.432C78.7244 112.51 78.259 112.589 77.7937 112.668C77.5626 112.706 77.3315 112.744 77.0933 112.783C76.134 112.948 75.2774 113.1 74.3793 113.483C73.6419 113.756 73.6419 113.756 72.523 113.826C72.0881 113.825 71.6533 113.82 71.2185 113.813C70.9867 113.811 70.7548 113.809 70.5159 113.807C67.7475 113.771 64.9834 113.618 62.2199 113.456C61.7736 113.011 61.7736 113.011 61.3182 112.556C60.6239 112.457 59.9295 112.358 59.2141 112.256C59.1149 111.661 59.0158 111.067 58.9136 110.455C58.4672 110.483 58.4672 110.483 58.0118 110.511C57.3585 110.511 56.8192 110.457 56.1872 110.286C54.7135 109.749 53.4484 109.06 52.1881 108.123C51.3744 107.432 50.7567 106.719 50.1028 105.878C49.7884 105.476 49.7884 105.476 49.4676 105.066C49.2334 104.762 49.2334 104.762 48.9944 104.452C48.9944 104.254 48.9944 104.056 48.9944 103.852C48.7961 103.852 48.5977 103.852 48.3933 103.852C48.2073 103.397 48.2073 103.397 48.0176 102.932C47.6846 102.149 47.3126 101.427 46.8716 100.7C46.4407 99.9663 46.1941 99.3691 45.9135 98.5427C45.6881 97.5484 45.6881 97.5484 45.6881 96.3478C45.4897 96.3478 45.2913 96.3478 45.0869 96.3478C45.0869 92.3859 45.0869 88.4239 45.0869 84.3419C45.3845 84.3419 45.6821 84.3419 45.9887 84.3419C46.0878 83.2523 46.187 82.1628 46.2892 81.0402C46.4876 80.8421 46.686 80.644 46.8904 80.4399C46.952 80.2302 47.0136 80.0205 47.0771 79.8045C47.1581 79.5313 47.239 79.2581 47.3225 78.9767C47.4027 78.7051 47.4829 78.4335 47.5655 78.1536C47.7921 77.4384 47.7921 77.4384 48.0927 76.8382C48.2911 76.8382 48.4895 76.8382 48.6939 76.8382C48.7307 76.6726 48.7675 76.507 48.8054 76.3363C49.1882 74.9212 49.7741 73.6095 50.4973 72.3359C51.0867 71.6561 51.6964 71.0568 52.3701 70.4612C52.6334 70.2006 52.6334 70.2006 52.902 69.9347C53.1137 69.5404 53.316 69.1407 53.5031 68.7341C53.8966 68.3267 54.2992 67.9282 54.7054 67.5335C56.0321 66.1224 57.1154 64.7499 58.0118 63.0313C58.607 62.7341 58.607 62.7341 59.2141 62.431C59.3133 62.1338 59.4125 61.8367 59.5147 61.5305C59.7999 61.3077 60.0851 61.0848 60.3789 60.8552C60.7002 60.5896 61.0141 60.3149 61.3182 60.0298C61.7308 59.3845 61.7308 59.3845 61.9193 58.8292C62.1177 58.7302 62.3161 58.6311 62.5205 58.5291C62.6197 58.2319 62.7189 57.9348 62.8211 57.6286C63.0195 57.5296 63.2179 57.4305 63.4222 57.3285C63.8667 56.4023 64.2605 55.5648 64.4508 54.5533C64.5205 53.9789 64.5739 53.4026 64.6246 52.8262C64.9221 52.5291 65.2197 52.2319 65.5263 51.9258C65.5263 49.5486 65.5263 47.1714 65.5263 44.7222C65.0799 44.1279 65.0799 44.1279 64.6246 43.5216C64.5699 43.149 64.5153 42.7764 64.459 42.3925C64.3829 41.8997 64.3065 41.4069 64.2301 40.9141C64.1769 40.5464 64.1769 40.5464 64.1226 40.1713C64.0129 39.4776 63.8957 38.7998 63.7228 38.1189C63.574 37.8783 63.4253 37.6376 63.272 37.3897C62.8211 36.6182 62.8211 36.6182 62.6641 35.975C62.5247 35.1467 62.4136 34.3195 62.3139 33.4854C62.2758 33.175 62.2377 32.8647 62.1985 32.545C61.6691 27.7233 61.4633 22.5084 62.2199 17.7088C62.4149 17.3059 62.6148 16.9054 62.8211 16.5082C62.9343 15.8413 62.9343 15.8413 62.9714 15.1575C63.0183 14.4728 63.0183 14.4728 63.1217 13.8069C63.3114 13.4015 63.5112 13.0007 63.7228 12.6063C63.8621 12.1196 64.0007 11.6326 64.1338 11.1442C64.5313 9.80874 65.0336 8.50649 65.5263 7.20358C65.6255 6.93506 65.7247 6.66654 65.8269 6.38989C65.9261 6.16316 66.0253 5.93643 66.1275 5.70283C66.3258 5.50473 66.5242 5.30663 66.7286 5.10253C66.8123 4.74967 66.8123 4.74967 66.8977 4.38968C67.5056 2.85894 68.447 1.61156 69.4338 0.300149C69.533 0.2011 69.6322 0.102051 69.7344 0Z" fill="rgb(232,192,55)" fill-rule="nonzero" />
		<path id="矢量 287" d="M73.9615 120.623C75.3885 120.623 76.8156 120.622 78.2427 120.621C81.2492 120.618 84.2557 120.618 87.2621 120.62C88.2785 120.62 89.2948 120.62 90.3112 120.619C91.4937 120.618 92.6762 120.619 93.8587 120.62C94.2884 120.621 94.7182 120.621 95.1479 120.62C97.2256 120.617 99.2402 120.646 101.295 120.96C101.943 121 102.591 121.032 103.24 121.055C103.584 121.068 103.929 121.08 104.285 121.093C104.637 121.105 104.99 121.117 105.353 121.129C105.896 121.148 105.896 121.148 106.45 121.168C107.337 121.2 108.223 121.23 109.11 121.26C109.11 121.458 109.11 121.656 109.11 121.86C109.463 121.858 109.463 121.858 109.824 121.856C122.832 121.781 122.832 121.781 129.005 122.573C129.28 122.607 129.555 122.642 129.839 122.677C130.555 122.778 131.251 122.89 131.954 123.061C132.777 123.471 133.335 123.848 134.002 124.468C134.12 124.598 134.238 124.728 134.359 124.862C134.723 125.885 134.95 126.749 135 127.838C134.998 128.647 134.986 129.455 134.96 130.265C134.32 131.256 133.711 132.152 132.856 132.966C130.825 132.974 128.793 132.979 126.762 132.982C126.072 132.984 125.382 132.986 124.692 132.989C123.696 132.992 122.699 132.994 121.702 132.995C121.246 132.998 121.246 132.998 120.782 133C118.687 133 116.601 132.926 114.521 132.666C114.223 132.567 113.926 132.468 113.619 132.366C110.384 132.001 107.122 132.004 103.871 131.971C103.352 131.964 102.832 131.958 102.312 131.952C100.959 131.935 99.6065 131.92 98.2536 131.906C96.8671 131.891 95.4807 131.874 94.0942 131.857C91.3847 131.825 88.6752 131.795 85.9657 131.765C85.8665 131.666 85.7673 131.567 85.6651 131.465C69.7945 131.465 53.9239 131.465 37.5724 131.465C37.4732 131.564 37.374 131.663 37.2718 131.765C36.9346 131.77 36.9346 131.77 36.5906 131.775C34.4553 131.804 32.3201 131.835 30.1848 131.867C29.0875 131.884 27.9902 131.9 26.8928 131.915C25.8306 131.929 24.7685 131.945 23.7063 131.961C23.1109 131.97 22.5154 131.978 21.92 131.986C19.5126 132.024 17.1266 132.152 14.7284 132.366C14.4308 132.564 14.1332 132.762 13.8266 132.966C9.859 132.966 5.89135 132.966 1.80348 132.966C1.40671 132.075 1.00994 131.183 0.601158 130.265C0.402775 129.967 0.204392 129.67 0 129.364C0 128.77 0 128.176 0 127.563C0.198379 127.365 0.396762 127.167 0.601158 126.963C0.687948 126.697 0.774743 126.431 0.864165 126.156C1.15166 125.311 1.46321 124.487 1.80348 123.661C2.20024 123.364 2.597 123.067 3.00579 122.761C6.15589 121.936 9.21143 121.732 12.4616 121.674C12.7799 121.667 13.0983 121.66 13.4263 121.653C13.846 121.647 13.846 121.647 14.2742 121.642C15.1883 121.571 16.03 121.433 16.9286 121.262C19.3174 120.853 21.6943 120.853 24.1097 120.836C24.642 120.83 25.1742 120.824 25.7064 120.818C27.1824 120.802 28.6584 120.79 30.1344 120.78C31.0764 120.772 32.0184 120.764 32.9604 120.756C46.627 120.634 60.2944 120.628 73.9615 120.623Z" fill="rgb(232,192,55)" fill-rule="nonzero" />
		<path id="矢量 288" d="M119.029 41.1204C119.525 41.1204 120.021 41.1204 120.532 41.1204C120.532 42.21 120.532 43.2995 120.532 44.4221C120.334 44.8183 120.136 45.2145 119.931 45.6227C119.822 46.3759 119.822 46.3759 119.807 47.1844C119.795 47.4784 119.783 47.7725 119.771 48.0754C119.757 48.5328 119.757 48.5328 119.743 48.9993C119.732 49.3089 119.72 49.6184 119.708 49.9373C119.68 50.7001 119.654 51.4629 119.631 52.2259C119.432 52.2259 119.234 52.2259 119.029 52.2259C118.93 55.7917 118.831 59.3575 118.729 63.0313C118.927 63.0313 119.126 63.0313 119.33 63.0313C119.479 65.4085 119.479 65.4085 119.631 67.8337C119.928 67.8337 120.226 67.8337 120.532 67.8337C120.532 68.6261 120.532 69.4185 120.532 70.2349C120.929 70.433 121.326 70.6311 121.735 70.8352C121.768 71.017 121.8 71.1989 121.834 71.3862C122.187 73.2458 122.661 75.0356 123.238 76.8382C123.535 76.9867 123.535 76.9867 123.839 77.1383C123.987 79.0698 123.987 79.0698 124.139 81.0402C124.437 81.4364 124.734 81.8326 125.041 82.2408C125.041 86.4999 125.041 90.7591 125.041 95.1472C124.743 95.5434 124.446 95.9396 124.139 96.3478C124.04 97.2393 123.941 98.1307 123.839 99.0492C123.244 99.3463 123.244 99.3463 122.636 99.6495C122.605 99.8476 122.574 100.046 122.542 100.25C122.278 101.402 121.864 102.45 121.434 103.551C120.938 103.65 120.442 103.75 119.931 103.852C119.733 104.446 119.534 105.04 119.33 105.652C118.735 105.95 118.735 105.95 118.128 106.253C117.929 106.649 117.731 107.045 117.526 107.453C117.13 107.552 116.733 107.651 116.324 107.754C116.027 108.348 116.027 108.348 115.723 108.954C115.227 109.053 114.731 109.152 114.22 109.254C114.121 109.551 114.022 109.849 113.92 110.155C113.721 110.223 113.523 110.291 113.318 110.361C112.545 110.699 111.946 111.057 111.252 111.524C110.634 111.923 110.634 111.923 110.012 112.256C109.29 112.446 108.658 112.509 107.908 112.556C107.908 111.962 107.908 111.367 107.908 110.755C108.144 110.538 108.379 110.322 108.622 110.098C109.012 109.681 109.012 109.681 109.411 109.254C109.769 108.474 109.769 108.474 110.012 107.754C110.31 107.456 110.31 107.456 110.613 107.153C110.694 106.856 110.774 106.559 110.857 106.253C111.085 105.444 111.361 104.683 111.684 103.908C112.157 102.694 112.283 101.515 112.383 100.222C112.394 100.033 112.405 99.844 112.417 99.6495C112.615 99.6495 112.813 99.6495 113.018 99.6495C113.34 98.8122 113.34 98.8122 113.355 98.1508C113.354 97.9235 113.353 97.6962 113.353 97.462C113.352 97.0745 113.352 97.0745 113.352 96.6792C113.351 96.4016 113.349 96.1239 113.348 95.8378C113.347 95.5526 113.347 95.2674 113.346 94.9736C113.345 94.0622 113.341 93.1509 113.337 92.2395C113.336 91.6219 113.334 91.0042 113.333 90.3865C113.33 88.8719 113.325 87.3572 113.318 85.8426C113.222 85.6591 113.125 85.4756 113.026 85.2866C112.717 84.642 112.717 84.642 112.593 83.9339C112.572 83.6971 112.551 83.4603 112.529 83.2163C112.496 82.8565 112.496 82.8565 112.461 82.4894C112.447 82.3083 112.432 82.1272 112.417 81.9407C112.218 81.6435 112.02 81.3464 111.815 81.0402C111.716 79.9507 111.617 78.8612 111.515 77.7386C111.317 77.5405 111.118 77.3424 110.914 77.1383C110.765 75.2068 110.765 75.2068 110.613 73.2364C110.415 73.2364 110.216 73.2364 110.012 73.2364C109.913 73.0383 109.814 72.8402 109.711 72.6361C109.642 71.9744 109.588 71.3112 109.542 70.6476C109.517 70.2908 109.492 69.9341 109.466 69.5666C109.448 69.2919 109.43 69.0172 109.411 68.7341C109.312 68.6351 109.212 68.536 109.11 68.434C108.781 66.3353 108.694 64.2535 108.81 62.1309C109.002 61.4281 109.202 60.7278 109.411 60.0298C109.552 58.6312 109.637 57.2313 109.711 55.8277C110.158 55.6791 110.158 55.6791 110.613 55.5276C110.712 54.6361 110.812 53.7447 110.914 52.8262C111.112 52.6281 111.311 52.43 111.515 52.2259C111.614 51.5326 111.713 50.8392 111.815 50.1249C111.935 49.969 112.055 49.813 112.178 49.6524C113.191 48.3235 113.191 48.3235 114.089 46.917C114.631 46.0452 115.279 45.4323 116.024 44.7222C116.445 44.3176 116.864 43.911 117.282 43.5029C117.485 43.3075 117.688 43.1121 117.896 42.9108C118.45 42.3415 118.45 42.3415 118.8 41.6469C118.914 41.3863 118.914 41.3863 119.029 41.1204Z" fill="rgb(232,192,55)" fill-rule="nonzero" />
		<path id="矢量 289" d="M15.6301 39.3195C16.3244 39.4186 17.0188 39.5176 17.7342 39.6197C19.326 41.1027 20.5555 42.5442 21.6417 44.4221C21.8312 44.7035 21.8312 44.7035 22.0245 44.9907C22.9031 46.2962 23.5575 47.6185 24.0745 49.1048C24.5446 50.8652 24.7833 52.6595 25.0349 54.4618C25.1609 55.3446 25.3322 56.1861 25.568 57.0459C25.8921 58.2851 25.9649 59.4652 25.9625 60.7427C25.9628 61.0898 25.9628 61.0898 25.963 61.4439C25.9221 63.6467 25.4612 65.6867 24.9328 67.8161C24.6273 69.0609 24.4946 70.282 24.408 71.5597C24.3378 72.4518 24.2195 73.3274 24.0839 74.2118C24.0413 74.492 23.9987 74.7721 23.9547 75.0607C23.7032 76.1164 23.2742 77.0429 22.844 78.0387C21.7097 81.848 20.9914 85.6882 20.9842 89.6695C20.9928 90.5954 21.0141 91.5204 21.0405 92.4459C21.0463 92.6769 21.0522 92.9079 21.0581 93.1459C21.1448 96.174 21.3574 99.1335 22.2428 102.051C22.5355 102.655 22.8357 103.255 23.1446 103.852C23.5309 104.836 23.8287 105.818 24.0463 106.853C24.1122 107.86 24.1042 108.848 24.0463 109.855C23.352 109.855 22.6576 109.855 21.9423 109.855C21.0329 108.992 20.1302 108.123 19.2326 107.248C18.9279 106.952 18.6216 106.659 18.3135 106.367C16.9606 105.084 15.6352 103.817 14.6663 102.212C13.8914 100.789 13.2081 99.3593 12.6243 97.8486C12.4259 97.8486 12.2275 97.8486 12.0232 97.8486C12.0011 97.5758 12.0011 97.5758 11.9785 97.2975C11.9561 97.046 11.9336 96.7945 11.9104 96.5354C11.8895 96.2917 11.8686 96.0479 11.847 95.7968C11.7464 94.9014 11.7464 94.9014 11.5806 94.2525C10.9895 91.7541 11.0024 89.2571 11.0087 86.7056C11.0088 86.4672 11.0088 86.2289 11.0089 85.9834C11.0211 81.3775 11.3945 76.9047 12.7171 72.4684C12.9654 71.6741 13.2291 70.888 13.4979 70.1C13.9174 68.7402 14.1043 67.3933 14.2892 65.9859C14.4807 64.8066 14.8587 63.8281 15.3295 62.7311C15.4364 62.5281 15.5432 62.3251 15.6533 62.116C15.9943 61.0274 16.0065 60.0611 16.0142 58.9254C16.013 58.6255 16.0118 58.3256 16.0105 58.0167C16.0111 57.7047 16.0117 57.3928 16.0123 57.0714C16.0127 56.4121 16.0116 55.7529 16.0091 55.0937C16.0058 54.0898 16.009 53.0861 16.0129 52.0823C16.0125 51.4404 16.0117 50.7985 16.0105 50.1565C16.0117 49.8585 16.013 49.5605 16.0142 49.2534C16.0027 47.5316 15.7918 46.0788 15.3295 44.4221C15.2613 43.7086 15.2613 43.7086 15.2708 43.137C15.2728 42.9281 15.2747 42.7192 15.2767 42.5039C15.2817 42.295 15.2868 42.086 15.292 41.8708C15.2947 41.6526 15.2974 41.4343 15.3002 41.2095C15.3072 40.6795 15.3179 40.1496 15.3295 39.6197C15.4287 39.5206 15.5279 39.4216 15.6301 39.3195Z" fill="rgb(232,192,55)" fill-rule="nonzero" />
	</g>
</svg>
