<svg viewBox="0 0 129 144" xmlns="http://www.w3.org/2000/svg" xmlns:xlink="http://www.w3.org/1999/xlink" width="129.000000" height="144.000000" fill="none" customFrame="#000000">
	<g id="组合 2">
		<path id="矢量 24" d="M63.6255 24.8049C66.2374 24.7305 68.7829 24.8124 71.3731 25.1144C71.6213 25.1431 71.8695 25.1718 72.1253 25.2013C72.747 25.2784 73.3665 25.3707 73.9854 25.4652C74.3391 25.6287 74.3391 25.6287 74.6999 25.7954C74.6999 26.0133 74.6999 26.2312 74.6999 26.4558C75.7609 26.7826 76.8219 27.1095 77.915 27.4463C78.1006 27.6217 78.2862 27.797 78.4774 27.9777C78.7265 28.2109 78.9757 28.4442 79.2323 28.6845C79.5991 29.0292 79.5991 29.0292 79.9733 29.381C80.7902 30.103 81.6765 30.7559 82.5591 31.4085C82.7359 33.5332 82.7359 33.5332 82.9164 35.7008C82.7764 36.0277 82.6364 36.3546 82.4921 36.6914C81.565 38.9655 80.8299 41.3029 80.0584 43.6252C79.7048 43.6252 79.3511 43.6252 78.9867 43.6252C78.8909 44.0269 78.7952 44.4287 78.6965 44.8427C78.4632 45.7082 78.2356 46.327 77.7587 47.1127C77.5745 47.3783 77.3903 47.6439 77.2005 47.9175C77.0237 48.2989 76.8469 48.6802 76.6647 49.0731C76.1288 50.2288 76.1288 50.2288 75.593 51.0129C74.8416 52.2282 74.4287 53.5175 73.9854 54.8513C73.7496 54.8513 73.5139 54.8513 73.2709 54.8513C73.0352 55.614 72.7994 56.3767 72.5565 57.1625C72.026 57.326 72.026 57.326 71.4847 57.4927C71.18 58.7058 71.089 59.8188 71.1052 61.0628C71.1084 61.385 71.1116 61.7072 71.115 62.0392C71.1191 62.2822 71.1232 62.5252 71.1275 62.7756C71.3541 63.1536 71.5806 63.5315 71.8141 63.9209C72.2066 64.649 72.5296 65.3169 72.7414 66.1071C72.856 66.8124 72.9381 67.5129 73.003 68.2236C73.0296 68.4808 73.0562 68.738 73.0836 69.003C73.4894 73.2664 73.2912 77.3759 72.5565 81.5959C72.3313 81.8445 72.1061 82.093 71.8741 82.3491C71.0678 83.2373 71.0678 83.2373 70.614 84.4024C70.4298 84.7838 70.2456 85.1651 70.0558 85.5581C69.4676 86.115 68.8727 86.6659 68.2696 87.209C68.1517 87.4814 68.0338 87.7538 67.9124 88.0344C67.7945 88.3068 67.6766 88.5792 67.5551 88.8599C66.6174 89.7885 66.6174 89.7885 65.769 90.5108C65.5332 90.5108 65.2974 90.5108 65.0545 90.5108C64.972 90.7491 64.8896 90.9875 64.8047 91.233C64.34 92.1617 64.34 92.1617 63.5516 92.9871C63.2444 93.2595 62.9373 93.5319 62.6208 93.8126C62.3164 94.085 62.012 94.3574 61.6984 94.638C61.3912 94.9104 61.0841 95.1828 60.7676 95.4635C60.4641 95.7482 60.1607 96.033 59.848 96.3263C58.6952 97.3747 57.468 98.2662 56.1235 99.0955C55.0518 99.5495 55.0518 99.5495 54.3373 99.7558C54.0977 100.019 54.0977 100.019 53.8531 100.287C52.8997 101.317 52.0049 102.274 50.8543 103.12C50.0239 103.691 50.0239 103.691 49.4253 104.461C48.96 105.313 48.96 105.313 48.835 106.061C48.7448 106.709 48.6812 107.36 48.6215 108.01C49.9183 107.792 51.2151 107.574 52.5512 107.35C53.0153 106.829 53.0153 106.829 53.4889 106.298C54.2278 105.496 54.9687 104.791 55.8556 104.131C56.1798 103.886 56.504 103.64 56.838 103.388C57.0738 103.061 57.3096 102.734 57.5525 102.397C57.7883 102.397 58.024 102.397 58.267 102.397C58.267 102.179 58.267 101.961 58.267 101.737C58.5617 101.635 58.8564 101.533 59.1601 101.427C59.7787 101.162 59.7787 101.162 60.4104 100.746C61.174 100.02 61.8798 99.2614 62.5887 98.4893C63.336 97.7036 64.1358 97.0643 65.0545 96.454C65.1724 96.1271 65.2903 95.8003 65.4117 95.4635C65.618 95.3818 65.8243 95.3 66.0369 95.2158C66.9488 94.7476 67.5472 94.1723 68.2696 93.4824C68.5054 93.3734 68.7412 93.2645 68.9841 93.1522C69.102 92.8253 69.2199 92.4985 69.3413 92.1617C71.4625 91.5229 73.5306 90.9438 75.7716 90.841C77.4392 90.8176 79.1053 90.8215 80.7729 90.841C80.9585 90.9525 81.1441 91.064 81.3353 91.1789C82.9011 92.1114 82.9011 92.1114 84.5909 92.822C84.8635 92.931 85.1361 93.04 85.417 93.1522C86.4217 94.0189 86.4217 94.0189 87.2032 94.8031C87.5012 95.6556 87.5705 96.3742 87.6067 97.2781C87.609 97.7356 87.6093 98.193 87.6079 98.6505C87.6082 98.8939 87.6086 99.1373 87.6089 99.388C87.6092 99.9017 87.6085 100.415 87.607 100.929C87.6051 101.712 87.607 102.496 87.6093 103.279C87.609 103.779 87.6086 104.279 87.6079 104.779C87.6086 105.012 87.6093 105.245 87.6101 105.485C87.6039 106.699 87.515 107.821 87.2032 109.001C86.9674 109.001 86.7316 109.001 86.4887 109.001C86.3929 109.287 86.2972 109.573 86.1985 109.868C85.5268 111.632 84.6456 113.05 83.4522 114.552C82.7923 115.402 82.2435 116.174 81.8014 117.138C81.5536 117.834 81.325 118.526 81.1302 119.236C80.7765 119.454 80.4228 119.672 80.0584 119.897C79.7048 120.66 79.3511 121.422 78.9867 122.208C78.751 122.208 78.5152 122.208 78.2723 122.208C78.1691 122.399 78.066 122.589 77.9597 122.786C77.8271 123.031 77.6944 123.276 77.5578 123.529C77.462 123.74 77.3662 123.951 77.2675 124.169C76.8433 124.85 76.8433 124.85 75.9725 125.613C75.0734 126.404 75.0734 126.404 74.7027 127.12C74.4471 127.677 74.2142 128.244 73.9854 128.812C72.5708 129.465 72.5708 129.465 71.1275 130.132C70.0665 130.132 69.0055 130.132 67.9124 130.132C67.5587 129.806 67.205 129.479 66.8407 129.142C66.7636 128.323 66.7377 127.643 66.8407 126.831C67.1501 125.966 67.5183 125.142 67.9096 124.307C68.3044 123.492 68.3044 123.492 68.6268 122.456C68.9841 121.548 68.9841 121.548 69.6707 120.673C70.2777 119.768 70.5771 119.209 70.8652 118.218C70.9868 117.746 71.1039 117.274 71.2168 116.801C71.2785 116.558 71.3402 116.315 71.4038 116.065C71.5538 115.472 71.6984 114.878 71.842 114.284C72.0778 114.175 72.3135 114.066 72.5565 113.954C73.1459 112.755 73.7354 111.556 74.3427 110.322C74.5784 110.322 74.8142 110.322 75.0571 110.322C75.1234 109.913 75.1234 109.913 75.1911 109.496C75.4144 108.341 75.4144 108.341 75.7939 107.102C76.2369 105.537 76.193 104.004 76.1288 102.397C75.4215 102.397 74.7142 102.397 73.9854 102.397C72.9244 103.214 72.9244 103.214 71.842 104.048C71.6062 104.048 71.3704 104.048 71.1275 104.048C71.1275 104.375 71.1275 104.702 71.1275 105.039C70.8807 105.265 70.6339 105.491 70.3795 105.724C69.2396 106.778 68.1253 107.854 67.0193 108.939C66.8208 109.13 66.6223 109.321 66.4178 109.517C65.0237 110.889 63.9294 112.325 62.911 113.954C62.6679 114.076 62.4248 114.199 62.1742 114.325C60.8869 115.085 59.7236 115.945 58.6242 116.925C58.5063 117.143 58.3884 117.361 58.267 117.586C58.0312 117.586 57.7954 117.586 57.5525 117.586C57.5525 117.803 57.5525 118.021 57.5525 118.246C57.1298 118.455 56.7052 118.661 56.2798 118.865C56.0436 118.98 55.8074 119.095 55.564 119.213C54.4467 119.667 53.3853 119.972 52.1939 120.227C51.127 120.299 50.0701 120.29 49.0011 120.268C48.7227 120.265 48.4444 120.262 48.1576 120.259C47.4786 120.252 46.7997 120.24 46.1209 120.227C45.9353 120.119 45.7497 120.012 45.5585 119.901C45.3094 119.756 45.0602 119.612 44.8036 119.463C44.5411 119.311 44.2786 119.159 44.0082 119.002C43.4623 118.69 42.9072 118.392 42.3476 118.101C41.1174 117.373 40.0716 116.498 38.9761 115.604C38.6225 114.733 38.2688 113.861 37.9044 112.963C37.6686 112.745 37.4329 112.527 37.1899 112.303C37.1899 109.579 37.1899 106.855 37.1899 104.048C38.9761 101.407 38.9761 101.407 39.579 100.54C40.1134 99.6461 40.4243 98.7451 40.7623 97.7747C41.6622 96.8868 42.563 95.9997 43.4639 95.1127C43.8414 94.7401 43.8414 94.7401 44.2265 94.3601C45.6116 92.9973 47.0108 91.6582 48.4701 90.3631C49.076 89.7914 49.076 89.7914 49.6709 88.7154C49.7962 88.4362 49.9214 88.157 50.0505 87.8693C50.2402 87.7416 50.4299 87.614 50.6254 87.4824C52.6006 86.1496 52.6006 86.1496 54.3373 84.5675C54.9194 83.7606 55.3671 83.0247 55.7216 82.1118C56.2505 80.9983 57.0675 80.215 57.9097 79.2846C58.2634 78.6309 58.6171 77.9771 58.9814 77.3036C58.9814 75.3423 58.9814 73.381 58.9814 71.3603C58.6278 71.1424 58.2741 70.9245 57.9097 70.6999C57.5561 69.3924 57.2024 68.0849 56.838 66.7378C56.4843 66.4109 56.4843 66.4109 56.1235 66.0774C55.8942 59.9705 55.8942 59.9705 56.3663 57.5882C56.7006 56.6357 57.0876 55.7554 57.5525 54.8513C57.7247 54.498 57.8969 54.1447 58.0744 53.7808C58.5814 52.7888 59.0834 51.8289 59.6959 50.8891C60.4774 50.1153 60.4774 50.1153 61.1249 49.5684C61.2114 49.3054 61.298 49.0423 61.3872 48.7713C62.0492 46.8368 62.7422 45.3068 63.9828 43.6252C64.2017 42.9657 64.3618 42.3066 64.5186 41.6325C64.7815 40.6778 65.2498 39.8579 65.769 39.0026C65.8868 38.8937 66.0047 38.7847 66.1262 38.6724C66.2441 37.4739 66.362 36.2753 66.4834 35.0405C65.0688 35.2039 65.0688 35.2039 63.6255 35.3706C62.4083 36.1122 61.2089 36.8602 60.0531 37.6819C59.9353 38.1177 59.8174 38.5536 59.6959 39.0026C59.3312 39.3091 59.3312 39.3091 58.9591 39.6217C57.8047 40.6826 56.9371 41.908 56.0217 43.1466C55.2774 44.1291 54.4732 45.0314 53.6229 45.9364C52.506 46.2884 51.4923 46.5718 50.313 46.6513C49.458 46.6614 48.6057 46.6546 47.7508 46.638C47.4554 46.6351 47.16 46.6321 46.8556 46.629C46.1343 46.6213 45.4131 46.6095 44.6919 46.5968C44.2754 46.2827 44.2754 46.2827 43.8505 45.9622C43.0659 45.3924 42.3813 44.9872 41.4768 44.6157C41.1196 43.6252 41.1196 43.6251 41.0847 42.5895C41.0888 42.2026 41.093 41.8157 41.0972 41.4171C41.1004 41.0276 41.1037 40.6382 41.107 40.2369C41.1111 39.9386 41.1153 39.6402 41.1196 39.3328C41.2835 39.2128 41.4474 39.0928 41.6163 38.9691C42.7078 38.1426 43.5623 37.4312 44.357 36.3405C44.5854 36.0205 44.8138 35.7004 45.0492 35.3706C45.5618 34.9706 46.0754 34.571 46.6051 34.1905C47.5429 33.439 48.2998 32.5502 49.082 31.6626C49.6933 31.0783 49.6933 31.0783 50.4831 30.6694C50.694 30.5864 50.9049 30.5034 51.1222 30.4179C51.1959 30.2341 51.2696 30.0502 51.3455 29.8608C51.8367 29.0972 51.8367 29.0972 52.7298 28.2718C53.4298 27.7513 54.0657 27.411 54.8899 27.071C55.5155 26.8462 56.1443 26.629 56.7766 26.4209C57.1607 26.2747 57.1607 26.2747 57.5525 26.1256C57.7883 25.9077 58.024 25.6897 58.267 25.4652C59.9174 25.3563 61.5678 25.2473 63.2683 25.135C63.3862 25.0261 63.5041 24.9171 63.6255 24.8049Z" fill="rgb(232,192,55)" fill-rule="nonzero" />
		<path id="矢量 25" d="M115.559 6.18748e-05C115.986 0.0136818 116.414 0.0273018 116.854 0.0413344C118.953 1.32078 118.953 1.32078 119.355 1.69224C119.441 3.24842 119.491 4.74828 119.129 6.27736C118.791 7.31563 118.451 8.31567 117.926 9.28639C117.69 9.28639 117.454 9.28639 117.211 9.28639C117.211 10.0491 117.211 10.8118 117.211 11.5976C117.1 11.7653 116.989 11.933 116.875 12.1058C116.438 12.9496 116.438 12.9496 116.308 14.0611C116.211 14.9209 116.114 15.7807 116.018 16.6406C115.782 17.8711 115.782 17.8711 115.238 18.9287C115.064 19.2334 114.89 19.5382 114.711 19.8522C114.514 20.6024 114.514 20.6024 114.465 21.2967C114.428 21.6917 114.391 22.0867 114.353 22.4936C114.118 22.4936 113.882 22.4936 113.639 22.4936C113.647 22.7051 113.655 22.9167 113.664 23.1346C113.67 23.4202 113.677 23.7058 113.683 24.0001C113.692 24.2797 113.7 24.5593 113.709 24.8474C113.639 25.7954 113.639 25.7954 113.29 26.8801C112.869 28.2927 112.794 29.581 112.746 31.037C112.661 32.8563 112.553 34.5873 112.044 36.3547C111.74 37.4156 111.55 38.497 111.339 39.5766C111.133 40.3411 110.815 40.9475 110.424 41.6441C110.415 41.9303 110.406 42.2165 110.397 42.5114C110.362 43.5847 110.327 44.6578 110.291 45.731C110.275 46.1934 110.26 46.6558 110.246 47.1182C110.225 47.7871 110.202 48.4559 110.179 49.1247C110.166 49.5259 110.153 49.927 110.14 50.3403C110.066 51.5495 110.066 51.5495 109.885 52.7623C109.619 54.6163 109.651 56.4754 109.649 58.3427C109.648 58.7392 109.647 59.1357 109.646 59.5442C109.644 60.3809 109.643 61.2175 109.643 62.0542C109.642 63.3229 109.636 64.5915 109.629 65.8601C109.628 66.6767 109.627 67.4934 109.627 68.31C109.624 68.684 109.622 69.058 109.619 69.4434C109.626 71.6724 109.852 73.7816 110.253 75.9789C110.486 77.3395 110.583 78.69 110.65 80.0649C110.665 80.33 110.679 80.5951 110.695 80.8682C110.741 81.6954 110.783 82.5227 110.826 83.35C110.857 83.919 110.888 84.488 110.919 85.057C110.995 86.4346 111.067 87.8123 111.138 89.19C111.374 89.19 111.61 89.19 111.853 89.19C112.205 90.8815 112.32 92.5505 112.411 94.2666C112.434 94.6784 112.434 94.6784 112.458 95.0985C112.495 95.7704 112.531 96.4424 112.567 97.1144C112.803 97.4413 113.039 97.7681 113.282 98.1049C113.482 98.6023 113.667 99.1051 113.84 99.6114C114.095 100.355 114.333 101.039 114.711 101.737C114.794 102.633 114.86 103.522 114.911 104.42C114.927 104.669 114.942 104.918 114.958 105.174C114.996 105.789 115.032 106.405 115.068 107.02C115.304 107.02 115.539 107.02 115.782 107.02C116.136 107.565 116.49 108.109 116.854 108.671C116.876 109.093 116.898 109.515 116.921 109.95C117.03 110.882 117.199 111.616 117.595 112.482C117.907 113.041 118.224 113.597 118.545 114.151C119.754 116.271 120.424 118.594 121.141 120.887C121.259 120.996 121.377 121.105 121.498 121.218C121.734 122.198 121.97 123.179 122.213 124.189C122.448 124.407 122.684 124.625 122.927 124.85C123.281 127.138 123.281 127.138 123.641 129.472C123.995 129.581 124.349 129.69 124.713 129.802C125.55 131.479 125.55 131.479 125.785 132.114C125.785 132.549 125.785 132.985 125.785 133.434C126.256 133.543 126.728 133.652 127.214 133.764C127.31 134.119 127.405 134.473 127.504 134.837C127.851 136.049 127.851 136.049 128.509 136.88C128.752 137.136 128.752 137.136 129 137.396C129 138.377 129 139.358 129 140.368C127.35 141.567 125.699 142.765 123.999 144C123.409 143.891 122.82 143.782 122.213 143.67C121.623 143.125 121.034 142.58 120.426 142.019C120.426 141.801 120.426 141.583 120.426 141.359C119.955 141.25 119.483 141.141 118.997 141.028C118.141 139.488 117.36 137.92 116.592 136.34C116.311 135.766 116.025 135.194 115.732 134.625C115.116 133.412 114.646 132.297 114.376 130.979C114.063 129.497 113.407 128.296 112.651 126.966C111.573 125.022 110.956 123.008 110.424 120.887C110.188 120.669 109.952 120.452 109.709 120.227C109.466 119.679 109.228 119.128 108.995 118.576C108.641 118.086 108.641 118.086 108.28 117.586C108.064 116.799 107.873 116.007 107.7 115.212C107.607 114.792 107.514 114.372 107.418 113.939C107.349 113.617 107.28 113.295 107.209 112.963C106.678 112.309 106.678 112.309 106.137 111.642C106.137 110.989 106.137 110.335 106.137 109.661C105.901 109.661 105.665 109.661 105.422 109.661C105.349 109.383 105.276 109.105 105.2 108.818C105.104 108.456 105.008 108.094 104.909 107.721C104.814 107.361 104.718 107.001 104.62 106.63C104.394 105.724 104.394 105.724 103.993 105.039C103.893 103.892 103.834 102.746 103.772 101.598C103.688 100.44 103.688 100.44 103.287 99.4888C102.684 97.749 102.654 95.9458 102.521 94.1305C102.369 92.3859 102.035 90.9079 101.388 89.2661C100.952 87.9938 100.84 86.6965 100.711 85.3723C100.682 85.1023 100.653 84.8322 100.623 84.554C100.552 83.8984 100.486 83.2425 100.421 82.5864C100.185 82.5864 99.9495 82.5864 99.7066 82.5864C99.3029 75.8476 98.9178 69.1138 98.9251 62.3629C98.9248 62.1274 98.9246 61.892 98.9243 61.6493C98.9248 57.837 98.9248 57.837 99.1674 56.5959C99.4323 55.0172 99.434 53.4467 99.4624 51.8513C99.4735 51.3278 99.4735 51.3278 99.4848 50.7938C99.5081 49.6837 99.5292 48.5736 99.5503 47.4635C99.5657 46.709 99.5813 45.9545 99.597 45.2C99.6352 43.3543 99.6716 41.5087 99.7066 39.663C99.8834 39.3361 99.8834 39.3361 100.064 39.0026C100.3 39.0026 100.535 39.0026 100.778 39.0026C100.756 38.4919 100.756 38.4919 100.734 37.9708C100.748 37.5486 100.763 37.1264 100.778 36.6914C100.893 36.393 101.009 36.0946 101.127 35.7872C101.626 34.3175 101.643 32.8784 101.695 31.3537C101.744 30.3095 101.849 29.43 102.218 28.4381C102.39 28.1106 102.39 28.1106 102.564 27.7765C103.095 27.4496 103.095 27.4496 103.636 27.1161C103.99 24.828 104.344 22.5398 104.708 20.1823C104.944 20.1823 105.179 20.1823 105.422 20.1823C105.8 18.2427 106.146 16.3318 106.271 14.3629C106.351 13.4062 106.483 12.6179 106.821 11.7086C107.073 11.1528 107.331 10.5989 107.594 10.0473C108.04 9.01667 108.177 8.07678 108.28 6.97512C108.516 6.97512 108.752 6.97512 108.995 6.97512C108.995 6.43033 108.995 5.88553 108.995 5.32422C109.335 4.67682 109.678 4.0304 110.022 3.38441C110.308 2.8443 110.308 2.8443 110.6 2.29327C111.138 1.36206 111.138 1.36206 111.853 0.701695C113.121 0.232807 114.202 -0.0044012 115.559 6.18748e-05Z" fill="rgb(232,192,55)" fill-rule="nonzero" />
		<path id="矢量 26" d="M11.4688 0.0413818C12.6477 0.0413818 13.8266 0.0413818 15.0412 0.0413818C15.9254 0.5317 15.9254 0.5317 16.8274 1.03192C18.7358 4.49882 18.7358 4.49882 19.3281 5.98463C19.3764 6.43773 19.4128 6.892 19.4397 7.34662C19.4897 8.1239 19.4897 8.1239 19.6853 8.95625C20.1894 10.0549 20.7535 11.1172 21.3222 12.1884C21.7828 13.1525 22.0432 13.9694 22.2306 15.0027C22.261 15.2398 22.2914 15.4768 22.3227 15.7211C22.5359 16.5229 22.8268 17.063 23.2521 17.7821C23.656 18.5018 23.9564 19.1252 24.1443 19.9184C24.2442 20.6666 24.3171 21.4114 24.3741 22.1635C24.5211 23.8585 24.7473 25.4152 25.2275 27.0646C25.5755 28.4921 25.6705 29.9529 25.803 31.4085C25.8339 31.7273 25.8647 32.0461 25.8965 32.3746C25.9715 33.153 26.0445 33.9316 26.1156 34.7103C26.3514 34.7103 26.5871 34.7103 26.8301 34.7103C27.6008 36.3279 27.8609 37.8839 28.1123 39.6277C28.4102 42.1263 28.4162 44.6431 28.46 47.154C28.4812 48.2147 28.5043 49.2753 28.5283 50.3359C28.5341 50.6001 28.5398 50.8643 28.5457 51.1365C28.59 52.9762 28.6851 54.8098 28.8018 56.6467C28.9892 59.6554 29.0282 62.6569 29.0201 65.6701C29.0181 66.5254 29.0201 67.3806 29.0223 68.2359C29.0221 68.7877 29.0216 69.3395 29.0209 69.8913C29.0217 70.1431 29.0224 70.3948 29.0231 70.6542C29.0166 72.0286 28.8796 73.3118 28.6162 74.6622C28.5708 75.2845 28.5375 75.9076 28.5158 76.531C28.5024 76.8747 28.4891 77.2184 28.4753 77.5725C28.4501 78.2888 28.425 79.005 28.4 79.7213C28.3799 80.2362 28.3799 80.2362 28.3595 80.7615C28.3487 81.0722 28.3378 81.3829 28.3267 81.7031C28.26 82.5739 28.0939 83.3839 27.9018 84.2374C27.824 85.351 27.7625 86.4629 27.7169 87.5779C27.6818 88.2267 27.614 88.8738 27.5445 89.5203C27.3128 90.0729 27.0746 90.6233 26.8301 91.1712C26.6969 92.0202 26.5857 92.8569 26.4951 93.7094C26.2796 95.519 25.937 97.1484 25.3048 98.8775C24.7421 100.772 24.5682 102.761 24.3294 104.709C24.1687 104.867 24.008 105.025 23.8424 105.188C23.2481 105.964 23.2481 105.964 23.0353 106.665C22.8331 107.413 22.6503 108.164 22.4762 108.918C22.3812 109.311 22.3812 109.311 22.2844 109.712C22.1293 110.355 21.9786 110.998 21.8287 111.642C21.593 111.642 21.3572 111.642 21.1143 111.642C20.9964 112.078 20.8785 112.514 20.757 112.963C20.5212 113.181 20.2855 113.399 20.0425 113.623C19.8657 116.238 19.8657 116.238 19.6853 118.906C19.2138 119.56 18.7422 120.214 18.2564 120.887C18.2172 121.178 18.1781 121.469 18.1377 121.768C18.0811 122.152 18.0245 122.535 17.9661 122.93C17.9122 123.31 17.8583 123.689 17.8028 124.08C17.5419 125.18 17.5419 125.18 17.0465 126.001C16.7612 126.412 16.7612 126.412 16.4702 126.831C16.1085 127.599 15.7516 128.37 15.3985 129.142C14.9802 129.946 14.5427 130.741 14.1035 131.536C13.2335 133.109 13.2335 133.109 12.5406 134.755C12.3048 134.864 12.069 134.973 11.8261 135.085C11.7271 135.32 11.6281 135.554 11.5261 135.796C11.3967 136.099 11.2673 136.403 11.1339 136.715C11.0055 137.018 10.877 137.321 10.7446 137.632C10.6299 137.881 10.5153 138.13 10.3971 138.387C10.2792 138.496 10.1614 138.605 10.0399 138.717C9.922 139.48 9.80412 140.243 9.68266 141.028C9.09321 141.682 8.50377 142.336 7.89647 143.01C6.98792 143.278 6.19981 143.353 5.23951 143.402C3.96685 143.34 3.96685 143.34 3.00678 143.092C2.18067 142.679 2.18067 142.679 1.39921 142.081C0.751716 141.359 0.751716 141.359 0.305169 140.636C-0.020117 139.509 -0.0165724 138.489 0.0121231 137.328C0.0204127 137.133 0.0287009 136.937 0.0372413 136.736C0.280386 136.47 0.280386 136.47 0.528443 136.2C1.15445 135.431 1.15445 135.431 1.44386 134.487C1.75088 133.635 2.04884 133.034 2.5379 132.279C3.19122 131.267 3.57113 130.264 3.96685 129.142C4.2321 128.744 4.2321 128.744 4.50271 128.337C5.01503 127.528 5.24068 126.816 5.49209 125.916C6.1895 123.948 7.23065 122.026 8.29557 120.205C8.68122 119.424 8.84481 118.676 9.01284 117.833C9.0727 117.539 9.13257 117.244 9.19425 116.941C9.23753 116.718 9.28082 116.495 9.32542 116.265C9.5612 116.156 9.79697 116.047 10.0399 115.935C10.1578 115.172 10.2757 114.409 10.3971 113.623C10.6329 113.406 10.8687 113.188 11.1116 112.963C11.1208 112.763 11.13 112.563 11.1395 112.357C11.2285 111.142 11.3361 110.012 11.7731 108.858C12.024 108.319 12.2752 107.779 12.5266 107.24C13.2303 105.57 13.5652 103.816 13.9695 102.067C14.0922 101.582 14.216 101.096 14.3407 100.611C15.0567 97.7948 15.6325 95.0645 15.7557 92.1617C15.9178 91.9166 16.0799 91.6714 16.2469 91.4188C16.7158 90.6855 17.1359 89.9535 17.5419 89.1901C17.5452 88.9975 17.5486 88.8049 17.552 88.6064C17.6475 84.0898 17.9831 79.6547 18.5356 75.1693C19.1076 70.5114 19.4637 65.918 19.4397 61.2279C19.4387 60.9792 19.4378 60.7305 19.4368 60.4742C19.4725 57.6349 19.4725 57.6349 18.9708 54.8513C18.8803 53.7141 18.8134 52.5787 18.7545 51.4399C18.7183 50.8155 18.667 50.1918 18.6136 49.5684C18.4957 49.3505 18.3778 49.1326 18.2564 48.9081C18.2511 48.6601 18.2459 48.4122 18.2406 48.1567C18.2138 47.0244 18.1793 45.8923 18.1447 44.7602C18.1326 44.1751 18.1326 44.1751 18.1203 43.5781C18.0839 42.4849 18.0324 41.4103 17.8991 40.3234C17.5635 39.5447 17.2082 38.7729 16.8274 38.0121C16.6172 36.9032 16.5331 35.7914 16.4478 34.6691C16.392 34.049 16.3353 33.4291 16.2776 32.8092C16.2367 32.3621 16.2367 32.3621 16.1949 31.9061C15.9136 29.0662 15.3093 26.3156 14.5807 23.5487C14.3325 22.5175 14.1676 21.497 14.0142 20.4507C13.8437 19.4275 13.6454 18.5994 13.1839 17.6544C12.8661 17.1092 12.5458 16.5653 12.2224 16.0229C11.8261 15.2297 11.8261 15.2297 11.6307 14.3642C11.5504 13.6643 11.5056 12.9611 11.4688 12.2581C11.304 12.0414 11.1391 11.8248 10.9693 11.6016C10.4838 10.7578 10.2646 10.2239 10.0706 9.31352C9.98228 8.84419 9.89769 8.37425 9.81662 7.9038C9.66057 7.04226 9.49669 6.18345 9.32542 5.32427C9.20753 5.10635 9.08964 4.88843 8.96818 4.66391C8.96818 3.90119 8.96818 3.13847 8.96818 2.35264C9.80173 1.58222 10.6353 0.811803 11.4688 0.0413818Z" fill="rgb(232,192,55)" fill-rule="nonzero" />
	</g>
</svg>
