<svg viewBox="0 0 135 129" xmlns="http://www.w3.org/2000/svg" xmlns:xlink="http://www.w3.org/1999/xlink" width="135.000000" height="129.000061" fill="none" customFrame="#000000">
	<g id="组合 5">
		<path id="矢量 176" d="M74.1284 81.5375C74.3051 81.5428 74.4818 81.5482 74.6639 81.5537C74.8442 81.5579 75.0244 81.5621 75.2102 81.5664C75.344 81.5717 75.4779 81.5771 75.6158 81.5826C75.73 81.697 75.73 81.697 75.8466 81.8137C75.8466 82.4999 75.8466 83.1861 75.8466 83.8931C75.3897 84.2743 74.9327 84.6556 74.462 85.0484C74.3097 85.0484 74.1574 85.0484 74.0004 85.0484C73.8481 85.3534 73.6958 85.6583 73.5389 85.9726C73.3866 85.9726 73.2343 85.9726 73.0774 85.9726C73.0774 86.1251 73.0774 86.2776 73.0774 86.4347C72.925 86.4347 72.7727 86.4347 72.6158 86.4347C72.5301 86.6134 72.5301 86.6134 72.4427 86.7957C72.0629 87.5372 71.6471 88.2544 71.2312 88.9762C71.117 90.1199 71.117 90.1199 71.0004 91.2868C70.772 91.668 70.5435 92.0492 70.3081 92.442C70.232 94.4244 70.1558 96.4068 70.0774 98.4493C70.382 98.4493 70.6866 98.4493 71.0004 98.4493C71.0424 98.5887 71.0843 98.7281 71.1275 98.8717C71.4781 100.009 71.4781 100.009 72.0389 101.049C72.1531 101.182 72.2674 101.316 72.385 101.453C72.6196 101.836 72.8513 102.22 73.0774 102.608C73.42 102.723 73.42 102.723 73.7697 102.839C73.8458 103.144 73.922 103.449 74.0004 103.764C74.3431 103.992 74.3431 103.992 74.6927 104.226C74.6927 104.378 74.6927 104.531 74.6927 104.688C75.0735 104.764 75.4543 104.84 75.8466 104.919C76.5227 105.572 77.1162 106.256 77.6927 106.998C78.1497 107.227 78.6066 107.456 79.0774 107.691C79.1535 107.996 79.2297 108.301 79.3081 108.616C79.765 108.844 79.765 108.844 80.2312 109.078C80.985 110.119 81.4276 111.096 81.8466 112.312C82.075 112.465 82.3035 112.617 82.5389 112.775C82.5679 113.768 82.5886 114.762 82.6023 115.756C82.608 116.092 82.6158 116.429 82.6259 116.765C82.7053 119.476 82.7053 119.476 82.4219 120.655C82.1367 121.596 81.7797 122.502 81.385 123.403C81.2729 123.51 81.1608 123.618 81.0453 123.729C80.3408 124.408 79.7078 125.071 79.1639 125.887C78.988 126.142 78.806 126.393 78.6158 126.638C78.0966 127.027 78.0966 127.027 77.462 127.331C77.2936 127.412 77.1252 127.493 76.9518 127.576C76.4327 127.818 75.9224 128.056 75.385 128.255C75.1566 128.255 74.9281 128.255 74.6927 128.255C74.6927 128.407 74.6927 128.56 74.6927 128.717C73.3393 129.027 72.0077 128.991 70.6254 128.991C70.3657 128.994 70.106 128.997 69.8385 129C68.1752 129.003 66.6243 128.848 65.0004 128.486C64.8291 128.272 64.6577 128.057 64.4812 127.836C64.1305 127.417 63.7973 127.057 63.385 126.695C62.9291 126.387 62.9291 126.387 62.3899 126.219C61.7697 125.944 61.7697 125.944 61.3532 125.616C61.0705 125.369 60.79 125.12 60.5122 124.868C60.1597 124.537 60.1597 124.537 59.6927 124.327C59.6927 124.098 59.6927 123.87 59.6927 123.634C59.569 123.581 59.4452 123.529 59.3177 123.475C58.5921 123.074 57.9608 122.612 57.385 122.017C57.1236 121.614 57.1236 121.614 56.8947 121.193C56.503 120.398 56.503 120.398 55.9427 119.836C55.8095 119.717 55.6762 119.598 55.5389 119.475C55.3692 119.018 55.218 118.555 55.0774 118.089C55.0485 117.424 55.0485 117.424 55.0774 116.933C54.925 116.933 54.7727 116.933 54.6158 116.933C54.3636 116.395 54.1243 115.874 53.9235 115.316C53.895 115.064 53.8664 114.811 53.837 114.551C53.7405 113.731 53.7405 113.731 53.4313 113.173C53.2291 112.806 53.0211 112.443 52.8057 112.085C52.4797 111.234 52.4077 110.463 52.3433 109.558C52.282 108.319 52.2562 107.083 52.2504 105.843C52.2457 105.589 52.2409 105.335 52.236 105.074C52.2299 103.781 52.3179 102.632 52.6579 101.381C52.7684 101.019 52.8812 100.657 53.0004 100.298C53.1527 100.298 53.305 100.298 53.462 100.298C53.476 100.07 53.4899 99.8415 53.5043 99.6064C53.5237 99.3103 53.543 99.0143 53.5629 98.7093C53.5817 98.4144 53.6004 98.1195 53.6197 97.8158C53.6438 97.5674 53.6679 97.319 53.6927 97.063C53.807 96.8343 53.807 96.8343 53.9235 96.6009C54.0758 96.6009 54.2281 96.6009 54.3851 96.6009C54.4612 95.991 54.5374 95.381 54.6158 94.7525C54.7205 94.6239 54.8252 94.4952 54.9331 94.3626C55.329 93.8461 55.329 93.8461 55.5245 93.2507C55.6054 93.0601 55.6863 92.8695 55.7697 92.6731C55.9125 92.5396 56.0552 92.4062 56.2024 92.2687C56.3642 92.0972 56.526 91.9256 56.6927 91.7489C56.8138 91.4381 56.9284 91.1248 57.0389 90.8102C57.2688 90.2624 57.2688 90.2624 57.6158 89.6694C58.8541 88.3073 60.221 87.19 61.7841 86.2181C62.088 86.0434 62.088 86.0434 62.398 85.8652C62.9469 85.5309 62.9469 85.5309 63.3409 85.0041C63.4316 84.8662 63.5223 84.7283 63.6158 84.5863C64.014 84.4208 64.4121 84.2553 64.8102 84.0899C65.2924 83.8774 65.2924 83.8774 65.9235 83.431C66.4591 83.2674 66.9975 83.1121 67.5389 82.9689C67.6912 82.8164 67.8435 82.6639 68.0004 82.5068C68.4261 82.4648 68.4261 82.4648 68.8604 82.422C69.2372 82.3829 69.614 82.3438 69.9908 82.3046C70.2706 82.2774 70.2706 82.2774 70.556 82.2496C71.7821 82.1198 72.9242 81.6297 74.1284 81.5375Z" fill="rgb(232,192,55)" fill-rule="nonzero" />
		<path id="矢量 174" d="M126.923 22.15C128.142 22.15 129.36 22.15 130.615 22.15C130.92 22.3787 131.225 22.6074 131.538 22.8431C131.767 22.9194 131.995 22.9956 132.231 23.0742C132.802 24.1035 132.802 24.1035 133.385 25.1536C133.385 26.5261 133.385 27.8985 133.385 29.3125C133.042 29.77 133.042 29.77 132.692 30.2368C132.626 30.4464 132.559 30.6561 132.49 30.8721C132.269 31.512 132.064 31.9093 131.697 32.4606C130.926 33.6418 130.435 34.9346 129.923 36.2441C129.771 36.2441 129.618 36.2441 129.462 36.2441C129.309 36.5491 129.157 36.8541 129 37.1683C128.848 37.1683 128.695 37.1683 128.538 37.1683C128.538 37.6258 128.538 38.0832 128.538 38.5546C128.217 38.862 128.217 38.862 127.889 39.1755C127.291 39.7749 126.883 40.358 126.462 41.0962C126.011 41.7204 125.545 42.3332 125.077 42.9446C124.925 42.9446 124.772 42.9446 124.615 42.9446C124.539 43.402 124.463 43.8595 124.385 44.3309C124.232 44.3309 124.08 44.3309 123.923 44.3309C123.866 44.4977 123.809 44.6645 123.75 44.8363C123.462 45.4861 123.462 45.4861 123.043 46.0782C122.538 46.6414 122.538 46.6414 121.962 47.089C121.771 47.2463 121.581 47.4036 121.385 47.5656C121.242 47.7896 121.099 48.0135 120.952 48.2443C120.462 48.9519 120.462 48.9519 120.086 49.257C119.807 49.4487 119.527 49.6385 119.245 49.8265C118.658 50.2396 118.186 50.7423 117.692 51.2624C116.655 52.3512 116.655 52.3512 116.005 52.7209C115.876 52.7733 115.748 52.8258 115.615 52.8798C115.539 53.1085 115.463 53.3372 115.385 53.5729C115.175 53.7016 114.966 53.8303 114.75 53.9628C113.986 54.462 113.986 54.462 113.452 55.1325C113.328 55.3041 113.204 55.4756 113.077 55.6524C112.696 55.8049 112.315 55.9574 111.923 56.1145C111.847 56.4195 111.771 56.7245 111.692 57.0387C111.525 57.1254 111.358 57.212 111.186 57.3013C109.931 57.9665 108.816 58.6174 107.769 59.5802C107.617 59.5802 107.465 59.5802 107.308 59.5802C107.232 59.809 107.155 60.0377 107.077 60.2734C106.17 60.8788 105.237 61.2403 104.215 61.6001C103.584 61.9058 103.137 62.3051 102.612 62.7627C102.201 63.0684 101.824 63.2421 101.345 63.4215C101.03 63.5296 100.715 63.6354 100.399 63.7392C99.3586 64.1025 98.3997 64.4418 97.5 65.0966C97.3096 65.2586 97.1192 65.4206 96.9231 65.5876C96.9231 66.0451 96.9231 66.5025 96.9231 66.9739C97.1325 67.074 97.3419 67.174 97.5577 67.2771C98.3077 67.667 98.3077 67.667 98.7377 68.0091C99.226 68.3854 99.226 68.3854 99.8356 68.6057C100.05 68.6772 100.265 68.7486 100.486 68.8223C101.376 69.12 102.131 69.4707 102.923 69.9775C102.923 70.13 102.923 70.2825 102.923 70.4397C103.588 70.7785 104.26 71.0913 104.942 71.3927C105.127 71.4743 105.311 71.556 105.501 71.64C105.64 71.7014 105.78 71.7627 105.923 71.826C106.304 72.2834 106.685 72.7409 107.077 73.2123C107.282 73.2742 107.486 73.3362 107.697 73.4C108.421 73.6597 108.983 73.9344 109.615 74.3675C109.932 74.6669 110.242 74.9729 110.538 75.2917C110.538 75.4442 110.538 75.5967 110.538 75.7538C110.843 75.8301 111.148 75.9063 111.462 75.9849C111.538 76.2136 111.614 76.4424 111.692 76.678C112.073 76.7543 112.454 76.8305 112.846 76.9091C112.991 77.0458 113.136 77.1825 113.286 77.3233C114.327 78.2853 115.327 79.1418 116.551 79.8541C117.238 80.2975 117.82 80.8461 118.417 81.4028C118.848 81.7624 119.259 81.994 119.769 82.2233C119.922 82.6045 120.074 82.9857 120.231 83.3785C120.535 83.531 120.84 83.6835 121.154 83.8406C121.244 84.0122 121.335 84.1837 121.428 84.3605C121.566 84.5702 121.704 84.7798 121.846 84.9959C122.037 85.1484 122.227 85.3009 122.423 85.458C122.613 85.6105 122.804 85.763 123 85.9201C123.418 86.5555 123.418 86.5555 123.692 87.0753C123.692 87.2278 123.692 87.3803 123.692 87.5374C123.845 87.5374 123.997 87.5374 124.154 87.5374C124.235 87.6548 124.316 87.7721 124.4 87.893C125.215 89.0308 126.062 89.8976 127.154 90.7721C127.382 91.3821 127.611 91.9921 127.846 92.6206C128.013 92.754 128.179 92.8874 128.351 93.0249C128.952 93.5063 129.553 93.9876 130.154 94.469C130.23 94.9265 130.306 95.3839 130.385 95.8553C130.689 96.1603 130.994 96.4653 131.308 96.7795C131.384 97.3132 131.46 97.8469 131.538 98.3968C131.843 98.5493 132.148 98.7018 132.462 98.8589C132.614 99.3927 132.766 99.9264 132.923 100.476C133.152 100.705 133.38 100.934 133.615 101.169C134.187 102.771 134.187 102.771 134.769 104.404C134.845 104.48 134.922 104.557 135 104.635C135 105.093 135 105.55 135 106.022C134.606 106.533 134.211 107.043 133.812 107.55C133.481 107.976 133.163 108.412 132.851 108.852C132.231 109.487 132.231 109.487 131.647 109.828C131.079 110.114 130.502 110.38 129.923 110.643C129.009 110.643 128.095 110.643 127.154 110.643C126.392 110.261 125.631 109.88 124.846 109.487C124.77 109.03 124.694 108.572 124.615 108.101C124.311 107.796 124.006 107.491 123.692 107.177C123.54 106.719 123.388 106.262 123.231 105.79C123.002 105.638 122.774 105.485 122.538 105.328C122.386 104.642 122.234 103.956 122.077 103.249C121.87 103.07 121.87 103.07 121.659 102.888C121.492 102.702 121.325 102.516 121.154 102.325C120.991 101.932 120.829 101.539 120.675 101.142C120.343 100.465 119.858 99.9438 119.355 99.3869C119.264 99.2889 119.172 99.1909 119.077 99.09C119.001 98.6325 118.925 98.175 118.846 97.7037C118.694 97.7037 118.542 97.7037 118.385 97.7037C118.276 97.5783 118.167 97.4529 118.056 97.3237C117.912 97.1584 117.768 96.9931 117.62 96.8228C117.478 96.6593 117.336 96.4958 117.19 96.3273C116.786 95.8629 116.786 95.8629 116.39 95.4879C116.286 95.3804 116.183 95.2729 116.077 95.1621C115.846 94.7 115.615 94.2379 115.385 93.7758C115.016 93.2234 114.626 92.6929 114.231 92.1585C114.231 92.006 114.231 91.8535 114.231 91.6964C114.031 91.6106 114.031 91.6106 113.827 91.5231C113.308 91.2343 113.308 91.2343 112.788 90.7433C112.655 90.6003 112.522 90.4574 112.385 90.3101C112.308 90.0051 112.232 89.7001 112.154 89.3858C111.989 89.3045 111.825 89.2232 111.655 89.1395C109.848 88.2067 109.848 88.2067 109.144 87.5799C108.885 87.3055 108.629 87.0294 108.374 86.7513C107.988 86.3703 107.625 86.1335 107.149 85.8768C106.435 85.4857 106.028 85.1006 105.462 84.5338C104.854 84.2439 104.854 84.2439 104.308 84.0717C104.08 83.8177 103.855 83.5623 103.63 83.3063C103.441 83.0932 103.441 83.0932 103.248 82.8758C103.141 82.7367 103.034 82.5976 102.923 82.4543C102.847 82.2256 102.771 81.9968 102.692 81.7612C102.063 81.4939 101.47 81.2829 100.803 81.1258C100.034 80.9168 99.4188 80.5596 98.7404 80.1438C98.5542 80.0247 98.3679 79.9055 98.1761 79.7828C97.6167 79.4514 97.0658 79.2252 96.4615 78.9885C96.0881 78.7924 95.7178 78.5903 95.351 78.382C95.1686 78.279 94.9863 78.1759 94.7984 78.0697C94.6618 77.9917 94.5253 77.9137 94.3846 77.8333C94.3846 77.6045 94.3846 77.3758 94.3846 77.1401C94.1981 77.0981 94.0116 77.0561 93.8194 77.0129C93.5728 76.9548 93.3262 76.8967 93.0721 76.8369C92.8285 76.7806 92.5848 76.7243 92.3338 76.6663C91.6179 76.4478 91.0853 76.1618 90.4615 75.7538C90.3092 75.6776 90.1569 75.6013 90 75.5228C90 75.3703 90 75.2178 90 75.0607C89.01 74.9082 88.02 74.7557 87 74.5986C86.9238 74.4461 86.8477 74.2936 86.7692 74.1365C86.5301 74.1085 86.2909 74.0805 86.0445 74.0516C85.7284 74.0126 85.4122 73.9735 85.0962 73.9343C84.9388 73.9161 84.7814 73.898 84.6193 73.8792C84.1803 73.8238 83.7438 73.7496 83.3077 73.6744C83.1512 73.5948 82.9948 73.5153 82.8335 73.4334C82.6113 73.3239 82.6113 73.3239 82.3846 73.2123C81.5769 73.1353 80.7741 73.1104 79.9633 73.0832C79.5626 73.0327 79.5626 73.0327 79.1538 72.9812C78.688 72.759 78.2259 72.5286 77.7692 72.2881C77.2167 72.1749 77.2167 72.1749 76.6731 72.1581C75.8979 72.1145 75.1798 71.9964 74.4245 71.8253C73.1421 71.5661 71.9077 71.528 70.6028 71.5335C70.3667 71.5331 70.1307 71.5326 69.8875 71.5322C69.3914 71.5319 68.8954 71.5327 68.3993 71.5347C67.6479 71.5371 66.8966 71.5347 66.1451 71.5317C63.8141 71.5302 61.5975 71.5821 59.3077 72.057C58.5688 72.1543 57.8281 72.229 57.0865 72.3025C56.4406 72.3665 55.7981 72.4383 55.1538 72.5191C55.0015 72.5954 54.8492 72.6716 54.6923 72.7502C54.3754 72.7848 54.057 72.8076 53.7386 72.8233C53.4597 72.8378 53.4597 72.8378 53.1752 72.8526C52.9809 72.8617 52.7867 72.8708 52.5865 72.8801C52.3905 72.8901 52.1945 72.9001 51.9925 72.9104C51.5079 72.9349 51.0232 72.9582 50.5385 72.9812C50.3692 73.0884 50.1999 73.1957 50.0255 73.3061C49.4615 73.6302 48.9789 73.8355 48.3606 74.0209C47.738 74.2181 47.2028 74.42 46.6154 74.7141C46.0418 75.0013 45.5358 75.1913 44.9279 75.3784C44.1532 75.6243 43.4937 75.9336 42.7933 76.3459C42.1073 76.7473 41.4886 77.0218 40.7163 77.2123C40.4546 77.2648 40.1928 77.3172 39.9231 77.3712C39.7708 77.5237 39.6185 77.6762 39.4615 77.8333C38.6619 78.062 38.6619 78.062 37.8462 78.2954C37.6177 78.5241 37.3892 78.7529 37.1538 78.9885C36.6969 78.9885 36.24 78.9885 35.7692 78.9885C35.7692 79.2173 35.7692 79.446 35.7692 79.6817C35.3176 79.8366 34.8656 79.9904 34.4135 80.1438C34.1618 80.2296 33.9101 80.3154 33.6508 80.4037C33.4361 80.4704 33.2213 80.5372 33 80.6059C32.8477 80.6059 32.6954 80.6059 32.5385 80.6059C32.5385 80.7584 32.5385 80.9109 32.5385 81.068C32.3862 81.068 32.2338 81.068 32.0769 81.068C32.0769 81.2205 32.0769 81.373 32.0769 81.5301C31.62 81.6826 31.1631 81.8351 30.6923 81.9922C30.6923 82.1447 30.6923 82.2972 30.6923 82.4543C30.3877 82.683 30.0831 82.9118 29.7692 83.1475C29.5408 83.1475 29.3123 83.1475 29.0769 83.1475C29.0769 83.3 29.0769 83.4525 29.0769 83.6096C28.7723 83.6096 28.4677 83.6096 28.1538 83.6096C28.1538 83.7621 28.1538 83.9146 28.1538 84.0717C27.9254 84.0717 27.6969 84.0717 27.4615 84.0717C27.4615 84.4529 27.4615 84.8341 27.4615 85.2269C27.1413 85.5992 26.8187 85.9695 26.4952 86.3389C26.2261 86.6485 26.2261 86.6485 25.9516 86.9643C25.407 87.5148 24.9035 87.8577 24.2308 88.2306C24.0594 88.4021 24.0594 88.4021 23.8846 88.5772C23.4372 89.0251 22.9326 89.3055 22.3846 89.6169C22.08 90.0744 21.7754 90.5319 21.4615 91.0032C21.1569 91.1557 20.8523 91.3082 20.5385 91.4653C20.2338 91.999 19.9292 92.5328 19.6154 93.0827C19.3869 93.1589 19.1585 93.2352 18.9231 93.3137C18.8707 93.4328 18.8184 93.552 18.7644 93.6747C18.4181 94.3187 18.0043 94.8822 17.5664 95.4663C17.2649 95.8827 17.2649 95.8827 17.0769 96.5484C16.9246 96.5484 16.7723 96.5484 16.6154 96.5484C16.5297 96.7343 16.5297 96.7343 16.4423 96.9239C16.085 97.6035 15.6623 98.2244 15.2308 98.8589C15.0785 99.0877 14.9262 99.3164 14.7692 99.5521C14.6169 99.5521 14.4646 99.5521 14.3077 99.5521C14.2458 99.7618 14.1839 99.9715 14.1202 100.187C13.8462 100.938 13.8462 100.938 13.4712 101.487C13.3141 101.673 13.3141 101.673 13.1538 101.863C13.0015 101.863 12.8492 101.863 12.6923 101.863C12.6649 101.998 12.6376 102.133 12.6094 102.272C12.4615 102.787 12.4615 102.787 12.2272 103.2C12.1332 103.34 12.0392 103.48 11.9423 103.624C10.9399 105.182 10.167 106.853 9.46154 108.563C9.15692 108.716 8.8523 108.868 8.53846 109.025C8.53846 109.178 8.53846 109.33 8.53846 109.487C7.91504 109.765 7.34752 110.001 6.69231 110.18C5.91872 110.236 5.1586 110.223 4.38462 110.18C3.77538 109.875 3.16615 109.57 2.53846 109.256C2.23384 108.875 1.92923 108.494 1.61538 108.101C1.46308 108.025 1.31077 107.948 1.15385 107.87C1.00154 107.489 0.849229 107.107 0.692308 106.715C0.463848 106.562 0.235389 106.41 0 106.253C0 105.414 0 104.575 0 103.711C0.228459 103.711 0.456919 103.711 0.692308 103.711C0.751211 103.522 0.751211 103.522 0.811298 103.329C1.22627 102.036 1.67861 100.758 2.30769 99.5521C2.45999 99.3996 2.61231 99.2471 2.76923 99.09C2.84777 98.8041 2.84777 98.8041 2.92788 98.5124C3.2959 97.5298 3.77745 96.7083 4.38462 95.8553C4.62622 95.573 4.87137 95.2937 5.12019 95.0177C5.47591 94.6291 5.47591 94.6291 5.76923 94.2379C5.84063 94.0139 5.91202 93.79 5.98558 93.5592C6.0665 93.3257 6.1474 93.0922 6.23077 92.8516C6.48074 92.545 6.74166 92.2472 7.00962 91.9563C7.43424 91.4951 7.8046 91.0757 8.11659 90.5312C8.26192 90.2229 8.40588 89.9139 8.54838 89.6043C8.9187 88.8506 9.39732 88.1898 9.92308 87.5374C10.2974 87.1424 10.6833 86.758 11.0769 86.3822C11.3852 86.0747 11.6929 85.7666 12 85.458C12.2378 85.2203 12.2378 85.2203 12.4805 84.9778C12.8369 84.6202 13.1906 84.2597 13.5433 83.8984C14.0794 83.3761 14.6388 82.9116 15.2308 82.4543C15.4592 81.9206 15.6877 81.3869 15.9231 80.837C16.3038 80.6082 16.6846 80.3795 17.0769 80.1438C17.1531 79.9913 17.2292 79.8388 17.3077 79.6817C17.46 79.6817 17.6123 79.6817 17.7692 79.6817C17.7692 79.5292 17.7692 79.3767 17.7692 79.2196C18.209 78.8894 18.6488 78.5592 19.0889 78.2295C19.4218 77.979 19.7537 77.727 20.0841 77.4732C20.8224 76.9085 21.559 76.3772 22.3558 75.8982C23.5243 75.1874 24.5629 74.3135 25.6154 73.4433C25.6915 73.2908 25.7677 73.1383 25.8462 72.9812C26.1719 72.8302 26.1719 72.8302 26.5042 72.6761C28.1219 71.9288 28.1219 71.9288 29.5998 70.9478C30.0046 70.5462 30.0046 70.5462 30.4615 69.9775C30.9185 69.8251 31.3754 69.6726 31.8462 69.5154C32.0746 69.2867 32.3031 69.058 32.5385 68.8223C32.9954 68.746 33.4523 68.6698 33.9231 68.5912C34.2277 68.2863 34.5323 67.9813 34.8462 67.667C35.3031 67.667 35.76 67.667 36.2308 67.667C36.3069 67.4383 36.3831 67.2096 36.4615 66.9739C36.9185 66.8214 37.3754 66.6689 37.8462 66.5118C37.9223 66.1305 37.9985 65.7493 38.0769 65.3565C37.5438 65.3565 37.0108 65.3565 36.4615 65.3565C36.3092 65.0515 36.1569 64.7466 36 64.4323C35.693 64.3465 35.693 64.3465 35.3798 64.259C34.6154 63.9702 34.6154 63.9702 34.024 63.5226C33.8384 63.3653 33.6528 63.208 33.4615 63.046C32.513 62.4043 31.5344 62.042 30.4615 61.6597C30.3854 61.431 30.3092 61.2022 30.2308 60.9666C29.4692 60.8141 28.7077 60.6616 27.9231 60.5045C27.5423 60.1232 27.1615 59.742 26.7692 59.3492C26.5741 59.3015 26.3789 59.2539 26.1779 59.2048C25.3846 58.8871 25.3846 58.8871 24.933 58.5477C24.5376 58.2059 24.1497 57.8591 23.7692 57.5008C23.7692 57.3483 23.7692 57.1958 23.7692 57.0387C23.3123 56.8862 22.8554 56.7337 22.3846 56.5766C22.1782 56.3645 21.9717 56.1525 21.759 55.934C20.3486 54.4969 18.9513 53.1345 17.3483 51.9104C16.6788 51.3545 16.1501 50.7155 15.5959 50.0476C15.0867 49.4862 14.482 49.1272 13.8462 48.7208C13.3434 48.292 12.8807 47.8462 12.4615 47.3345C12.3901 47.1487 12.3188 46.9628 12.2452 46.7713C12.1643 46.576 12.0834 46.3806 12 46.1793C11.6059 45.7521 11.1901 45.3547 10.7695 44.9536C10.3092 44.4852 10.0202 43.9736 9.69231 43.4067C9.39959 43.1207 9.39959 43.1207 9.10096 42.829C8.82252 42.5431 8.82252 42.5431 8.53846 42.2514C8.23558 41.6016 8.23558 41.6016 8.07692 41.0962C7.95168 41.0095 7.82645 40.9228 7.69742 40.8335C7.19419 40.4731 6.70614 40.1065 6.23077 39.7099C5.75137 39.0644 5.50071 38.4632 5.19231 37.717C5.07808 37.4597 4.96385 37.2024 4.84615 36.9372C4.73698 36.8309 4.62781 36.7246 4.51532 36.615C4.15385 36.2441 4.15385 36.2441 3.85006 35.6872C3.75517 35.485 3.66026 35.2827 3.5625 35.0744C3.3819 34.6908 3.19533 34.3099 3 33.9336C2.8477 33.7811 2.69538 33.6286 2.53846 33.4715C2.4623 32.7852 2.38616 32.099 2.30769 31.392C2.15539 31.392 2.00308 31.392 1.84615 31.392C1.73668 31.1299 1.62722 30.8678 1.51442 30.5978C1.39543 30.3261 1.27644 30.0545 1.15385 29.7747C1.07769 29.6984 1.00154 29.6222 0.923077 29.5436C0.923077 28.3999 0.923077 27.2562 0.923077 26.0778C1.22769 25.5441 1.53231 25.0104 1.84615 24.4605C2.22693 24.308 2.60769 24.1555 3 23.9984C3 23.8459 3 23.6934 3 23.5363C3.85902 23.299 4.66644 23.0925 5.55288 23.002C6.23077 23.0742 6.23077 23.0742 7.05288 23.3485C7.84615 23.7673 7.84615 23.7673 8.48077 24.3594C8.73779 24.6382 8.73779 24.6382 9 24.9226C9.22846 25.0751 9.45693 25.2276 9.69231 25.3847C9.8421 25.7502 9.99096 26.1161 10.1394 26.4822C10.2224 26.6859 10.3054 26.8896 10.3909 27.0995C10.5816 27.6055 10.7293 28.0924 10.8462 28.6194C11.0746 28.6956 11.3031 28.7719 11.5385 28.8504C11.7669 29.2317 11.9954 29.6129 12.2308 30.0057C12.2308 30.4632 12.2308 30.9207 12.2308 31.392C12.5354 31.4683 12.84 31.5445 13.1538 31.6231C13.1538 31.7756 13.1538 31.928 13.1538 32.0852C13.3062 32.0852 13.4585 32.0852 13.6154 32.0852C13.8438 32.5426 14.0723 33.0001 14.3077 33.4715C14.3077 33.624 14.3077 33.7765 14.3077 33.9336C14.46 33.9336 14.6123 33.9336 14.7692 33.9336C14.9358 34.1766 15.1024 34.4196 15.274 34.67C15.6637 35.2188 16.0349 35.6629 16.5144 36.143C17.127 36.7563 17.5409 37.3605 18 38.0925C18 38.245 18 38.3975 18 38.5546C18.3808 38.6308 18.7615 38.7071 19.1538 38.7856C19.2484 38.9137 19.343 39.0418 19.4405 39.1737C19.5648 39.3411 19.6892 39.5085 19.8173 39.681C19.9405 39.8472 20.0636 40.0134 20.1905 40.1846C20.5382 40.6531 20.5382 40.6531 21 41.0962C21.4569 41.2486 21.9138 41.4011 22.3846 41.5583C22.8332 41.9949 23.28 42.4331 23.726 42.8724C23.8522 42.9949 23.9785 43.1175 24.1086 43.2438C24.8221 43.9495 25.3366 44.6161 25.8462 45.4861C26.2103 45.8816 26.5861 46.2664 26.9712 46.6414C27.263 46.9273 27.263 46.9273 27.5607 47.219C27.8543 47.5049 27.8543 47.5049 28.1538 47.7966C28.3576 48.0048 28.5614 48.213 28.7713 48.4275C29.2722 48.9617 29.2722 48.9617 29.8413 49.2551C29.9699 49.3076 30.0984 49.36 30.2308 49.414C30.2308 49.6427 30.2308 49.8715 30.2308 50.1072C30.9162 50.3359 31.6015 50.5646 32.3077 50.8003C32.3077 50.9528 32.3077 51.1053 32.3077 51.2624C32.6123 51.3387 32.9169 51.4149 33.2308 51.4935C33.2308 51.646 33.2308 51.7984 33.2308 51.9556C33.5354 52.1081 33.84 52.2605 34.1538 52.4177C34.23 52.6464 34.3062 52.8751 34.3846 53.1108C35.4715 53.5189 36.4687 53.6852 37.6154 53.804C37.6154 53.9565 37.6154 54.109 37.6154 54.2661C37.8291 54.3 37.8291 54.3 38.0472 54.3347C39.3082 54.5576 40.4173 54.8884 41.5817 55.4213C42 55.6524 42 55.6524 42.4615 56.1145C43.7799 56.6214 45.0054 56.903 46.4144 57.0125C46.5569 57.0211 46.6993 57.0298 46.8462 57.0387C46.8462 57.1912 46.8462 57.3437 46.8462 57.5008C47.2305 57.6554 47.6152 57.8093 48 57.9629C48.2249 58.0531 48.4498 58.1434 48.6815 58.2364C50.8146 59.0486 52.9032 59.4757 55.1538 59.8113C55.4585 60.04 55.7631 60.2688 56.0769 60.5045C59.8196 61.2232 63.5867 61.2588 67.3846 61.2698C67.6133 61.2707 67.842 61.2716 68.0776 61.2726C71.4743 61.2789 74.6916 61.1137 78 60.2734C78.3808 59.9684 78.7615 59.6634 79.1538 59.3492C79.399 59.3406 79.6441 59.3319 79.8966 59.323C81.6761 59.271 81.6761 59.271 83.4213 58.9647C83.847 58.7896 84.2697 58.6074 84.6923 58.425C85.4568 58.2431 86.2259 58.0979 87 57.9629C87.2285 57.7341 87.4569 57.5054 87.6923 57.2697C88.3777 57.2697 89.0631 57.2697 89.7692 57.2697C89.9215 56.9647 90.0738 56.6598 90.2308 56.3455C90.5116 56.2836 90.7924 56.2216 91.0817 56.1578C91.6883 56.0062 92.1288 55.855 92.6827 55.5513C92.8636 55.4322 93.0444 55.313 93.2308 55.1903C93.9621 54.7998 94.6717 54.4767 95.4519 54.1939C97.3387 53.505 99.1209 52.5158 100.846 51.4935C101.051 51.3839 101.255 51.2742 101.466 51.1613C102.03 50.8175 102.03 50.8175 102.447 50.2516C102.604 50.0514 102.761 49.8513 102.923 49.6451C103.587 49.0385 103.587 49.0385 104.308 48.4898C104.643 48.3397 104.643 48.3397 104.986 48.1865C105.219 48.0579 105.452 47.9292 105.692 47.7966C105.937 47.53 106.171 47.2544 106.399 46.9735C107.321 45.8573 108.419 45.0481 109.573 44.191C110.546 43.4582 111.506 42.7088 112.356 41.8326C112.518 41.6658 112.679 41.4991 112.846 41.3272C112.922 41.0985 112.998 40.8697 113.077 40.6341C113.42 40.3624 113.42 40.3624 113.769 40.0853C114.669 39.3174 115.359 38.4399 116.079 37.5058C116.503 36.9809 116.944 36.521 117.433 36.0564C117.68 35.8175 117.921 35.5729 118.154 35.3199C118.319 34.9397 118.473 34.5541 118.615 34.1646C118.952 33.687 119.306 33.2282 119.668 32.7702C119.992 32.3271 120.231 31.8892 120.462 31.392C120.614 31.3158 120.766 31.2395 120.923 31.161C121.516 30.1712 121.982 29.2727 122.308 28.1573C122.436 28.0429 122.565 27.9286 122.697 27.8107C123.384 27.0672 123.889 26.2654 124.385 25.3847C124.53 25.0677 124.675 24.75 124.817 24.4316C125.035 23.9749 125.035 23.9749 125.308 23.5363C125.818 23.0168 126.344 22.5959 126.923 22.15Z" fill="rgb(232,192,55)" fill-rule="nonzero" />
		<path id="差集" d="M65.8511 0L72.0819 0L73.2357 0.924204C73.692 1.16554 74.1525 1.39947 74.6203 1.61736L74.6203 2.07946L76.0049 2.07946L76.2357 2.77261L78.0819 3.00366L80.6203 5.31418L81.0819 6.46943L82.928 8.08679L82.928 9.01099L84.0819 9.24204L84.5434 9.70415L84.5434 10.3973L85.0049 10.3973L85.0049 11.3215L85.6973 11.5526L85.8829 11.9912C86.0052 12.2744 86.0052 12.2744 86.1299 12.5634L86.3733 13.132L86.6203 13.632L87.0819 14.0941L87.0819 15.4804L87.5434 15.4804C88.0121 17.7204 88.3462 19.9376 88.5277 22.2204C88.6182 23.2822 88.806 24.1728 89.1588 25.1846L89.1588 25.1847C89.2039 25.7748 89.2039 25.7749 89.1876 26.3109L89.175 26.8579L89.1588 27.264L88.928 27.4951L88.9142 27.8826C88.7262 32.8777 88.7262 32.8777 88.2357 34.4266C87.8607 35.2642 87.8607 35.2642 87.5434 35.8129L87.0819 36.044L87.0215 36.4844C86.8819 37.3358 86.7367 38.1154 86.3571 38.8951C85.9789 39.5075 85.6106 40.0593 85.0996 40.5684L84.7742 40.896L84.5146 41.4159C84.0819 42.0513 84.0819 42.0513 83.6568 42.3956L83.1435 42.7724C81.9838 43.6585 80.9828 44.6556 79.9713 45.7048C79.6344 46.054 79.2964 46.4021 78.9572 46.749L78.5138 47.2092C78.0808 47.5975 77.6825 47.8146 77.1588 48.0586C76.9262 48.2879 76.6954 48.5189 76.4665 48.7518C74.4935 49.9516 72.2129 50.6725 70.0049 51.2933L70.0049 51.7555C68.5246 51.7794 67.0444 51.7953 65.5639 51.8062C65.0629 51.8108 64.562 51.817 64.061 51.8252C61.3263 51.8683 58.6802 51.7983 55.9794 51.3331L55.3104 51.218C54.4196 51.0479 53.7048 50.8753 52.896 50.4533L52.4665 50.1381L52.2357 49.2139L52.4665 48.7518L52.8507 48.6992C53.4297 48.6183 54.0082 48.5334 54.5867 48.4485L55.1911 48.3659C55.7518 48.2821 56.2999 48.1917 56.8511 48.0586C57.5414 47.7265 57.5414 47.7265 58.0049 47.3655L58.928 47.3655L59.3896 46.4413L60.7742 46.2102L60.9328 45.8203C61.3186 45.1399 61.8248 44.6664 62.3896 44.1308L62.8511 44.1308L63.3126 42.5134L63.7742 42.2824C64.0975 39.022 63.9769 35.84 63.7742 32.5782L63.0819 32.3472L62.9428 31.9527C62.7127 31.3654 62.4653 30.8194 62.1588 30.2677C61.615 29.6315 61.0034 29.0948 60.3703 28.5493C58.7777 27.118 57.3858 25.708 56.2381 23.884C55.928 23.3362 55.928 23.3362 55.7694 22.8019L55.6973 22.412L55.0049 22.412L54.9202 21.939L54.803 21.3145L54.6894 20.6971C54.5492 20.1251 54.3508 19.6973 54.0819 19.1772C53.6461 17.9564 53.393 16.7216 53.3129 15.4281C53.2496 13.5998 53.3904 11.9104 53.8511 10.1374C53.997 9.60486 54.1516 9.07713 54.3126 8.54889L55.0049 8.08679L55.2934 7.59581C56.0403 6.36725 56.841 5.249 57.7742 4.15892L58.4665 4.15892L58.928 3.23472L60.7742 2.07946L61.2357 2.07946L61.2357 1.61736C61.7272 1.34409 62.1543 1.15626 62.7051 1.03341C63.0896 0.970442 63.4742 0.907863 63.8589 0.845683C64.6234 0.677071 64.6234 0.677071 65.8511 0ZM71.3175 8.34635L64.1636 8.34635L63.9329 9.03951L62.5483 9.27056L62.3175 9.73266L61.1636 10.6569L61.0194 11.2345C60.6658 12.1356 60.196 12.779 59.6041 13.536L59.3175 13.8916C59.3163 13.9312 59.3151 13.9708 59.3139 14.0104C59.2817 15.0765 59.2495 16.1434 59.3878 17.203C59.5627 17.9818 59.8347 18.661 60.2261 19.3502L60.7021 20.13C61.0194 20.852 61.0194 20.852 61.3944 21.5163L62.0236 22.0587C63.7542 23.4597 65.4481 24.91 66.7273 26.7465L66.9329 27.0615L67.6252 27.2925L67.6252 27.7546L68.3175 28.6789L69.2406 29.141C69.3708 29.9174 69.5124 30.6872 69.7021 31.4515C69.9485 31.9054 70.1788 32.3684 70.3944 32.8378C70.8369 35.5547 70.7452 38.4335 70.3944 41.1556L69.7021 41.8488L69.7021 43.004L69.9329 43.2351L72.0098 43.004C72.3172 42.7725 72.6249 42.5416 72.9329 42.3109C73.7471 41.7138 74.5588 41.1387 75.2838 40.4336C75.7195 39.9656 75.7195 39.9656 76.3367 39.4805L76.8559 39.0762L77.3175 38.1519L78.4713 37.2277C78.7886 36.4412 79.0706 35.7449 79.5531 35.0472L79.8559 34.6862L80.0867 32.6067C80.3318 32.2306 80.5591 31.8429 80.779 31.4515C81.2631 30.1531 81.6414 28.8359 81.7769 27.4541C81.7935 26.4519 81.7516 25.5067 81.5002 24.5344C81.1024 22.8759 81.1024 22.8759 80.8638 21.1841L80.779 20.5921L80.3175 20.13L80.0867 18.0505L79.3944 17.3573L78.9329 16.4331L78.4857 15.9133C78.062 15.3476 77.8479 14.9325 77.6059 14.2815L77.3175 13.4295L76.9037 13.0495L76.3511 12.5486C75.7995 12.0457 75.2814 11.6061 74.6447 11.2155C74.0945 10.9086 74.0945 10.9086 73.6612 10.5576L73.279 10.2236C73.0058 9.98751 72.737 9.7462 72.4713 9.50161L71.3175 8.34635Z" fill="rgb(232,192,55)" fill-rule="evenodd" />
	</g>
</svg>
