<svg viewBox="0 0 125 139" xmlns="http://www.w3.org/2000/svg" xmlns:xlink="http://www.w3.org/1999/xlink" width="125.000000" height="139.000000" fill="none" customFrame="#000000">
	<path id="矢量 189" d="M2.95064 0C3.74732 0 4.54399 0 5.36481 0C5.45333 0.088981 5.54185 0.177962 5.63305 0.269639C5.8734 1.9005 5.93152 3.47551 5.90129 5.12315C6.07833 5.12315 6.25536 5.12315 6.43777 5.12315C6.78423 5.73773 6.98805 6.26301 7.14399 6.95585C7.18756 7.21863 7.23113 7.4814 7.27602 7.75213C7.32097 8.01769 7.36592 8.28324 7.41223 8.55684C7.44474 8.75844 7.47724 8.96003 7.51073 9.16774C7.68777 9.3457 7.86481 9.52366 8.04721 9.70702C8.07487 10.0574 8.10253 10.4077 8.13103 10.7687C8.27476 12.1072 8.65056 13.3047 9.12017 14.5605C9.38573 14.6495 9.65129 14.7385 9.92489 14.8302C10.1904 15.3641 10.456 15.8979 10.7296 16.448C10.7296 16.626 10.7296 16.8039 10.7296 16.9873C10.963 17.09 10.963 17.09 11.2011 17.1948C11.869 17.5632 12.3099 17.9742 12.842 18.5209C13.0284 18.712 13.2148 18.9032 13.4068 19.1002C13.8928 19.6237 14.3509 20.1591 14.8035 20.7117C15.047 21.0051 15.2975 21.2928 15.5579 21.5712C15.7737 21.6991 15.9895 21.827 16.2118 21.9588C16.8991 22.3801 16.8991 22.3801 17.3151 22.8498C17.6074 23.2078 17.8953 23.5696 18.1775 23.9358C18.731 24.4912 19.2248 24.8384 19.8823 25.2534C21.3905 26.235 22.5804 27.4724 23.8231 28.7672C24.2657 29.2238 24.7089 29.6799 25.1528 30.1354C25.3453 30.3355 25.5378 30.5356 25.7362 30.7417C26.2512 31.2428 26.7773 31.6699 27.3605 32.0871C27.4824 32.3217 27.4824 32.3217 27.6068 32.5611C27.7191 32.7717 27.8315 32.9823 27.9473 33.1994C28.0562 33.4058 28.1651 33.6123 28.2774 33.825C28.7028 34.5549 28.7028 34.5549 29.3576 35.2838C30.0872 36.141 30.5581 37.0527 31.0321 38.0697C31.4684 38.9863 31.8945 39.8673 32.4571 40.7155C32.6624 42.178 32.7683 43.6022 32.7589 45.0803C32.7579 45.2923 32.757 45.5042 32.7561 45.7225C32.7388 47.8571 32.6859 49.991 32.6247 52.1247C32.6165 52.4638 32.6082 52.8029 32.5997 53.1523C32.5893 53.474 32.5789 53.7956 32.5681 54.1269C32.5555 54.5567 32.5555 54.5567 32.5426 54.9952C32.451 55.8735 32.2206 56.6055 31.9206 57.4332C31.8114 57.9144 31.7101 58.3975 31.6188 58.8825C31.5739 59.1182 31.5289 59.3538 31.4826 59.5966C31.4501 59.7725 31.4176 59.9484 31.3841 60.1296C31.2071 60.1296 31.03 60.1296 30.8476 60.1296C30.8946 62.4118 30.8946 62.4118 31.3349 64.6387C31.8506 65.824 32.4928 66.9104 33.2618 67.9491C33.4444 68.1271 33.6269 68.3051 33.815 68.4884C33.9866 68.6664 34.1581 68.8443 34.3348 69.0277C34.462 69.2891 34.5893 69.5505 34.7204 69.8198C34.9278 70.2285 34.9278 70.2285 35.1395 70.6455C35.4631 70.9625 35.4631 70.9625 35.7933 71.2859C36.4807 71.9937 36.4807 71.9937 36.7866 72.5098C37.1828 73.3032 37.5336 74.0992 37.8554 74.926C37.9329 75.1151 38.0103 75.3042 38.0901 75.499C38.2672 75.677 38.4442 75.855 38.6266 76.0383C38.693 76.3386 38.7594 76.6389 38.8278 76.9483C39.0455 77.8443 39.3471 78.6495 39.7163 79.4931C40.0321 80.2518 40.2385 80.9078 40.3649 81.7229C40.4277 82.4349 40.4773 83.1436 40.5043 83.8579C40.6758 83.9413 40.8473 84.0247 41.024 84.1106C41.2066 84.2052 41.3891 84.2997 41.5773 84.3971C41.6658 84.4861 41.7543 84.5751 41.8455 84.6668C42.5536 84.6668 43.2618 84.6668 43.9914 84.6668C44.1795 84.5444 44.3676 84.4221 44.5614 84.296C45.3406 83.8533 46.0874 83.5783 46.9421 83.3186C47.1191 83.1406 47.2961 82.9626 47.4785 82.7793C47.8278 82.7272 48.177 82.675 48.5368 82.6213C49 82.5505 49.4631 82.4795 49.9262 82.4085C50.1558 82.3745 50.3854 82.3404 50.622 82.3053C52.4655 82.0202 54.1109 81.4723 55.839 80.7802C56.0012 80.728 56.1634 80.6759 56.3305 80.6222C56.596 80.6222 56.8616 80.6222 57.1352 80.6222C57.1352 74.3935 57.1352 68.1648 57.1352 61.7474C58.4764 59.86 58.4764 59.8599 59.0181 59.3807C59.4634 59.0911 59.9088 58.8014 60.3541 58.5117C61.6819 58.5117 63.0097 58.5117 64.3777 58.5117C64.7318 58.6897 65.0858 58.8677 65.4506 59.051C65.9075 59.5166 65.9075 59.5166 66.3224 60.0285C66.4621 60.1988 66.6018 60.3691 66.7457 60.5446C66.8495 60.6746 66.9532 60.8046 67.0601 60.9385C67.0617 61.1426 67.0632 61.3466 67.0648 61.5568C67.0804 63.4886 67.0998 65.4202 67.1233 67.3519C67.1353 68.3448 67.1458 69.3376 67.153 70.3305C67.16 71.2904 67.1709 72.2502 67.1843 73.21C67.1909 73.7508 67.1936 74.2915 67.1963 74.8323C67.2216 76.65 67.2216 76.6501 67.5164 78.437C67.6999 78.9935 67.9127 79.5401 68.133 80.0829C69.5936 80.4833 69.5936 80.4833 71.0837 80.8918C71.1722 81.0698 71.2607 81.2477 71.3519 81.4311C71.7746 81.5093 71.7746 81.5093 72.2059 81.5891C73.1767 81.7694 74.1467 81.9538 75.1165 82.1398C75.5439 82.221 75.972 82.299 76.4003 82.3759C77.1933 82.5301 77.8899 82.6977 78.6196 83.0521C79.0667 83.3062 79.5026 83.5801 79.9356 83.8579C80.1127 84.1248 80.2897 84.3917 80.4721 84.6668C81.3573 84.8447 82.2425 85.0227 83.1545 85.2061C83.1545 84.5832 83.1545 83.9603 83.1545 83.3186C83.5528 82.7847 83.5528 82.7847 83.9592 82.24C84.0477 81.6172 84.1363 80.9943 84.2275 80.3525C84.493 80.2636 84.7586 80.1746 85.0322 80.0829C85.1207 79.371 85.2092 78.6592 85.3004 77.9258C85.4775 77.7478 85.6545 77.5699 85.8369 77.3865C86.1025 77.3865 86.368 77.3865 86.6416 77.3865C86.7301 76.9416 86.8187 76.4967 86.9099 76.0383C87.0869 75.8604 87.2639 75.6824 87.4464 75.499C87.6234 74.9651 87.8004 74.4313 87.9828 73.8812C88.3369 73.7922 88.691 73.7032 89.0558 73.6116C89.0779 73.467 89.1001 73.3224 89.1228 73.1734C89.324 72.533 89.324 72.533 89.8102 71.7578C90.1917 71.21 90.5771 70.6649 90.967 70.1231C91.51 69.2315 91.7421 68.4158 92.0064 67.4099C92.1835 67.1429 92.3605 66.876 92.5429 66.6009C92.72 66.6009 92.897 66.6009 93.0794 66.6009C93.2564 66.067 93.4335 65.5332 93.6159 64.9831C93.97 64.8051 94.324 64.6272 94.6888 64.4438C94.6003 63.1091 94.5118 61.7744 94.4206 60.3992C94.2436 60.1323 94.0665 59.8653 93.8841 59.5903C93.7247 58.9506 93.7247 58.9506 93.597 58.2021C93.5503 57.931 93.5037 57.6599 93.4556 57.3805C93.3855 56.9561 93.3855 56.9561 93.3141 56.5232C93.241 56.1019 93.241 56.1019 93.1664 55.6721C92.9588 54.4451 92.7823 53.2881 92.8112 52.0404C92.4571 51.9514 92.103 51.8624 91.7382 51.7708C91.5185 50.8072 91.4383 49.922 91.4438 48.9343C91.4446 48.6588 91.4455 48.3834 91.4464 48.0996C91.4486 47.8151 91.4509 47.5306 91.4532 47.2375C91.4544 46.9477 91.4556 46.658 91.4569 46.3595C91.46 45.6466 91.4644 44.9338 91.47 44.2209C91.5962 44.0168 91.7224 43.8128 91.8524 43.6026C92.2948 42.8379 92.5571 42.0994 92.8112 41.2548C93.0767 41.2548 93.3423 41.2548 93.6159 41.2548C93.7044 40.365 93.7929 39.4752 93.8841 38.5584C94.0134 38.3794 94.1428 38.2004 94.276 38.016C94.4454 37.7779 94.6149 37.5398 94.7894 37.2945C94.9575 37.0599 95.1255 36.8253 95.2987 36.5835C95.7784 35.8946 95.7784 35.8946 96.0101 35.1785C96.1052 34.9591 96.2003 34.7398 96.2983 34.5138C96.8903 33.8777 96.8903 33.8777 97.5892 33.2331C98.5725 32.2849 98.5725 32.2849 99.361 31.1792C99.5047 30.8778 99.5047 30.8778 99.6513 30.5704C99.9436 29.9753 99.9436 29.9753 100.322 29.3907C100.973 28.786 101.646 28.2528 102.36 27.7255C102.99 27.2442 103.531 26.7295 104.077 26.155C104.431 26.066 104.785 25.9771 105.15 25.8854C106.115 24.9434 106.984 23.968 107.833 22.9193C108.187 22.9193 108.541 22.9193 108.906 22.9193C108.906 22.7414 108.906 22.5634 108.906 22.3801C109.778 21.7822 110.628 21.2076 111.588 20.7622C111.676 20.5843 111.765 20.4063 111.856 20.223C112.033 20.223 112.21 20.223 112.393 20.223C112.426 20.0172 112.459 19.8114 112.493 19.5994C112.576 19.2407 112.576 19.2407 112.661 18.8748C112.838 18.6078 113.015 18.3409 113.197 18.0658C113.729 18.0658 114.26 18.0658 114.807 18.0658C114.807 17.8879 114.807 17.7099 114.807 17.5266C115.072 17.3486 115.338 17.1706 115.612 16.9873C115.628 16.7631 115.644 16.5389 115.661 16.3079C115.683 16.0149 115.706 15.7219 115.729 15.42C115.751 15.1291 115.773 14.8382 115.795 14.5384C115.88 13.7516 115.88 13.7516 116.148 12.9427C116.264 12.8426 116.38 12.7425 116.5 12.6393C116.985 12.1306 116.985 12.1306 117.366 11.4354C117.686 10.6842 117.836 10.2064 117.935 9.42158C117.974 9.02831 118.01 8.6347 118.043 8.24085C118.173 6.77487 118.402 5.46076 118.83 4.04459C118.981 3.37736 119.127 2.70886 119.266 2.03915C119.371 1.53915 119.371 1.53915 119.478 1.02905C119.53 0.778447 119.582 0.52784 119.635 0.269639C119.724 0.180658 119.812 0.0916774 119.903 0C120.523 0 121.143 0 121.781 0C122.405 1.31112 122.745 2.52102 122.981 3.95506C123.125 4.59538 123.358 5.08315 123.659 5.66243C123.674 6.79714 123.684 7.93183 123.692 9.06662C123.697 9.38744 123.701 9.70826 123.706 10.0388C123.708 10.3499 123.709 10.661 123.711 10.9815C123.714 11.2667 123.717 11.552 123.72 11.8458C123.654 12.736 123.436 13.4588 123.122 14.2909C122.945 14.2909 122.768 14.2909 122.586 14.2909C122.576 14.4869 122.566 14.683 122.555 14.8849C122.424 16.904 122.175 18.8434 121.513 20.7622C121.204 21.334 120.865 21.8582 120.495 22.3917C119.935 23.3054 119.658 24.3192 119.367 25.3461C118.652 26.0651 117.936 26.7842 117.221 27.5032C117.044 27.5032 116.867 27.5032 116.685 27.5032C116.612 27.6565 116.539 27.8098 116.463 27.9677C115.826 29.2097 115.059 30.4187 114.135 31.4657C113.831 31.771 113.515 32.0654 113.197 32.3567C113.02 32.3567 112.843 32.3567 112.661 32.3567C112.572 32.7127 112.484 33.0686 112.393 33.4353C111.862 33.9692 111.862 33.9692 111.32 34.5138C110.39 34.7808 110.39 34.7808 109.442 35.0531C109.354 35.409 109.265 35.765 109.174 36.1317C108.377 36.8435 107.58 37.5554 106.76 38.2888C106.583 38.2888 106.406 38.2888 106.223 38.2888C106.046 38.7337 105.869 39.1786 105.687 39.637C105.067 40.1709 104.447 40.7048 103.809 41.2548C103.618 41.7136 103.618 41.7136 103.423 42.1817C103.216 42.6572 103.216 42.6572 103.004 43.1423C102.916 43.2313 102.827 43.3203 102.736 43.4119C102.648 44.1238 102.559 44.8356 102.468 45.5691C102.291 45.5691 102.114 45.5691 101.931 45.5691C101.931 46.2809 101.931 46.9928 101.931 47.7262C102.02 47.9041 102.108 48.0821 102.2 48.2655C102.258 48.6551 102.304 49.0467 102.343 49.4388C102.366 49.6682 102.39 49.8976 102.414 50.134C102.437 50.3738 102.461 50.6136 102.485 50.8607C102.521 51.2236 102.521 51.2236 102.558 51.5938C102.619 52.192 102.678 52.7902 102.736 53.3886C102.913 53.5666 103.09 53.7445 103.273 53.9279C103.981 53.9279 104.689 53.9279 105.418 53.9279C105.635 53.759 105.852 53.59 106.075 53.416C106.365 53.1933 106.654 52.9707 106.944 52.7482C107.086 52.637 107.229 52.5258 107.375 52.4112C108.216 51.7683 108.994 51.3324 109.979 50.9618C111.323 50.1059 112.452 49.0478 113.559 47.9073C114.213 47.2423 114.864 46.6682 115.612 46.1083C115.861 46.0329 116.11 45.9575 116.367 45.8798C117.254 45.6017 117.254 45.6017 118.024 44.9855C118.279 44.7666 118.534 44.5476 118.797 44.322C119.056 44.1016 119.316 43.8812 119.583 43.6542C119.777 43.4853 119.971 43.3163 120.172 43.1423C120.26 42.9643 120.349 42.7864 120.44 42.603C120.794 42.514 121.148 42.4251 121.513 42.3334C121.69 42.0664 121.867 41.7995 122.049 41.5245C122.492 41.5245 122.935 41.5245 123.391 41.5245C123.329 42.2599 123.265 42.9597 123.122 43.6816C122.867 44.1387 122.599 44.5886 122.318 45.0298C122.137 45.6585 121.959 46.2877 121.781 46.9173C121.445 47.7362 121.081 48.5413 120.708 49.344C120.531 49.344 120.354 49.344 120.172 49.344C119.995 49.8779 119.818 50.4118 119.635 50.9618C119.373 51.2374 119.104 51.5065 118.83 51.7708C118.653 51.8597 118.476 51.9487 118.294 52.0404C118.205 52.3963 118.117 52.7523 118.026 53.119C117.877 53.298 117.728 53.477 117.575 53.6614C117.381 53.8995 117.187 54.1376 116.986 54.3829C116.793 54.6175 116.6 54.8521 116.402 55.0939C115.858 55.7921 115.858 55.7921 115.542 56.579C115.477 56.7719 115.411 56.9648 115.343 57.1636C115.166 57.1636 114.989 57.1636 114.807 57.1636C114.746 57.3137 114.685 57.4639 114.622 57.6186C114.172 58.4164 113.579 58.945 112.929 59.5903C112.451 60.11 111.976 60.6325 111.504 61.1576C111.267 61.4207 111.03 61.6838 110.786 61.9549C110.608 62.1534 110.43 62.3519 110.247 62.5563C110.07 62.5563 109.893 62.5563 109.71 62.5563C109.533 62.9123 109.356 63.2682 109.174 63.6349C108.731 63.8129 108.289 63.9908 107.833 64.1742C107.744 64.4411 107.656 64.7081 107.564 64.9831C106.945 65.428 106.325 65.8729 105.687 66.3313C105.51 66.3313 105.333 66.3313 105.15 66.3313C105.15 66.5093 105.15 66.6872 105.15 66.8706C104.708 67.0485 104.265 67.2265 103.809 67.4099C103.696 67.6445 103.696 67.6445 103.582 67.8838C103.288 68.4579 102.966 68.991 102.619 69.5333C102.061 70.4182 101.574 71.3163 101.127 72.2634C100.861 72.3523 100.595 72.4413 100.322 72.533C100.25 72.6943 100.178 72.8556 100.104 73.0217C99.9988 73.2164 99.8937 73.411 99.7854 73.6116C99.6602 73.7301 99.5351 73.8486 99.4061 73.9707C98.95 74.4171 98.95 74.4171 98.6276 75.0419C98.5173 75.2706 98.407 75.4993 98.2933 75.735C98.1823 75.9623 98.0713 76.1896 97.957 76.4238C97.7417 76.8938 97.5411 77.3709 97.3545 77.8531C97.23 78.156 97.23 78.156 97.103 78.4651C96.8348 78.7347 96.5665 79.0043 96.2983 79.274C95.6536 80.4146 95.2829 81.5195 94.9571 82.7793C94.78 82.9573 94.603 83.1352 94.4206 83.3186C94.2436 84.2084 94.0665 85.0982 93.8841 86.015C93.7071 86.015 93.53 86.015 93.3476 86.015C93.3476 88.6844 93.3476 91.3538 93.3476 94.1041C93.5247 94.3711 93.7017 94.638 93.8841 94.9131C94.3267 95.091 94.7693 95.269 95.2253 95.4523C95.3747 95.7749 95.5241 96.0975 95.678 96.4298C96.2163 97.512 96.8208 98.341 97.6395 99.2273C97.905 99.4053 98.1706 99.5832 98.4442 99.7666C98.5493 99.9779 98.6544 100.189 98.7627 100.407C98.836 100.553 98.9093 100.699 98.9849 100.849C99.182 101.249 99.374 101.651 99.5633 102.054C100.046 103.067 100.469 103.942 101.21 104.789C101.435 104.972 101.435 104.972 101.663 105.159C101.785 105.668 101.908 106.178 102.03 106.687C102.196 107.345 102.196 107.345 102.485 108.075C102.736 108.934 102.736 108.934 102.788 109.918C102.779 110.415 102.779 110.415 102.77 110.923C102.765 111.259 102.76 111.594 102.755 111.94C102.749 112.194 102.742 112.448 102.736 112.709C101.931 113.518 101.127 114.327 100.322 115.136C99.6295 115.359 99.0572 115.411 98.3227 115.432C97.8185 115.427 97.8185 115.427 97.3042 115.423C96.9653 115.42 96.6265 115.418 96.2773 115.415C96.0187 115.412 95.76 115.409 95.4936 115.406C95.1266 115.056 94.77 114.695 94.4206 114.327C93.6914 112.861 93.2553 111.317 92.8112 109.743C92.6462 109.564 92.4813 109.385 92.3113 109.201C92.0946 108.963 91.8777 108.725 91.6544 108.479C91.4396 108.245 91.2249 108.01 91.0037 107.768C90.4448 107.104 90.0354 106.442 89.5923 105.699C89.13 105.21 88.6448 104.762 88.1494 104.308C88.0059 104.144 87.8624 103.98 87.7146 103.811C87.6365 103.599 87.5583 103.388 87.4778 103.17C87.3789 102.936 87.28 102.703 87.1781 102.463C86.5248 101.719 86.5248 101.719 85.7531 100.997C84.1321 99.4248 84.1321 99.4248 83.4563 98.5532C82.9163 97.8497 82.9163 97.8498 82.1654 97.4072C81.9607 97.296 81.756 97.1848 81.5451 97.0702C81.368 96.8922 81.191 96.7143 81.0086 96.5309C80.5672 96.3323 80.1191 96.1484 79.6674 95.9748C78.3533 95.466 78.3533 95.466 77.7897 95.1827C77.7897 95.0047 77.7897 94.8268 77.7897 94.6434C77.5684 94.6212 77.3471 94.5989 77.1191 94.576C76.308 94.4013 75.8614 94.2259 75.1576 93.8345C74.6171 93.5342 74.6171 93.5342 74.0343 93.2952C73.2308 93.1395 72.4372 93.0636 71.6202 93.0256C71.3546 92.8476 71.0891 92.6697 70.8154 92.4863C70.0188 92.4863 69.2221 92.4863 68.4013 92.4863C68.0472 92.6643 67.6931 92.8422 67.3283 93.0256C67.3283 97.2967 67.3283 101.568 67.3283 105.968C67.4168 106.146 67.5054 106.324 67.5966 106.508C67.6851 113.27 67.7736 120.033 67.8648 127C68.1304 127.445 68.3959 127.89 68.6695 128.348C68.9357 128.349 69.202 128.35 69.4762 128.35C75.9553 128.366 82.4343 128.387 88.9133 128.412C92.0465 128.424 95.1797 128.435 98.313 128.442C101.044 128.448 103.775 128.457 106.506 128.469C107.952 128.476 109.398 128.481 110.844 128.483C112.205 128.484 113.567 128.49 114.928 128.498C115.428 128.5 115.927 128.501 116.426 128.501C117.109 128.5 117.792 128.505 118.475 128.51C118.671 128.509 118.867 128.508 119.069 128.507C119.848 128.517 120.54 128.57 121.292 128.786C122.468 129.215 123.449 129.753 124.464 130.505C124.641 130.683 124.818 130.861 125 131.045C125 132.824 125 134.604 125 136.438C123.659 137.786 123.659 137.786 123.165 138.149C122.526 138.469 121.938 138.685 121.245 138.864C119.68 139.017 118.125 139.005 116.555 138.994C116.075 138.994 115.595 138.995 115.115 138.997C113.799 138.999 112.483 138.995 111.168 138.989C109.747 138.985 108.327 138.986 106.907 138.987C104.448 138.988 101.988 138.984 99.5289 138.978C95.973 138.97 92.4172 138.967 88.8613 138.965C83.092 138.963 77.3226 138.956 71.5533 138.946C65.9493 138.936 60.3454 138.928 54.7414 138.924C54.2231 138.923 54.2231 138.923 53.6944 138.923C51.9611 138.921 50.2279 138.92 48.4946 138.919C34.118 138.907 19.7414 138.888 5.36481 138.864C5.18777 138.775 5.01073 138.686 4.82833 138.595C4.82833 138.417 4.82833 138.239 4.82833 138.055C3.76609 138.055 2.70386 138.055 1.60944 138.055C1.07833 137.433 0.54721 136.81 0 136.168C0 134.21 0 132.253 0 130.236C0.177039 130.058 0.354077 129.88 0.536481 129.697C0.976311 129.58 0.976311 129.58 1.42503 129.461C2.42493 129.206 2.42493 129.206 3.21888 128.618C20.7457 128.618 38.2725 128.618 56.3305 128.618C56.6257 127.848 56.6257 127.848 56.6317 127.158C56.6313 126.768 56.6313 126.768 56.631 126.371C56.6313 126.072 56.6317 125.774 56.6321 125.467C56.6311 125.139 56.6302 124.812 56.6292 124.475C56.6292 123.958 56.6292 123.958 56.6293 123.43C56.6294 122.485 56.6278 121.54 56.6259 120.594C56.6242 119.607 56.6241 118.619 56.6238 117.631C56.6229 115.76 56.6207 113.889 56.618 112.019C56.615 109.889 56.6136 107.759 56.6122 105.63C56.6094 101.248 56.6047 96.8674 56.5987 92.4863C56.5102 92.3973 56.4217 92.3083 56.3305 92.2167C55.4453 92.2167 54.5601 92.2167 53.6481 92.2167C53.471 92.3946 53.294 92.5726 53.1116 92.756C52.7041 92.944 52.2893 93.1163 51.871 93.2784C51.6317 93.3722 51.3924 93.4661 51.1459 93.5628C50.518 93.8008 49.8875 94.029 49.2556 94.2558C48.3024 94.5953 48.3024 94.5954 47.6127 95.0984C47.4799 95.2152 47.3471 95.332 47.2103 95.4523C46.8562 95.4523 46.5021 95.4523 46.1373 95.4523C46.1373 95.6303 46.1373 95.8083 46.1373 95.9916C45.9848 96.0733 45.8324 96.155 45.6753 96.2392C44.3249 96.9756 43.0776 97.7657 41.8455 98.688C41.6685 98.688 41.4914 98.688 41.309 98.688C41.2177 98.9133 41.2177 98.9133 41.1246 99.143C40.6762 99.9371 40.0878 100.49 39.4313 101.115C39.1658 101.115 38.9002 101.115 38.6266 101.115C38.5353 101.398 38.5353 101.398 38.4422 101.688C38.0154 102.628 37.4052 103.289 36.7489 104.081C36.3989 104.812 36.3989 104.812 36.2124 105.429C35.9635 105.618 35.7145 105.807 35.458 106.002C35.0075 106.371 35.0075 106.371 34.603 106.777C34.147 107.537 34.147 107.537 33.7983 108.395C33.0036 110.156 31.9803 111.688 30.8476 113.249C30.6706 113.249 30.4936 113.249 30.3112 113.249C30.3112 113.782 30.3112 114.316 30.3112 114.866C30.1341 115.044 29.9571 115.222 29.7747 115.406C29.1264 115.413 28.4782 115.418 27.8299 115.423C27.647 115.425 27.4641 115.427 27.2756 115.429C26.526 115.433 25.8208 115.42 25.0847 115.27C24.8834 115.204 24.8834 115.204 24.6781 115.136C24.4249 114.688 24.1717 114.241 23.9184 113.793C23.553 113.158 23.176 112.53 22.8004 111.9C22.8004 110.744 22.8004 109.587 22.8004 108.395C24.4012 104.829 24.4012 104.829 24.9464 103.811C25.1234 103.633 25.3004 103.455 25.4828 103.272C25.9966 101.934 26.4511 100.612 26.824 99.2273C27.671 98.1895 28.4496 97.2441 29.5567 96.4803C29.8057 96.3191 30.0547 96.1578 30.3112 95.9916C30.9306 95.3706 30.9306 95.3706 31.3841 94.6434C31.7209 93.7862 31.7209 93.7862 31.9206 93.0256C31.8321 92.2248 31.7436 91.4239 31.6524 90.5988C31.5638 90.5099 31.4753 90.4209 31.3841 90.3292C31.2956 89.2614 31.2071 88.1937 31.1159 87.0935C30.9388 86.9156 30.7618 86.7376 30.5794 86.5542C30.4909 85.4865 30.4024 84.4187 30.3112 83.3186C29.8686 82.5177 29.426 81.7169 28.97 80.8918C28.7929 80.8028 28.6159 80.7139 28.4335 80.6222C28.4335 80.0883 28.4335 79.5544 28.4335 79.0043C28.0794 78.8264 27.7253 78.6484 27.3605 78.4651C27.272 77.7532 27.1835 77.0414 27.0923 76.308C26.7574 75.8414 26.422 75.3752 26.0864 74.9092C25.8997 74.6496 25.7129 74.3899 25.5206 74.1224C25.1543 73.6246 24.7779 73.1341 24.3889 72.6541C23.8734 71.9937 23.8734 71.9937 23.5276 71.3703C22.9947 70.5287 22.3547 69.865 21.6478 69.1741C21.5105 69.0375 21.3732 68.9009 21.2318 68.7601C20.7947 68.3256 20.3559 67.8929 19.9168 67.4604C19.3417 66.8922 18.7675 66.3232 18.1942 65.753C18.0566 65.6161 17.9189 65.4792 17.777 65.3382C16.8504 64.4104 15.9693 63.4564 15.1254 62.4524C14.5868 61.8224 14.0051 61.2469 13.412 60.6689C13.3235 60.4019 13.235 60.135 13.1438 59.8599C12.8782 59.771 12.6127 59.682 12.3391 59.5903C12.3391 59.4123 12.3391 59.2344 12.3391 59.051C11.985 58.962 11.6309 58.8731 11.2661 58.7814C11.0088 58.4389 10.7518 58.0962 10.4949 57.7534C10.3518 57.5626 10.2086 57.3717 10.0611 57.1751C9.73494 56.7309 9.42485 56.2748 9.12017 55.8154C8.85461 55.7264 8.58906 55.6374 8.31545 55.5457C8.23419 55.3956 8.15293 55.2454 8.06921 55.0907C6.63893 52.4718 5.02423 50.0984 3.21888 47.7262C3.21888 47.5482 3.21888 47.3703 3.21888 47.1869C3.04185 47.1869 2.86481 47.1869 2.6824 47.1869C1.7058 45.0911 1.7058 45.0911 1.40826 44.0692C1.31214 43.1271 1.32524 42.2017 1.3412 41.2548C2.04936 41.2548 2.75751 41.2548 3.48712 41.2548C3.99658 41.7029 4.50594 42.1511 5.01484 42.5999C5.41966 42.9551 5.82616 43.3084 6.23449 43.6595C6.42329 43.8225 6.61208 43.9855 6.8066 44.1535C6.98018 44.3022 7.15376 44.451 7.3326 44.6043C7.77897 45.0298 7.77897 45.0298 8.31545 45.8387C8.66953 45.9277 9.0236 46.0167 9.38841 46.1083C10.4614 47.1869 11.5343 48.2655 12.6073 49.344C13.0499 49.433 13.4925 49.522 13.9485 49.6137C13.9485 49.7916 13.9485 49.9696 13.9485 50.1529C14.1034 50.2252 14.2583 50.2975 14.4179 50.372C15.0302 50.6968 15.5509 51.0719 16.0944 51.5011C16.0944 51.6791 16.0944 51.8571 16.0944 52.0404C16.537 52.0404 16.9796 52.0404 17.4356 52.0404C18.4979 52.9747 18.4979 52.9747 19.5815 53.9279C20.2897 53.9279 20.9979 53.9279 21.7275 53.9279C21.9045 53.6609 22.0815 53.394 22.2639 53.119C22.2639 49.5597 22.2639 46.0005 22.2639 42.3334C21.7328 42.0664 21.7328 42.0664 21.191 41.7941C20.7719 41.4402 20.7719 41.4402 20.3863 40.9852C20.2808 40.7902 20.1753 40.5952 20.0667 40.3943C19.4431 39.4208 18.6888 38.6611 17.8715 37.8506C17.7201 37.6963 17.5686 37.542 17.4126 37.383C16.5778 36.5477 15.7869 35.9059 14.7532 35.3228C14.4379 34.9974 14.4379 34.9974 14.1161 34.6655C13.3046 33.8692 12.5328 33.4274 11.5343 32.896C11.4237 32.6958 11.313 32.4956 11.199 32.2893C10.7648 31.5442 10.7648 31.5442 10.1931 31.0085C9.61141 30.4238 9.26647 29.8329 8.85193 29.1211C8.36948 28.4305 8.36948 28.4305 7.77897 27.7729C7.41072 27.5054 7.41072 27.5054 7.03502 27.2325C6.60535 26.8769 6.60535 26.8769 6.16953 26.4247C5.5771 25.5225 5.09383 24.5749 4.61038 23.6103C4.41355 23.2346 4.41355 23.2346 4.21274 22.8514C3.68487 21.8203 3.25219 20.9109 2.9978 19.7753C2.98224 19.5671 2.96668 19.3589 2.95064 19.1444C2.7736 19.1444 2.59657 19.1444 2.41416 19.1444C2.02277 17.9641 2.04194 16.7796 1.97932 15.5422C1.90976 14.5619 1.90976 14.5619 1.60211 13.6621C1.27311 12.4149 1.28244 11.2761 1.30767 9.99351C1.31009 9.75768 1.31251 9.52184 1.31501 9.27886C1.32127 8.70251 1.33089 8.1262 1.3412 7.5499C1.69528 7.46092 2.04936 7.37194 2.41416 7.28026C2.4095 6.82615 2.40949 6.82615 2.40473 6.36286C2.39015 4.31071 2.38783 2.30541 2.6824 0.269639C2.77092 0.180658 2.85944 0.0916774 2.95064 0Z" fill="rgb(232,192,55)" fill-rule="nonzero" />
</svg>
