<svg viewBox="0 0 106 142" xmlns="http://www.w3.org/2000/svg" xmlns:xlink="http://www.w3.org/1999/xlink" width="106.000000" height="142.000000" fill="none" customFrame="#000000">
	<path id="矢量 3" d="M46.0052 0C51.2736 0 56.542 0 61.97 0C62.9578 0.492961 63.9457 0.985923 64.9634 1.49382C66.1224 1.84304 67.2872 2.17344 68.4557 2.4897C72.0693 3.50256 75.1885 5.10044 78.4337 6.97117C78.9277 7.71061 78.9277 7.71061 79.4315 8.46499C79.7865 8.57475 80.1415 8.68451 80.5073 8.7976C81.926 9.46087 81.926 9.46087 83.2824 10.6688C83.7488 11.1441 84.2113 11.6234 84.67 12.1062C85.1279 12.5767 85.5858 13.0472 86.0576 13.5319C86.5052 13.996 86.9528 14.4601 87.4139 14.9382C88.2437 15.7699 89.0748 16.6002 89.9085 17.4279C90.2377 17.7566 90.567 18.0852 90.9063 18.4238C91.1429 18.9784 91.3796 19.533 91.6234 20.1044C92.2819 21.629 92.8797 22.6286 93.8997 23.9012C94.4018 24.7291 94.9004 25.5592 95.3964 26.3909C96.0572 27.3896 96.7214 28.3862 97.392 29.3785C97.5566 30.3644 97.7212 31.3503 97.8909 32.3661C98.3848 32.6948 98.8787 33.0234 99.3876 33.362C100.375 36.1555 101.363 38.9489 102.381 41.827C102.546 41.9913 102.71 42.1557 102.88 42.325C103.219 43.9836 103.549 45.6438 103.878 47.3044C103.973 47.7697 104.068 48.2351 104.166 48.7146C104.704 51.4543 104.981 53.9739 104.875 56.7652C105.205 56.7652 105.534 56.7652 105.873 56.7652C105.912 60.4213 105.938 64.0774 105.955 67.7337C105.963 68.9732 105.973 70.2127 105.986 71.4522C106.062 78.8295 105.866 85.8737 104.377 93.1149C104.047 93.1149 103.718 93.1149 103.379 93.1149C103.305 93.7378 103.305 93.7379 103.231 94.3734C102.629 98.8896 102.629 98.8896 101.923 100.876C101.591 101.6 101.248 102.32 100.894 103.035C100.095 104.661 99.5083 106.352 98.8887 108.053C98.5594 108.053 98.2301 108.053 97.8909 108.053C97.8356 108.492 97.7803 108.931 97.7233 109.384C97.392 111.041 97.392 111.041 96.8112 112.356C94.6117 116.277 92.1179 119.904 89.4096 123.489C89.0803 123.489 88.751 123.489 88.4118 123.489C88.2883 123.767 88.1648 124.044 88.0376 124.33C87.3062 125.68 86.4012 126.794 85.4184 127.971C85.0891 127.971 84.7598 127.971 84.4205 127.971C84.0913 128.628 83.762 129.285 83.4227 129.963C82.7642 130.127 82.1056 130.291 81.4271 130.46C81.2625 130.953 81.0979 131.446 80.9282 131.954C77.9492 134.272 75.0168 136.367 71.5329 137.852C68.5398 138.942 65.4779 139.801 62.4066 140.642C61.5947 140.881 60.8004 141.177 60.0114 141.483C57.9193 142.07 55.9608 142.02 53.8005 141.975C53.3857 141.971 52.9709 141.966 52.5435 141.962C51.5281 141.95 50.5128 141.932 49.4975 141.913C49.4975 141.584 49.4975 141.256 49.4975 140.917C49.0049 140.887 48.5123 140.857 48.0047 140.826C47.3654 140.784 46.7262 140.742 46.0676 140.699C45.4309 140.659 44.7942 140.618 44.1382 140.577C43.6019 140.525 43.0655 140.473 42.5129 140.419C42.1836 140.255 41.8543 140.091 41.5151 139.921C41.5151 139.593 41.5151 139.264 41.5151 138.925C40.198 138.761 38.8809 138.597 37.5239 138.428C37.5239 138.099 37.5239 137.77 37.5239 137.432C37.1123 137.391 36.7007 137.349 36.2766 137.307C34.6054 136.95 33.1907 136.449 31.6774 135.656C28.2867 133.529 25.372 130.79 22.5569 127.971C22.1556 127.673 21.7543 127.375 21.3408 127.068C19.6052 125.589 18.3978 123.835 17.069 121.995C15.9511 120.561 14.8674 119.3 13.5767 118.012C12.8358 115.794 12.8358 115.794 12.08 113.53C11.7507 113.53 11.4214 113.53 11.0822 113.53C10.967 113.265 10.8519 112.999 10.7333 112.725C9.80431 110.607 8.82705 108.543 7.74576 106.497C7.33804 105.699 6.95077 104.89 6.59205 104.07C6.40181 102.911 6.23054 101.75 6.09315 100.584C5.39921 99.2775 5.39921 99.2775 4.59645 98.0943C3.70951 96.2197 3.28721 94.3289 2.88148 92.3077C2.61554 91.0751 2.61554 91.0751 2.08635 89.748C1.50009 87.792 1.41511 85.9949 1.35359 83.9652C1.27578 81.4251 0.998814 79.2349 0.324122 76.7672C-0.111803 74.6049 0.0045257 72.4056 0.0439781 70.2096C0.048481 69.7289 0.05298 69.2481 0.0576199 68.7528C0.069271 67.5785 0.0856077 66.4044 0.106341 65.2302C0.435617 65.2302 0.764889 65.2302 1.10414 65.2302C1.09835 64.8798 1.09257 64.5293 1.0866 64.1682C1.05013 60.1849 1.27362 56.2527 1.60304 52.2838C1.93232 52.2838 2.26159 52.2838 2.60084 52.2838C2.67287 51.7805 2.7449 51.2773 2.81911 50.7588C3.07896 48.9434 3.3388 47.128 3.59864 45.3126C3.92792 45.3126 4.25719 45.3126 4.59645 45.3126C4.65754 44.8902 4.71864 44.4679 4.78159 44.0327C5.10636 42.265 5.58149 40.6144 6.12433 38.9016C6.30505 38.3278 6.48576 37.7539 6.67195 37.1627C6.81022 36.7301 6.94849 36.2975 7.09095 35.8517C7.42023 35.8517 7.7495 35.8517 8.08875 35.8517C8.14727 35.5943 8.2058 35.3369 8.26609 35.0718C8.68615 33.4888 9.20665 31.9537 9.74136 30.4055C9.94522 29.8053 10.1491 29.2052 10.3591 28.5869C11.0822 26.8888 11.0822 26.8888 12.0546 25.5798C12.3923 25.1901 12.7299 24.8005 13.0778 24.3991C13.6627 23.5712 14.2446 22.7412 14.8239 21.9094C18.2755 17.1645 22.2357 12.8235 26.9125 9.25664C28.4066 8.212 29.9201 7.31526 31.5371 6.47323C31.8664 6.47323 32.1956 6.47323 32.5349 6.47323C32.5349 6.14459 32.5349 5.81595 32.5349 5.47735C33.5227 5.14871 34.5105 4.82007 35.5283 4.48147C35.8576 4.15283 36.1868 3.82418 36.5261 3.48558C37.5536 3.14923 38.583 2.81832 39.613 2.4897C40.186 2.30484 40.7591 2.11998 41.3494 1.92952C43.0118 1.49382 43.0118 1.49382 44.4715 1.43158C44.813 1.45212 45.1545 1.47266 45.5063 1.49382C45.6709 1.00086 45.8356 0.5079 46.0052 0ZM43.5107 10.4568C43.137 10.5761 42.7634 10.6955 42.3784 10.8185C40.1005 11.6097 38.0869 12.7025 36.0272 13.9423C35.3732 14.3173 34.7185 14.6908 34.0628 15.0627C33.5586 15.3503 33.0544 15.6378 32.5349 15.9341C32.5349 16.2627 32.5349 16.5914 32.5349 16.93C32.2571 17.043 31.9792 17.1559 31.693 17.2723C30.4684 17.9086 30.4684 17.9086 29.3544 19.0151C26.6384 21.8069 26.6384 21.8069 24.4648 25.004C24.3291 25.2973 24.1934 25.5907 24.0536 25.8929C23.395 26.2216 22.7365 26.5502 22.058 26.8888C18.2647 33.0008 15.2361 38.9148 13.0778 45.8105C12.5838 46.3035 12.5838 46.3035 12.08 46.8064C11.9153 48.9426 11.7507 51.0788 11.5811 53.2797C11.2518 53.7726 10.9225 54.2656 10.5833 54.7735C9.4288 61.0285 9.5294 67.5124 9.49191 73.8508C9.48544 74.426 9.47897 75.0012 9.4723 75.5939C9.46809 79.5273 9.87632 83.2712 10.5833 87.1396C11.0772 87.3039 11.5711 87.4683 12.08 87.6376C12.08 89.6094 12.08 91.5812 12.08 93.6128C12.4092 94.1058 12.7385 94.5988 13.0778 95.1067C13.3254 95.7952 13.5526 96.4913 13.7637 97.1918C14.4887 99.4553 15.4604 101.471 16.5701 103.572C16.8993 103.572 17.2286 103.572 17.5679 103.572C17.6193 104.075 17.6708 104.578 17.7238 105.097C18.0789 107.127 18.6833 108.685 19.5635 110.543C19.903 111.313 19.903 111.313 20.2495 112.099C21.1671 113.719 22.2241 114.712 23.5547 116.02C24.1016 116.602 24.6451 117.187 25.1858 117.775C29.6228 122.617 29.6228 122.617 34.5305 126.975C34.8598 126.975 35.189 126.975 35.5283 126.975C35.5283 127.468 35.5283 127.961 35.5283 128.469C37.1747 128.962 38.821 129.455 40.5173 129.963C41.0112 130.455 41.0112 130.455 41.5151 130.958C44.7902 132.002 47.9326 132.413 51.3664 132.499C55.2559 132.543 59.1016 132.412 62.9678 131.954C63.3074 131.739 63.6469 131.523 63.9968 131.301C65.4623 130.46 65.4623 130.46 67.076 129.799C69.0304 128.974 70.7674 127.913 72.5405 126.757C72.9915 126.472 72.9915 126.472 73.4516 126.18C75.1343 125.094 76.5792 123.967 77.9348 122.493C77.9348 122.165 77.9348 121.836 77.9348 121.498C78.5934 121.333 79.2519 121.169 79.9304 121C80.0951 120.342 80.2597 119.685 80.4293 119.008C80.7175 118.885 81.0056 118.761 81.3024 118.634C82.4393 118.046 82.4393 118.046 83.3916 117.234C84.5992 115.81 85.402 114.315 86.2739 112.671C86.8408 111.67 87.4403 110.842 88.1623 109.952C89.0005 108.822 89.5058 107.813 90.0332 106.497C90.4547 105.298 90.869 104.097 91.2765 102.893C91.8634 101.199 92.5139 99.5575 93.2137 97.9076C93.4175 97.4198 93.6214 96.9319 93.8315 96.4293C94.168 95.6445 94.5159 94.8641 94.8877 94.0952C95.3428 93.0888 95.662 92.206 95.8953 91.1231C96.0117 88.7934 95.9838 86.4823 95.8953 84.152C96.2245 84.152 96.5538 84.152 96.8931 84.152C97.5535 79.0199 97.4376 73.8783 97.392 68.7158C96.5688 69.5374 95.7456 70.359 94.8975 71.2055C93.2511 71.2055 91.6047 71.2055 89.9085 71.2055C88.2621 70.2196 86.6157 69.2337 84.9194 68.2179C80.757 67.6244 76.6411 67.6737 72.4469 67.7199C71.953 68.5415 71.4591 69.3631 70.9502 70.2096C70.7856 71.8528 70.621 73.496 70.4513 75.189C69.9574 75.189 69.4635 75.189 68.9546 75.189C68.4607 76.0106 67.9668 76.8323 67.4579 77.6787C67.4579 78.0074 67.4579 78.336 67.4579 78.6746C66.1275 79.0066 64.7971 79.3385 63.4667 79.6705C63.4667 79.9992 63.4667 80.3278 63.4667 80.6664C60.9972 80.6664 58.5276 80.6664 55.9832 80.6664C55.9832 81.488 55.9832 82.3096 55.9832 83.1561C56.6418 83.1561 57.3003 83.1561 57.9788 83.1561C57.9788 83.4847 57.9788 83.8134 57.9788 84.152C58.3274 84.2842 58.6759 84.4164 59.0351 84.5527C59.4891 84.7285 59.9432 84.9044 60.411 85.0856C60.8624 85.2589 61.3139 85.4322 61.779 85.6108C62.1713 85.7867 62.5636 85.9625 62.9678 86.1437C63.2971 86.4724 63.6264 86.801 63.9656 87.1396C64.4595 87.1396 64.9534 87.1396 65.4623 87.1396C65.4623 87.4683 65.4623 87.7969 65.4623 88.1355C65.9562 88.1355 66.4501 88.1355 66.959 88.1355C67.0311 88.4333 67.1031 88.7312 67.1773 89.038C67.4017 89.9089 67.6719 90.768 67.9568 91.6211C68.0092 92.2998 68.0358 92.9807 68.0451 93.6614C68.0547 94.2753 68.0547 94.2753 68.0645 94.9016C68.0682 95.3435 68.0719 95.7854 68.0757 96.2407C68.0797 96.6996 68.0838 97.1586 68.0879 97.6315C68.0948 98.6055 68.1002 99.5795 68.1041 100.554C68.1098 101.541 68.12 102.528 68.1348 103.516C68.2562 111.609 68.2562 111.609 67.5487 114.973C66.8122 117.249 65.8929 119.223 64.6204 121.249C64.4127 121.541 64.205 121.834 63.991 122.136C63.4132 122.994 63.4132 122.994 63.1452 124.096C63.0866 124.389 63.0281 124.682 62.9678 124.983C62.4739 125.312 61.98 125.64 61.4711 125.979C59.8247 125.979 58.1784 125.979 56.4821 125.979C56.3175 125.486 56.1528 124.993 55.9832 124.485C55.6539 124.485 55.3247 124.485 54.9854 124.485C55.0376 122.895 55.1351 121.547 55.4843 120.004C56.1606 118.549 56.9216 117.188 57.743 115.81C58.475 114.531 59.0231 113.441 59.4755 112.037C59.5581 110.631 59.592 109.276 59.573 107.872C59.5708 107.281 59.5708 107.281 59.5687 106.677C59.5631 105.424 59.5506 104.171 59.5379 102.918C59.5329 102.066 59.5283 101.214 59.5242 100.361C59.5133 98.2777 59.4961 96.1943 59.4755 94.1108C57.6654 92.9916 56.016 92.2689 53.9876 91.6211C52.8135 91.1438 51.6559 90.6369 50.4953 90.1273C50.0055 89.5682 49.5173 89.0077 49.0298 88.4467C48.7577 88.1348 48.4857 87.8228 48.2054 87.5014C47.5019 86.6417 47.5019 86.6417 47.003 85.6458C47.003 82.688 47.003 79.7303 47.003 76.6829C47.3323 76.0256 47.6615 75.3683 48.0008 74.6911C48.0008 74.0338 48.0008 73.3765 48.0008 72.6993C48.3301 72.6993 48.6593 72.6993 48.9986 72.6993C48.9986 71.0561 48.9986 69.4129 48.9986 67.7199C48.1754 67.7199 47.3522 67.7199 46.5041 67.7199C46.317 68.1468 46.1298 68.5736 45.937 69.0134C43.2084 75.098 43.2084 75.098 41.0162 77.6787C39.7378 78.6124 39.7378 78.6124 38.5217 79.1726C37.0749 79.6066 35.7794 79.7344 34.2713 79.7366C33.8433 79.7373 33.4153 79.7379 32.9743 79.7386C32.5309 79.7367 32.0875 79.7347 31.6306 79.7327C30.9742 79.7356 30.9742 79.7356 30.3044 79.7386C27.8346 79.7349 25.4903 79.5903 23.0558 79.1726C22.8911 79.0082 22.7265 78.8439 22.5569 78.6746C21.4044 78.5103 20.2519 78.346 19.0646 78.1767C18.7353 77.848 18.406 77.5194 18.0668 77.1808C17.4185 77.0114 17.4185 77.0113 16.7571 76.8385C15.0734 76.1849 15.0734 76.1849 14.2081 75.5644C13.4847 74.9576 12.7807 74.328 12.08 73.6952C11.7507 72.8736 11.4214 72.052 11.0822 71.2055C11.7407 70.2196 12.3993 69.2337 13.0778 68.2179C13.0778 67.8892 13.0778 67.5606 13.0778 67.222C14.7715 67.2616 16.4021 67.3977 18.0668 67.7199C19.2809 68.2898 19.2809 68.2898 20.4677 68.9648C21.7063 69.6643 21.7063 69.6643 23.0558 70.2096C25.2188 70.585 27.3489 70.6728 29.5415 70.7076C30.2688 70.7278 30.2688 70.7278 31.0109 70.7484C32.1913 70.7673 33.3526 70.7847 34.5305 70.7076C35.0244 70.5433 35.5183 70.3789 36.0272 70.2096C36.1507 69.8297 36.2741 69.4497 36.4014 69.0582C37.0931 67.0213 37.8289 65.0029 38.5704 62.9837C38.8997 62.0773 39.214 61.1655 39.5195 60.2508C39.3549 59.9222 39.1902 59.5935 39.0206 59.2549C39.8438 59.4193 40.667 59.5836 41.5151 59.7529C41.8444 59.4242 42.1736 59.0956 42.5129 58.757C45.641 58.5927 48.7691 58.4284 51.992 58.2591C51.992 57.4375 51.992 56.6159 51.992 55.7694C50.5848 54.736 50.5848 54.736 49.1545 54.3378C47.1583 53.6611 45.2927 52.9203 43.5107 51.7858C42.5282 50.8439 41.8173 49.9127 41.0162 48.7982C40.8516 48.4695 40.6869 48.1409 40.5173 47.8023C40.188 47.8023 39.8587 47.8023 39.5195 47.8023C39.5071 45.1187 39.4981 42.4351 39.4921 39.7515C39.4896 38.8402 39.4862 37.929 39.4819 37.0177C39.4757 35.7012 39.473 34.3848 39.4708 33.0683C39.4682 32.6667 39.4656 32.265 39.463 31.8512C39.4627 28.6126 39.583 25.4076 40.4861 22.2828C40.661 21.831 40.836 21.3791 41.0162 20.9135C41.1493 20.529 41.2824 20.1445 41.4196 19.7484C42.1111 18.2074 42.9954 17.0783 44.072 15.7785C44.4334 15.3388 44.7948 14.8991 45.1672 14.4461C45.4437 14.1155 45.7203 13.785 46.0052 13.4444C46.3345 13.2801 46.6637 13.1158 47.003 12.9465C48.1555 12.9465 49.3079 12.9465 50.4953 12.9465C51.1539 13.7681 51.8124 14.5897 52.4909 15.4362C52.7379 18.1474 52.7379 18.1474 52.9898 20.9135C52.3313 21.0778 51.6727 21.2421 50.9942 21.4114C50.5003 22.3974 50.0064 23.3833 49.4975 24.3991C49.4975 25.0564 49.4975 25.7137 49.4975 26.3909C49.1682 26.3909 48.839 26.3909 48.4997 26.3909C48.4997 32.3064 48.4997 38.2219 48.4997 44.3167C49.8788 45.332 49.8788 45.332 51.1462 45.6841C51.781 45.8545 51.781 45.8545 52.4285 46.0284C53.9499 46.4635 55.1413 46.8904 56.5445 47.6467C57.0075 47.9702 57.0075 47.9702 57.4799 48.3002C58.1385 49.4505 58.797 50.6007 59.4755 51.7858C59.8048 51.9502 60.1341 52.1145 60.4733 52.2838C61.0328 54.2116 61.0407 55.99 61.0229 57.9848C60.9583 59.6032 60.7512 61.1456 60.4733 62.7405C59.9794 62.987 59.9794 62.987 59.4755 63.2385C58.9123 64.5025 58.9123 64.5025 58.4777 66.2261C58.3934 67.8897 58.4184 69.5414 58.4777 71.2055C59.3009 71.2055 60.1241 71.2055 60.9722 71.2055C61.8967 69.4919 62.6033 67.8366 63.1549 65.9771C63.5361 64.7748 63.9021 63.8295 64.6146 62.7853C65.2041 62.0841 65.8289 61.4128 66.4601 60.7488C67.9132 59.9165 69.3538 59.2693 70.9502 58.757C73.1306 58.5243 75.2776 58.5669 77.4671 58.6325C78.3291 58.646 78.3291 58.646 79.2084 58.6597C80.6136 58.683 82.018 58.7156 83.4227 58.757C83.9167 59.0856 84.4106 59.4143 84.9194 59.7529C86.0546 60.0846 86.0546 60.0846 87.258 60.3131C87.6613 60.3965 88.0645 60.48 88.48 60.5659C88.7867 60.6263 89.0935 60.6866 89.4096 60.7488C89.7594 61.0466 90.1093 61.3444 90.4697 61.6513C91.9015 62.7386 93.2578 63.5031 94.8975 64.2344C95.56 64.4106 96.2248 64.5788 96.8931 64.7323C97.0116 60.5975 96.739 56.825 95.8953 52.7817C95.7106 51.6215 95.5519 50.4607 95.3964 49.2961C95.0671 49.2961 94.7378 49.2961 94.3986 49.2961C94.4294 48.9675 94.4603 48.6388 94.4921 48.3002C94.4642 46.8724 94.4642 46.8724 94.0828 45.8242C93.8216 45.1471 93.5537 44.4726 93.278 43.8013C92.9011 42.8211 92.6379 41.8535 92.403 40.8311C92.0737 40.8311 91.7444 40.8311 91.4052 40.8311C91.2691 40.3439 91.2691 40.3439 91.1304 39.8469C90.4175 37.3731 89.6298 35.1435 88.4118 32.8641C87.8955 31.709 87.4058 30.5447 86.915 29.3785C86.5858 29.3785 86.2565 29.3785 85.9172 29.3785C85.7526 28.5569 85.588 27.7353 85.4184 26.8888C84.9244 26.2315 84.4305 25.5742 83.9216 24.897C83.5924 24.897 83.2631 24.897 82.9238 24.897C82.4299 23.9111 82.4299 23.9111 81.926 22.9053C81.4321 22.5766 80.9382 22.248 80.4293 21.9094C80.275 21.5705 80.1206 21.2316 79.9616 20.8824C79.0354 19.4423 79.0354 19.4423 77.9738 18.5833C76.8096 17.6818 75.6284 16.8069 74.4425 15.9341C74.1049 15.6645 73.7673 15.3949 73.4194 15.1172C71.4237 13.5365 69.4603 12.3605 67.1032 11.3904C66.7264 11.2466 66.3495 11.1028 65.9612 10.9547C65.5844 10.8109 65.2075 10.6671 64.8192 10.519C62.3969 9.65496 60.0552 9.09651 57.4799 8.96293C52.5737 8.74729 48.2328 8.92098 43.5107 10.4568Z" fill="rgb(232,192,55)" fill-rule="nonzero" />
</svg>
