<svg viewBox="0 0 143 145" xmlns="http://www.w3.org/2000/svg" xmlns:xlink="http://www.w3.org/1999/xlink" width="143.000000" height="145.000000" fill="none" customFrame="#000000">
	<g id="组合 9">
		<path id="矢量 457" d="M32.4788 96.045C35.486 96.045 38.4932 96.045 41.5915 96.045C41.977 96.3528 42.3626 96.6605 42.7598 96.9775C43.1979 97.1951 43.1979 97.1951 43.636 97.3272C44.6973 97.6929 45.711 98.1448 46.732 98.6094C46.732 98.7632 46.732 98.9171 46.732 99.0756C46.8862 99.0756 47.0405 99.0756 47.1993 99.0756C47.2876 99.1778 47.3758 99.2799 47.4668 99.3852C48.13 100.148 48.7968 100.904 49.4912 101.638C49.6047 101.759 49.7181 101.88 49.835 102.004C50.0595 102.242 50.2852 102.479 50.5124 102.715C51.0381 103.274 51.4297 103.785 51.7831 104.469C51.8897 104.689 51.9964 104.91 52.1062 105.137C52.5999 105.738 53.1521 106.261 53.7418 106.769C53.9346 106.879 54.1274 106.99 54.326 107.104C54.9101 107.468 54.9101 107.468 55.3209 107.907C55.6039 108.236 55.8841 108.569 56.1606 108.904C56.5594 109.384 56.5594 109.384 57.2467 109.799C57.3238 110.261 57.4009 110.722 57.4804 111.198C57.6346 111.198 57.7888 111.198 57.9477 111.198C58.0272 111.325 58.1068 111.452 58.1887 111.583C58.8374 112.59 59.5097 113.497 60.3281 114.374C60.7805 114.865 61.1695 115.305 61.4937 115.888C61.6522 116.261 61.7892 116.643 61.9199 117.026C62.0838 117.141 62.2476 117.257 62.4165 117.375C63.2511 118.099 63.8784 118.907 64.4902 119.823C64.5676 119.986 64.645 120.148 64.7248 120.316C64.8016 120.461 64.8784 120.606 64.9575 120.756C65.2978 121.026 65.6383 121.296 65.9798 121.564C66.4137 121.972 66.6882 122.392 67.002 122.897C67.5666 123.795 68.2049 124.483 68.9735 125.214C70.0178 126.217 70.0178 126.217 70.4038 126.86C70.5946 127.312 70.5946 127.312 70.799 127.982C71.493 127.982 72.187 127.982 72.902 127.982C73.0706 127.699 73.2393 127.415 73.4131 127.123C73.9415 126.283 74.4975 125.621 75.2386 124.952C75.372 124.848 75.5054 124.743 75.6429 124.636C76.0782 124.29 76.4849 123.95 76.8742 123.553C77.3908 122.739 77.7379 121.901 78.0425 120.989C78.1967 120.989 78.3509 120.989 78.5098 120.989C78.5725 120.859 78.6351 120.729 78.6997 120.595C79.0037 120.005 79.3116 119.446 79.6781 118.891C80.0623 118.497 80.4524 118.109 80.8464 117.725C81.5047 117.007 82.1222 116.31 82.6135 115.467C82.7797 115.2 82.7797 115.2 82.9493 114.928C83.4835 114.463 84.0277 114.056 84.6142 113.66C85.0847 113.303 85.0847 113.303 85.432 112.742C85.761 112.146 85.761 112.146 85.9723 111.547C86.2206 110.965 86.2206 110.965 86.5857 110.411C87.2515 109.696 87.9794 109.134 88.7626 108.552C89.2015 108.211 89.5902 107.882 89.9592 107.468C90.0363 107.276 90.1134 107.083 90.1928 106.885C90.2699 106.693 90.347 106.5 90.4265 106.302C90.6551 106.064 90.8891 105.831 91.1274 105.603C91.2238 105.425 91.3202 105.247 91.4195 105.064C91.799 104.482 92.1227 104.151 92.6462 103.709C92.7836 103.598 92.9209 103.486 93.0624 103.372C93.4557 103.046 93.8161 102.712 94.165 102.339C94.2662 102.166 94.3674 101.993 94.4717 101.815C94.9858 100.979 95.6157 100.273 96.268 99.5418C96.6367 99.4481 96.6366 99.4481 97.0128 99.3524C97.824 99.1003 98.3607 98.8213 99.0719 98.3762C99.4661 98.1381 99.8604 97.9001 100.255 97.6623C100.45 97.5442 100.646 97.4261 100.847 97.3044C101.341 97.0171 101.822 96.7434 102.343 96.5113C105.196 96.0205 108.317 96.1671 111.19 96.4002C112.121 96.5412 112.932 96.8121 113.795 97.1797C114.26 97.4438 114.26 97.4438 114.673 97.8244C114.816 97.9822 114.816 97.9822 114.961 98.1431C114.961 98.297 114.961 98.4508 114.961 98.6094C115.578 98.6094 116.195 98.6094 116.83 98.6094C116.83 98.7632 116.83 98.9171 116.83 99.0756C117.018 99.1513 117.018 99.1513 117.21 99.2286C118.26 99.8211 119.084 100.723 119.918 101.583C120.345 102.052 120.623 102.438 120.935 103.001C121.167 103.607 121.167 103.607 121.329 104.145C121.488 104.697 121.488 104.697 121.857 105.227C122.204 105.836 122.204 105.836 122.375 106.526C122.882 110.309 122.807 114.164 122.438 117.958C122.091 118.535 122.091 118.535 121.737 119.124C121.583 119.201 121.428 119.278 121.27 119.357C121.111 119.624 121.111 119.624 120.948 119.896C120.677 120.345 120.393 120.786 120.101 121.222C119.937 121.685 119.78 122.151 119.634 122.621C119.48 122.621 119.326 122.621 119.167 122.621C118.811 123.305 118.512 124 118.232 124.719C117.846 124.949 117.461 125.18 117.064 125.418C116.987 125.572 116.91 125.726 116.83 125.884C116.584 125.976 116.339 126.067 116.085 126.161C115.631 126.345 115.631 126.345 115.194 126.584C114.522 127.176 114.522 127.176 114.026 127.749C113.872 127.749 113.718 127.749 113.559 127.749C113.535 127.874 113.511 127.999 113.486 128.128C113.283 128.827 112.962 129.437 112.624 130.08C112.446 130.181 112.268 130.282 112.084 130.386C111.554 130.718 111.171 131.02 110.755 131.479C110.601 131.479 110.446 131.479 110.288 131.479C110.21 131.787 110.133 132.095 110.054 132.412C109.672 132.731 109.281 133.041 108.886 133.344C108.185 133.577 108.185 133.577 107.401 133.6C107.105 133.597 106.81 133.595 106.505 133.592C106.208 133.59 105.911 133.588 105.604 133.585C105.262 133.581 105.262 133.581 104.913 133.577C102.194 131.194 102.194 131.194 101.414 130.179C101.161 129.768 100.93 129.343 100.708 128.915C100.708 128.146 100.708 127.376 100.708 126.584C101.585 124.91 102.549 123.618 103.847 122.256C104.305 121.822 104.765 121.42 105.249 121.018C105.82 120.539 106.308 120.047 106.783 119.473C107.373 118.761 108.014 118.178 108.727 117.59C109.281 117.122 109.782 116.613 110.288 116.093C110.666 115.253 110.982 114.419 111.222 113.529C111.297 112.513 111.281 111.515 111.222 110.498C110.76 109.96 110.297 109.421 109.82 108.867C109.049 108.559 108.278 108.251 107.484 107.934C106.327 108.05 106.327 108.05 105.147 108.167C103.465 109.269 103.465 109.269 101.876 110.498C101.644 110.498 101.413 110.498 101.175 110.498C101.098 110.96 101.021 111.422 100.941 111.897C100.831 112.035 100.721 112.173 100.608 112.315C99.4723 113.753 98.6015 115.102 97.9036 116.793C97.7387 116.924 97.7387 116.924 97.5704 117.058C97.425 117.177 97.2795 117.296 97.1296 117.419C96.9141 117.594 96.9141 117.594 96.6942 117.772C96.2409 118.183 96.2409 118.183 95.9294 118.757C95.4077 119.621 94.6978 120.234 93.9679 120.923C93.4604 121.459 93.1198 121.978 92.7631 122.621C92.3396 123.32 92.3396 123.32 91.8284 124.019C91.4868 124.301 91.1448 124.582 90.7961 124.855C90.0871 125.488 89.5578 126.269 89.0245 127.05C88.8944 127.266 88.7643 127.483 88.6302 127.706C88.3387 128.19 88.0409 128.537 87.6226 128.915C87.4683 129.376 87.3141 129.838 87.1552 130.314C86.8931 130.581 86.63 130.848 86.3666 131.115C86.2202 131.264 86.0739 131.412 85.923 131.566C85.5196 131.945 85.5196 131.945 85.0523 132.178C84.1361 133.763 84.1361 133.763 83.4167 135.442C83.0311 135.75 82.6456 136.058 82.2484 136.375C82.0941 136.375 81.9399 136.375 81.781 136.375C81.6952 136.571 81.6952 136.571 81.6076 136.772C81.2602 137.405 80.8369 137.881 80.3499 138.414C80.1806 138.601 80.0113 138.787 79.8369 138.979C79.7074 139.12 79.5779 139.26 79.4444 139.405C79.136 139.482 78.8276 139.559 78.5098 139.638C78.3556 140.177 78.2014 140.715 78.0425 141.27C77.8112 141.347 77.5798 141.424 77.3415 141.503C77.262 141.691 77.262 141.691 77.1809 141.882C76.7728 142.619 76.2572 143.197 75.7059 143.834C75.089 143.911 74.4722 143.988 73.8366 144.068C73.8366 144.221 73.8366 144.375 73.8366 144.534C73.6824 144.534 73.5282 144.534 73.3693 144.534C73.3693 144.688 73.3693 144.842 73.3693 145C72.1356 145 70.9018 145 69.6307 145C68.9545 144.325 68.3511 143.621 67.7414 142.887C67.2255 142.329 67.2255 142.329 66.1258 141.736C65.5861 140.967 65.0463 140.198 64.4902 139.405C64.336 139.328 64.1818 139.251 64.0229 139.172C63.7144 138.557 63.406 137.941 63.0882 137.307C63.0882 137.153 63.0882 136.999 63.0882 136.841C62.934 136.841 62.7798 136.841 62.6209 136.841C62.4402 136.581 62.4402 136.581 62.2558 136.316C61.7484 135.691 61.7484 135.691 61.26 135.39C60.8619 135.165 60.4567 134.953 60.0507 134.743C60.0073 134.584 59.9639 134.425 59.9192 134.262C59.629 133.587 59.629 133.587 59.2045 133.169C58.918 132.893 58.6281 132.621 58.3347 132.352C57.9477 131.945 57.9477 131.945 57.6629 131.429C57.6027 131.292 57.5425 131.154 57.4804 131.013C57.3262 130.936 57.172 130.859 57.0131 130.78C56.9311 130.616 56.8492 130.453 56.7648 130.284C56.36 129.685 56.0439 129.362 55.4943 128.915C54.9948 128.503 54.649 128.177 54.2676 127.647C53.9755 127.05 53.9755 127.05 53.6935 126.286C53.4918 125.814 53.2936 125.442 52.97 125.042C52.6183 124.68 52.2575 124.333 51.8872 123.99C51.0363 123.184 50.2489 122.391 49.5359 121.455C49.3817 121.378 49.2275 121.301 49.0686 121.222C48.9144 120.76 48.7602 120.299 48.6013 119.823C48.37 119.592 48.1387 119.362 47.9003 119.124C47.9003 118.97 47.9003 118.816 47.9003 118.658C47.4377 118.542 47.4377 118.542 46.9657 118.424C46.503 117.886 46.0404 117.347 45.5637 116.793C45.4866 116.408 45.4095 116.023 45.3301 115.627C45.1758 115.627 45.0216 115.627 44.8627 115.627C44.7953 115.444 44.7278 115.262 44.6583 115.073C44.5715 114.871 44.4848 114.67 44.3954 114.461C44.2412 114.308 44.087 114.154 43.9281 113.995C43.8606 113.822 43.7932 113.649 43.7236 113.471C43.4146 112.717 42.9921 112.097 42.5261 111.431C42.3671 111.349 42.2081 111.267 42.0442 111.183C41.1514 110.596 40.4566 109.87 39.7222 109.1C39.7222 108.869 39.7222 108.638 39.7222 108.4C39.1054 108.323 38.4885 108.246 37.8529 108.167C37.506 107.936 37.506 107.936 37.152 107.701C36.6122 107.701 36.0724 107.701 35.5163 107.701C35.285 107.932 35.0537 108.163 34.8154 108.4C34.237 108.516 34.237 108.516 33.6471 108.633C33.57 108.864 33.4928 109.095 33.4134 109.333C33.2592 109.333 33.105 109.333 32.9461 109.333C32.9398 110.008 32.9351 110.683 32.9315 111.358C32.9285 111.644 32.9285 111.644 32.9255 111.935C32.9217 112.887 32.939 113.766 33.1797 114.695C33.334 114.695 33.4882 114.695 33.6471 114.695C33.7242 115.079 33.8013 115.464 33.8807 115.86C34.0084 115.909 34.1361 115.958 34.2677 116.008C34.8154 116.326 34.8154 116.326 35.436 116.951C35.6589 117.198 35.8804 117.446 36.1005 117.696C36.8222 118.502 37.5445 119.301 38.3203 120.056C38.3203 120.441 38.3203 120.826 38.3203 121.222C38.5733 121.308 38.5733 121.308 38.8314 121.397C39.5484 121.715 40.0463 122.133 40.6569 122.621C40.946 122.729 40.946 122.729 41.241 122.839C41.4338 122.921 41.6266 123.003 41.8252 123.087C42.4823 123.699 42.4823 123.699 42.9935 124.252C43.349 125.245 43.668 126.201 43.741 127.257C43.7386 127.812 43.7263 128.362 43.6944 128.915C43.6228 129.051 43.5511 129.186 43.4772 129.326C43.1439 130.021 42.96 130.737 42.7598 131.479C42.5285 131.556 42.2972 131.633 42.0588 131.712C41.9046 132.02 41.7504 132.328 41.5915 132.645C41.2831 132.722 40.9746 132.799 40.6569 132.878C40.6569 133.032 40.6569 133.186 40.6569 133.344C40.5026 133.344 40.3484 133.344 40.1895 133.344C40.1895 133.498 40.1895 133.652 40.1895 133.81C40.0353 133.81 39.8811 133.81 39.7222 133.81C39.7222 134.041 39.7222 134.272 39.7222 134.51C38.1801 134.51 36.6379 134.51 35.049 134.51C34.8177 134.202 34.5864 133.894 34.348 133.577C34.1504 133.5 33.9529 133.423 33.7493 133.344C32.9461 132.878 32.9461 132.878 32.5217 132.441C32.247 132.119 31.9763 131.794 31.7102 131.465C31.3024 131.004 30.8796 130.665 30.3758 130.314C30.3276 130.15 30.2794 129.987 30.2298 129.818C29.9582 129.169 29.9582 129.169 29.59 128.8C29.3428 128.564 29.0949 128.329 28.8461 128.094C28.4014 127.642 28.1177 127.132 27.8056 126.584C27.4358 126.175 27.4358 126.175 27.1046 125.884C27.1046 125.73 27.1046 125.577 27.1046 125.418C26.8967 125.329 26.8967 125.329 26.6847 125.238C26.1699 124.952 26.1699 124.952 25.772 124.549C25.6527 124.403 25.5334 124.257 25.4105 124.107C25.2889 123.959 25.1672 123.812 25.0418 123.661C24.9514 123.548 24.8611 123.436 24.768 123.32C24.768 123.166 24.768 123.012 24.768 122.854C24.6138 122.854 24.4595 122.854 24.3007 122.854C22.7101 120.448 21.5285 118.028 20.3284 115.394C20.3284 112.932 20.3284 110.47 20.3284 107.934C20.6369 107.78 20.9453 107.626 21.2631 107.468C21.3402 106.852 21.4173 106.237 21.4967 105.603C21.8052 105.295 22.1136 104.987 22.4314 104.67C22.5856 104.209 22.7398 103.747 22.8987 103.272C23.0577 103.118 23.2168 102.964 23.3806 102.805C23.9111 102.279 24.399 101.726 24.8848 101.159C25.4977 100.452 26.1246 99.877 26.8709 99.3087C27.0637 99.1068 27.2565 98.9048 27.4551 98.6968C27.7442 98.4227 27.7442 98.4227 28.0392 98.1431C28.4248 97.9893 28.8103 97.8354 29.2075 97.6769C30.287 97.1384 31.3665 96.5999 32.4788 96.045Z" fill="rgb(232,192,55)" fill-rule="nonzero" />
		<path id="矢量 458" d="M140.196 58.5129C141.121 58.5129 142.047 58.5129 143 58.5129C143 60.513 143 62.5132 143 64.574C142.614 64.8817 142.229 65.1894 141.832 65.5064C141.73 65.7285 141.628 65.9506 141.523 66.1794C141.383 66.4748 141.242 66.7702 141.102 67.0654C141.002 67.2843 141.002 67.2843 140.901 67.5075C140.687 67.9499 140.469 68.3612 140.196 68.7701C139.74 69.172 139.273 69.5613 138.794 69.9357C138.462 70.3251 138.141 70.7237 137.83 71.1304C136.648 72.6078 135.317 73.8285 133.887 75.0643C133.542 75.3672 133.542 75.3672 133.19 75.6763C132.503 76.2161 131.857 76.5868 131.069 76.9584C130.186 77.3776 129.347 77.8201 128.513 78.328C128.048 78.5646 127.581 78.7986 127.111 79.0273C126.957 79.0273 126.803 79.0273 126.644 79.0273C126.644 79.2581 126.644 79.4889 126.644 79.7267C126.407 79.8027 126.17 79.8788 125.926 79.9571C125.611 80.0599 125.295 80.1628 124.979 80.2658C124.824 80.3155 124.668 80.3653 124.508 80.4165C124.354 80.4668 124.201 80.5172 124.042 80.569C123.903 80.6142 123.764 80.6594 123.62 80.7059C122.973 80.9566 122.358 81.2821 121.737 81.5917C120.503 81.5917 119.269 81.5917 117.998 81.5917C117.998 81.7455 117.998 81.8994 117.998 82.0579C117.127 82.1709 116.256 82.2821 115.384 82.393C115.142 82.4244 114.9 82.4558 114.651 82.4882C114.286 82.5344 114.286 82.5344 113.914 82.5815C113.695 82.6096 113.476 82.6377 113.25 82.6666C110.877 82.9169 108.519 83.0268 106.133 83.0477C105.53 83.0554 104.928 83.0631 104.326 83.071C103.388 83.0821 102.45 83.0926 101.512 83.1015C100.599 83.1104 99.6857 83.1228 98.7725 83.1352C98.4916 83.1371 98.2108 83.1391 97.9214 83.1411C97.6599 83.145 97.3985 83.1489 97.1291 83.1529C96.9001 83.1553 96.6711 83.1577 96.4352 83.1601C95.7911 83.1981 95.7911 83.198 95.1809 83.4492C94.9999 83.5286 94.8189 83.6079 94.6324 83.6897C94.3818 83.7522 94.1311 83.8147 93.873 83.8791C92.7829 84.2235 91.8504 84.6992 90.8938 85.3216C90.2902 85.846 90.2902 85.846 89.7255 86.4872C89.3856 86.8231 89.0447 87.1581 88.7032 87.4925C88.031 88.1609 87.3904 88.8402 86.7755 89.5614C86.1476 90.2937 85.4773 90.9017 84.7328 91.5129C84.1402 92.0349 83.6765 92.6322 83.183 93.2476C83.0625 93.363 82.942 93.4784 82.8179 93.5973C82.4316 93.9767 82.4317 93.9767 82.0439 94.6317C81.5474 95.3457 81.5474 95.3457 80.9778 95.8265C80.7802 95.9755 80.5827 96.1246 80.3791 96.2782C79.7462 96.8318 79.7462 96.8318 79.2108 97.4437C79.0422 97.8269 78.8852 98.2155 78.7435 98.6093C78.5196 98.9272 78.2885 99.2406 78.0425 99.5418C77.8883 99.5418 77.7341 99.5418 77.5752 99.5418C77.5222 99.6716 77.4691 99.8015 77.4145 99.9352C77.0205 100.628 76.5166 101.091 75.9395 101.64C75.1773 102.382 74.4956 103.137 73.8366 103.971C73.0821 103.985 72.3276 103.993 71.573 104C71.3599 104.004 71.1468 104.008 70.9273 104.012C70.3359 104.016 69.7534 104.012 69.1634 103.971C68.4524 103.755 68.4524 103.755 67.9951 103.505C67.6154 103.199 67.6154 103.199 67.2941 102.805C67.1977 102.631 67.1013 102.457 67.002 102.277C66.5251 101.534 65.9733 100.985 65.3372 100.372C64.6337 99.688 63.938 99.0106 63.3219 98.2451C62.8677 97.6365 62.8677 97.6365 62.1536 97.2106C62.019 96.969 62.019 96.969 61.8816 96.7225C61.3799 95.9302 60.8075 95.2396 60.1967 94.5298C60.0871 94.4002 59.9774 94.2707 59.8645 94.1373C59.1813 93.3371 58.4687 92.5836 57.7141 91.8489C57.4804 91.6158 57.2467 91.3827 57.0131 91.1495C57.0131 90.8418 57.0131 90.5341 57.0131 90.2171C56.7046 90.1401 56.3962 90.0632 56.0784 89.9839C55.7438 89.6349 55.4091 89.2858 55.0744 88.9367C54.6921 88.5668 54.6921 88.5668 54.2128 88.363C54.0574 88.2825 53.902 88.202 53.7418 88.119C53.3256 87.6983 53.3256 87.6983 52.924 87.2157C52.3638 86.5546 51.7983 85.9218 51.1716 85.3216C51.0945 85.0908 51.0174 84.86 50.9379 84.6222C50.1668 84.4683 49.3957 84.3145 48.6013 84.156C48.4471 84.0021 48.2929 83.8483 48.134 83.6897C45.33 83.4129 42.5228 83.3874 39.7076 83.34C36.9891 83.2938 34.272 83.2459 31.556 83.1151C31.3718 83.1065 31.1876 83.098 30.9978 83.0891C29.2961 83.0005 27.6195 82.7862 25.9363 82.5241C25.5893 82.2933 25.5893 82.2933 25.2353 82.0579C23.8474 81.981 22.4594 81.904 21.0294 81.8248C20.6439 81.5171 20.2583 81.2093 19.8611 80.8923C19.09 80.8154 18.319 80.7384 17.5245 80.6592C17.2161 80.4284 16.9076 80.1976 16.5899 79.9598C16.2028 79.7228 15.8139 79.4888 15.4216 79.2605C15.2674 78.9528 15.1131 78.645 14.9542 78.328C14.4916 78.328 14.0289 78.328 13.5523 78.328C13.321 78.0972 13.321 78.0972 13.085 77.8618C12.8118 77.7752 12.5386 77.6887 12.2571 77.5995C11.7146 77.3957 11.2537 77.1883 10.7743 76.8619C10.3398 76.5075 9.92174 76.1409 9.50705 75.7637C9.35749 75.6311 9.20791 75.4985 9.05382 75.3619C7.69778 74.1483 6.4046 72.8759 5.14052 71.5675C5.14052 71.029 5.14052 70.4905 5.14052 69.9357C4.83209 69.7818 4.52366 69.628 4.20588 69.4695C4.05167 69.1618 3.89745 68.854 3.73856 68.537C3.58435 68.537 3.43013 68.537 3.27124 68.537C3.27124 68.2293 3.27124 67.9216 3.27124 67.6045C2.96281 67.4507 2.65438 67.2968 2.3366 67.1383C1.98831 66.675 1.67986 66.2454 1.40196 65.7396C1.19943 65.1201 1.06734 64.5146 0.934641 63.8746C0.626207 63.49 0.317774 63.1053 0 62.709C0 61.8628 0 61.0166 0 60.1447C0.771076 60.1447 1.54215 60.1447 2.3366 60.1447C3.03057 60.5294 3.72454 60.914 4.43954 61.3103C4.43954 61.4642 4.43954 61.618 4.43954 61.7765C4.57357 61.84 4.70762 61.9034 4.84571 61.9687C5.37956 62.2456 5.85772 62.5576 6.35263 62.8984C7.39474 63.6013 8.47114 64.216 9.58007 64.8071C9.69573 65.1533 9.69573 65.1533 9.81373 65.5064C9.95529 65.5575 10.0969 65.6086 10.2427 65.6613C11.7655 66.2362 13.1158 66.9645 14.4869 67.8376C14.564 68.0684 14.6411 68.2992 14.7206 68.537C14.904 68.5794 15.0875 68.6217 15.2764 68.6654C17.5283 69.2029 17.5283 69.2029 18.4007 69.6006C19.2719 69.985 20.102 70.1909 21.0294 70.4019C21.0294 70.5558 21.0294 70.7097 21.0294 70.8682C25.0776 71.099 25.0776 71.099 29.2075 71.3344C29.2075 71.4883 29.2075 71.6421 29.2075 71.8007C29.3777 71.7843 29.5478 71.7679 29.7231 71.751C31.9779 71.5541 34.2173 71.5294 36.4793 71.5284C36.8802 71.5276 37.2811 71.5268 37.682 71.526C38.516 71.5246 39.35 71.5242 40.184 71.5243C41.2507 71.5244 42.3173 71.5212 43.3839 71.5172C44.2092 71.5146 45.0344 71.5141 45.8597 71.5142C46.2531 71.514 46.6465 71.5129 47.0399 71.5111C47.5888 71.5088 48.1377 71.5095 48.6866 71.5109C48.8472 71.5096 49.0078 71.5083 49.1733 71.5069C49.9321 71.5119 50.5516 71.5911 51.2831 71.8042C51.4776 71.88 51.6721 71.9557 51.8726 72.0338C51.8726 72.1876 51.8726 72.3415 51.8726 72.5C53.047 72.8662 54.1534 73.0708 55.3775 73.1994C55.5461 73.3436 55.7148 73.4879 55.8886 73.6365C56.5159 74.1483 56.5159 74.1483 57.2029 74.4232C57.3716 74.4809 57.5403 74.5386 57.7141 74.5981C57.7912 74.8289 57.8683 75.0597 57.9477 75.2974C58.0778 75.3503 58.208 75.4032 58.342 75.4577C58.8824 75.7637 58.8824 75.7637 59.4665 76.2736C59.9927 76.8643 60.3424 77.4306 60.716 78.1222C61.2406 78.9773 61.9469 79.6872 62.6209 80.4261C62.8989 80.7462 63.1764 81.0667 63.4533 81.3877C63.9541 81.9614 64.4674 82.5057 65.0159 83.0341C65.6585 83.6897 65.6585 83.6897 65.9706 84.2488C66.3405 84.8861 66.3405 84.8861 66.9491 85.3789C67.169 85.5475 67.3889 85.7161 67.6154 85.8898C68.5766 86.6493 69.3678 87.3724 70.098 88.3521C70.9462 88.3521 71.7944 88.3521 72.6683 88.3521C73.0153 87.429 73.0153 87.429 73.3693 86.4872C73.8319 86.2564 74.2946 86.0256 74.7712 85.7878C74.9108 85.598 74.9108 85.598 75.0533 85.4044C75.1771 85.2376 75.3009 85.0709 75.4284 84.899C75.5504 84.7341 75.6724 84.5691 75.7981 84.3991C76.135 83.9714 76.4809 83.5989 76.8742 83.2235C77.0573 83.0408 77.2404 82.8581 77.4291 82.6698C77.8357 82.2642 78.2495 81.8658 78.6704 81.4751C78.8488 81.2828 79.0271 81.0904 79.2108 80.8923C79.2704 80.7189 79.3301 80.5455 79.3915 80.3669C79.6781 79.7267 79.6781 79.7267 79.9661 79.3712C80.3269 78.9836 80.6936 78.6031 81.0655 78.226C81.8004 77.4805 82.4117 76.8235 82.9211 75.9012C83.0075 75.702 83.0939 75.5027 83.183 75.2974C83.4288 75.2061 83.6746 75.1147 83.9278 75.0206C84.3839 74.8344 84.3839 74.8344 84.8186 74.5981C85.4466 74.0299 85.4466 74.0299 85.9869 73.4325C86.4205 73.0692 86.4205 73.0692 86.9216 72.7331C88.4159 72.1446 90.0189 71.8519 91.5948 71.5675C91.749 71.3368 91.9032 71.106 92.0621 70.8682C93.53 70.6528 94.9597 70.5976 96.4423 70.5959C96.7965 70.5947 96.7965 70.5947 97.1578 70.5936C97.6549 70.5924 98.1519 70.5918 98.6489 70.5919C99.4047 70.5914 100.16 70.5871 100.916 70.5827C101.401 70.582 101.886 70.5816 102.371 70.5813C102.595 70.5797 102.818 70.578 103.049 70.5763C104.267 70.5804 105.348 70.7033 106.529 70.9963C107.274 71.1568 107.996 71.1534 108.755 71.1468C108.984 71.1458 108.984 71.1458 109.218 71.1448C109.696 71.1423 110.174 71.1364 110.653 71.1304C110.981 71.1281 111.309 71.126 111.637 71.1241C112.433 71.1186 113.23 71.111 114.026 71.1013C114.18 70.9474 114.335 70.7936 114.493 70.6351C114.685 70.6329 114.877 70.6307 115.075 70.6285C115.799 70.6181 116.523 70.6037 117.247 70.5867C117.71 70.577 118.172 70.5718 118.635 70.5668C119.788 70.5376 120.885 70.5036 122.004 70.208C122.628 69.9837 123.233 69.7376 123.84 69.4695C124.151 69.3449 124.462 69.2207 124.774 69.097C125.039 68.9843 125.304 68.8716 125.578 68.7555C125.982 68.5856 125.982 68.5856 126.395 68.4122C127.022 68.1133 127.504 67.7975 128.046 67.3714C128.243 67.2945 128.441 67.2175 128.645 67.1383C128.832 67.0613 129.02 66.9844 129.214 66.9052C129.33 66.7898 129.445 66.6744 129.565 66.5555C129.68 66.4401 129.796 66.3247 129.915 66.2058C130.098 66.1385 130.281 66.0712 130.47 66.0018C130.672 65.9153 130.875 65.8287 131.083 65.7396C131.731 65.152 131.731 65.152 132.252 64.574C132.406 64.574 132.56 64.574 132.719 64.574C132.873 64.2663 133.027 63.9585 133.186 63.6415C133.495 63.5646 133.803 63.4876 134.121 63.4084C134.198 63.2545 134.275 63.1007 134.355 62.9421C134.933 62.8267 134.933 62.8267 135.523 62.709C135.614 62.4999 135.614 62.4999 135.707 62.2865C135.99 61.7765 135.99 61.7765 136.361 61.4123C136.499 61.3017 136.637 61.1911 136.779 61.0772C137.256 60.6876 137.684 60.3166 138.108 59.8679C138.56 59.4454 138.56 59.4454 139.305 59.052C139.631 58.9005 139.631 58.9005 139.962 58.746C140.04 58.6691 140.117 58.5921 140.196 58.5129Z" fill="rgb(232,192,55)" fill-rule="nonzero" />
		<path id="矢量 459" d="M64.9575 0C67.8876 0 70.8177 0 73.8366 0C75.5501 0.85477 77.2636 1.70954 78.9771 2.56431C78.9771 2.71817 78.9771 2.87203 78.9771 3.03055C79.1072 3.08824 79.2373 3.14594 79.3714 3.20539C80.02 3.55516 80.5255 3.94184 81.08 4.42926C81.5895 4.9452 82.0573 5.47328 82.482 6.06109C82.7522 6.59592 82.9634 7.13419 83.183 7.69293C83.3372 7.84678 83.4914 8.00064 83.6503 8.15916C83.7274 8.62074 83.8045 9.08231 83.884 9.55788C84.1924 9.63481 84.5008 9.71174 84.8186 9.791C84.8957 9.86793 84.9728 9.94485 85.0523 10.0241C85.0637 10.2771 85.0751 10.5302 85.0869 10.7909C85.1045 11.1278 85.1221 11.4647 85.1399 11.8016C85.1507 12.0509 85.1507 12.0509 85.1618 12.3052C85.1886 12.7919 85.2218 13.2707 85.2859 13.754C85.4043 14.075 85.4043 14.075 85.5251 14.4024C85.81 15.3392 85.8144 16.1843 85.818 17.1593C85.8159 17.4107 85.8138 17.6621 85.8117 17.921C85.8107 18.1788 85.8098 18.4366 85.8089 18.7023C85.7876 20.7352 85.6214 22.7055 85.2859 24.7106C84.9775 25.0953 84.6691 25.4799 84.3513 25.8762C84.3272 26.1214 84.3031 26.3666 84.2783 26.6193C84.1987 27.0592 84.1987 27.0592 84.1176 27.508C84.0068 27.6907 83.8959 27.8735 83.7817 28.0617C83.4007 28.6393 83.4007 28.6393 83.267 29.2118C83.1534 29.7306 83.0462 30.2495 82.9493 30.7717C82.5638 30.8486 82.1782 30.9256 81.781 31.0048C81.6268 31.3125 81.4726 31.6203 81.3137 31.9373C81.1595 32.0142 81.0053 32.0912 80.8464 32.1704C80.7702 32.3811 80.694 32.5917 80.6155 32.8088C80.5134 33.0837 80.4112 33.3587 80.306 33.642C80.2057 33.9151 80.1054 34.1883 80.0021 34.4697C79.8952 34.711 79.7882 34.9523 79.6781 35.201C79.2883 35.6481 79.2883 35.6481 78.9771 35.9003C78.9346 36.0328 78.8922 36.1654 78.8484 36.3019C78.3296 37.8918 77.7709 39.3725 76.8742 40.7958C76.797 40.9497 76.7199 41.1035 76.6405 41.2621C76.4863 41.2621 76.3321 41.2621 76.1732 41.2621C76.1334 41.4397 76.0937 41.6173 76.0527 41.8002C75.7819 42.9514 75.5127 44.0512 75.0049 45.1231C74.4576 46.2862 74.0905 47.4619 73.8366 48.7219C73.7605 49.4507 73.7073 50.1744 73.675 50.9064C73.6029 51.5193 73.6029 51.5193 73.3629 52.0666C73.2879 52.1937 73.2129 52.3208 73.1356 52.4518C72.9814 52.4518 72.8272 52.4518 72.6683 52.4518C72.6737 52.6738 72.6791 52.8959 72.6847 53.1247C72.6889 53.4171 72.6931 53.7095 72.6975 54.0107C72.7029 54.3001 72.7083 54.5895 72.7139 54.8877C72.6683 55.7154 72.6683 55.7154 72.4474 56.3902C72.3661 56.5522 72.2847 56.7141 72.201 56.881C72.1238 56.958 72.0467 57.0349 71.9673 57.1141C71.8902 59.6528 71.8131 62.1915 71.7336 64.8071C71.2663 65.2733 70.799 65.7395 70.3317 66.2058C69.7148 66.2058 69.0979 66.2058 68.4624 66.2058C68.154 65.8211 67.8455 65.4365 67.5277 65.0402C67.5277 64.8863 67.5277 64.7325 67.5277 64.574C67.3735 64.574 67.2193 64.574 67.0604 64.574C67.0207 64.387 66.9809 64.2001 66.9399 64.0075C66.4484 61.7067 65.9388 59.4101 65.4248 57.1141C65.2706 57.1141 65.1164 57.1141 64.9575 57.1141C64.9575 52.4215 64.9575 47.7288 64.9575 42.8939C65.1117 42.8939 65.2659 42.8939 65.4248 42.8939C65.4248 42.4323 65.4248 41.9707 65.4248 41.4952C65.579 41.4952 65.7332 41.4952 65.8921 41.4952C65.8954 41.3452 65.8988 41.1953 65.9022 41.0408C65.9553 40.0372 66.0583 39.1338 66.3768 38.176C66.5809 37.6653 66.7875 37.1557 66.9965 36.647C67.62 35.0824 68.0117 33.5146 68.1839 31.8421C68.2701 30.6798 68.2718 29.5181 68.2725 28.3531C68.2754 28.1061 68.2783 27.8591 68.2812 27.6046C68.2842 25.9688 68.113 24.4432 67.7614 22.8457C67.453 22.7687 67.1445 22.6918 66.8268 22.6125C66.2079 21.8673 65.6725 21.1218 65.1911 20.2813C64.5965 19.8242 63.9983 19.4423 63.3219 19.1158C62.6091 18.9542 61.9031 18.8532 61.1788 18.757C60.3168 18.6168 59.6707 18.3203 58.8823 17.9502C58.3406 17.7761 57.7971 17.6296 57.2467 17.4839C56.5527 16.8685 55.8588 16.2531 55.1438 15.619C55.0763 15.4074 55.0088 15.1959 54.9393 14.9779C54.7313 14.3783 54.5094 13.8441 54.2091 13.2878C54.0549 13.2878 53.9007 13.2878 53.7418 13.2878C53.6689 12.1191 53.62 10.9571 53.7418 9.791C54.0166 8.71497 54.3998 7.74639 54.9101 6.76045C55.3421 6.05895 55.8781 5.54047 56.4937 4.99111C56.805 4.71987 57.1181 4.45067 57.4329 4.18339C58.3483 3.37696 59.1964 2.50185 60.0506 1.63183C60.6675 1.47797 61.2844 1.32412 61.9199 1.16559C62.0741 1.01174 62.2283 0.857878 62.3872 0.699357C62.5336 0.668405 62.68 0.637453 62.8308 0.605563C63.0218 0.564394 63.2127 0.523225 63.4095 0.480808C63.5992 0.44024 63.789 0.399672 63.9845 0.357874C64.4971 0.250998 64.4971 0.250998 64.9575 0Z" fill="rgb(232,192,55)" fill-rule="nonzero" />
	</g>
</svg>
