<svg viewBox="0 0 149 111" xmlns="http://www.w3.org/2000/svg" xmlns:xlink="http://www.w3.org/1999/xlink" width="149.000000" height="111.000000" fill="none" customFrame="#000000">
	<g id="组合 1">
		<path id="矢量 22" d="M41.6599 99.6943C62.9628 99.6943 84.2656 99.6943 106.214 99.6943C106.214 99.9596 106.214 100.225 106.214 100.498C106.439 100.548 106.663 100.598 106.894 100.649C107.165 100.732 107.436 100.815 107.715 100.9C108.087 101.166 108.458 101.431 108.841 101.704C108.841 103.827 108.841 105.949 108.841 108.136C108.47 108.799 108.098 109.463 107.715 110.146C107.468 110.279 107.22 110.411 106.965 110.548C103.357 111.035 99.7178 111.006 96.0882 110.996C95.5032 110.996 94.9183 110.996 94.3333 110.996C92.7611 110.996 91.1888 110.994 89.6165 110.991C87.9676 110.988 86.3186 110.988 84.6697 110.988C81.5542 110.986 78.4386 110.983 75.3231 110.979C71.7733 110.975 68.2234 110.972 64.6735 110.97C57.3776 110.966 50.0817 110.959 42.7858 110.95C42.2904 110.42 41.795 109.889 41.2846 109.342C40.7892 109.21 40.2938 109.077 39.7833 108.94C39.7833 106.818 39.7833 104.695 39.7833 102.508C40.031 101.978 40.2787 101.447 40.534 100.9C40.9055 100.502 41.2771 100.104 41.6599 99.6943Z" fill="rgb(232,192,55)" fill-rule="nonzero" />
		<path id="矢量 21" d="M75.1333 5.54929e-05C75.7489 0.000152655 75.7489 0.000152655 76.3768 0.000251778C79.2501 0.0434586 81.7858 0.417432 84.5235 1.32852C85.4139 1.69399 86.2461 2.05609 87.0731 2.56276C87.7152 3.21441 88.3388 3.88735 88.9496 4.57273C89.1456 4.76964 89.3415 4.96656 89.5434 5.16944C90.402 6.03764 91.1119 6.82331 91.7176 7.9143C91.998 9.20607 92.0567 10.3843 92.0181 11.7081C91.9521 12.6126 91.9521 12.6126 91.741 13.9693C90.938 16.1383 89.9284 18.0175 88.5743 19.8485C87.5553 20.8475 86.5112 21.7512 85.4032 22.6342C84.4184 23.4902 83.6995 24.3894 82.9446 25.4764C82.0157 25.8744 82.0157 25.8744 81.068 26.2804C80.8203 26.9437 80.5726 27.607 80.3174 28.2903C79.9768 28.4064 79.6362 28.5225 79.2853 28.6421C78.3199 29 77.4599 29.3817 76.5642 29.8983C76.5642 30.1636 76.5642 30.4289 76.5642 30.7023C76.0688 30.835 75.5734 30.9676 75.063 31.1043C74.9391 31.6349 74.8153 32.1656 74.6877 32.7123C74.3161 33.1102 73.9445 33.5082 73.5617 33.9182C73.314 33.9182 73.0663 33.9182 72.8111 33.9182C72.9108 36.8321 72.9108 36.8321 73.4488 39.6749C73.7682 40.5017 73.7682 40.5017 74.3123 41.5561C74.4362 41.6888 74.5601 41.8214 74.6877 41.9581C75.0362 41.9804 75.3847 42.0026 75.7438 42.0255C77.035 42.1088 78.3262 42.1936 79.6173 42.2795C80.1765 42.3164 80.7357 42.3527 81.2949 42.3883C82.098 42.4395 82.901 42.493 83.704 42.547C84.4293 42.5943 84.4293 42.5943 85.1692 42.6427C85.5497 42.6821 85.9303 42.7215 86.3224 42.7621C86.5701 42.8948 86.8178 43.0274 87.0731 43.1641C87.7834 43.2368 88.4954 43.2931 89.2076 43.34C90.9723 43.484 92.5136 43.7893 94.204 44.3701C95.3266 44.6551 96.4536 44.9165 97.5819 45.1741C97.7057 45.3067 97.8296 45.4394 97.9572 45.5761C99.0719 45.7087 100.187 45.8414 101.335 45.9781C101.892 45.7791 101.892 45.7791 102.461 45.5761C102.585 46.1067 102.709 46.6373 102.836 47.184C103.332 47.3167 103.827 47.4493 104.338 47.586C104.338 47.8513 104.338 48.1167 104.338 48.39C104.654 48.4724 104.97 48.5548 105.296 48.6397C105.708 48.748 106.119 48.8563 106.543 48.9679C106.952 49.0751 107.361 49.1824 107.783 49.2929C108.841 49.596 108.841 49.596 109.592 49.998C109.716 50.396 109.84 50.7939 109.967 51.204C110.331 51.3532 110.695 51.5024 111.07 51.6562C112.851 52.4653 114.394 53.6373 115.972 54.8219C115.972 55.0872 115.972 55.3525 115.972 55.6259C117.087 55.8912 118.202 56.1565 119.35 56.4299C119.664 56.803 119.664 56.803 119.983 57.1836C120.27 57.4655 120.556 57.7474 120.851 58.0379C121.143 58.1586 121.434 58.2793 121.734 58.4037C122.827 58.8854 123.574 59.4736 124.487 60.2739C124.811 60.5579 125.136 60.8419 125.47 61.1345C126.798 62.3473 128.086 63.6034 129.362 64.8796C130.208 65.6975 130.208 65.6975 131.171 66.2709C133.005 67.4628 134.414 69.2269 135.864 70.9016C136.771 72.0591 137.656 73.2293 138.525 74.4191C139.234 75.398 139.234 75.398 140.368 76.1276C140.554 76.567 140.739 77.0064 140.931 77.4592C141.618 78.9439 142.444 80.228 143.37 81.5545C144.889 83.7411 145.988 85.8271 146.842 88.3884C146.935 88.72 147.028 89.0516 147.123 89.3933C147.495 89.3933 147.867 89.3933 148.249 89.3933C148.497 89.924 148.745 90.4546 149 91.0013C149 93.1238 149 95.2464 149 97.4332C148.133 98.2291 147.266 99.0251 146.373 99.8452C145.258 99.8452 144.143 99.8452 142.995 99.8452C140.344 96.9301 140.344 96.9301 139.512 95.2662C139.274 94.6631 139.043 94.057 138.82 93.4478C138.348 92.243 137.7 91.2562 136.99 90.1973C136.99 89.932 136.99 89.6667 136.99 89.3933C136.742 89.3933 136.495 89.3933 136.239 89.3933C135.62 87.8014 135.001 86.2095 134.363 84.5694C133.867 84.3041 133.372 84.0388 132.861 83.7654C132.73 83.4835 132.598 83.2016 132.463 82.9112C131.687 81.6783 130.878 80.9424 129.815 80.0109C129.081 79.3181 128.471 78.5868 127.842 77.7858C126.405 75.9772 124.788 74.4491 123.103 72.9116C122.889 72.7116 122.675 72.5116 122.454 72.3055C121.623 71.5417 120.818 70.8812 119.866 70.2987C119.425 70.0002 119.425 70.0002 118.975 69.6957C118.643 69.2238 118.643 69.2238 118.305 68.7425C117.517 67.6435 117.517 67.6435 116.434 66.9304C116.057 66.707 115.68 66.4837 115.292 66.2536C114.894 66.0147 114.497 65.7758 114.087 65.5297C113.718 65.3126 113.35 65.0954 112.97 64.8717C112.477 64.5714 111.984 64.2701 111.492 63.9673C111.113 63.7351 110.733 63.503 110.343 63.2638C110.017 63.0482 109.692 62.8326 109.357 62.6105C108.496 62.0441 108.496 62.0441 107.626 61.706C106.417 61.1786 105.284 60.5431 104.126 59.8971C100.1 57.709 96.0023 56.5515 91.5768 55.6259C91.453 55.4932 91.3291 55.3606 91.2015 55.2239C90.9969 55.1752 90.7922 55.1265 90.5814 55.0763C90.1568 54.9752 90.1568 54.9752 89.7237 54.8722C89.4136 54.7991 89.1035 54.726 88.784 54.6507C88.1855 54.5069 87.5881 54.3581 86.9924 54.2016C84.7735 53.6301 82.5931 53.3991 80.3174 53.2139C80.3174 54.5405 80.3174 55.8671 80.3174 57.2339C80.0697 57.2339 79.822 57.2339 79.5667 57.2339C79.1952 58.8258 79.1952 58.8258 78.8161 60.4498C77.8803 61.735 76.9131 62.9394 75.8136 64.0677C74.6091 64.8699 73.3577 65.47 72.0605 66.0777C71.4294 66.4697 70.8002 66.8656 70.1839 67.2837C69.8123 67.2837 69.4408 67.2837 69.0579 67.2837C69.0579 67.6817 69.0579 68.0796 69.0579 68.4897C66.8289 69.4975 64.6657 70.3391 62.3023 70.9016C62.1784 71.2996 62.0546 71.6976 61.927 72.1076C60.4407 72.9036 60.4407 72.9036 58.9244 73.7156C58.6767 74.1136 58.429 74.5115 58.1738 74.9216C58.1738 76.2482 58.1738 77.5747 58.1738 78.9415C58.7931 79.2068 59.4123 79.4721 60.0504 79.7455C60.0504 80.0108 60.0504 80.2761 60.0504 80.5495C60.3445 80.6739 60.6387 80.7982 60.9417 80.9264C61.927 81.3535 61.927 81.3535 62.6776 81.7555C62.6776 82.0208 62.6776 82.2861 62.6776 82.5594C63.1343 82.5429 63.591 82.5263 64.0616 82.5092C65.4678 82.5049 66.7485 82.677 68.1284 82.9583C71.33 83.5032 74.5178 83.4843 77.7533 83.4683C78.7999 83.4639 79.8462 83.4683 80.8928 83.4734C81.5645 83.4728 82.2362 83.4718 82.9079 83.4702C83.3724 83.4727 83.3724 83.4727 83.8463 83.4751C85.2064 83.4633 86.2899 83.3734 87.6084 82.968C87.9272 82.8332 88.2459 82.6984 88.5743 82.5594C89.1196 82.424 89.6669 82.2974 90.2163 82.1826C93.0012 81.538 95.4359 80.34 97.9572 78.9415C98.5347 78.0567 98.5347 78.0567 99.0831 76.9315C99.3511 75.6476 99.3511 75.6476 99.4584 74.5196C98.3828 74.0733 98.3828 74.0733 97.4015 74.0783C96.8986 74.0853 96.8986 74.0853 96.3856 74.0925C96.0474 74.0961 95.7092 74.0997 95.3608 74.1035C95.1029 74.1081 94.845 74.1128 94.5793 74.1176C93.6504 74.9135 93.6504 74.9135 92.7028 75.7256C92.3312 75.7256 91.9596 75.7256 91.5768 75.7256C91.5768 75.9909 91.5768 76.2562 91.5768 76.5295C91.0814 76.9275 90.586 77.3255 90.0756 77.7355C89.4563 77.7355 88.837 77.7355 88.199 77.7355C88.199 78.0008 88.199 78.2662 88.199 78.5395C86.5889 78.5395 84.9788 78.5395 83.3199 78.5395C82.2052 77.7436 82.2052 77.7436 81.068 76.9315C81.068 75.605 81.068 74.2784 81.068 72.9116C81.8111 72.1157 82.5543 71.3197 83.3199 70.4996C83.8153 70.4996 84.3107 70.4996 84.8212 70.4996C85.0689 69.969 85.3166 69.4384 85.5718 68.8917C88.4763 67.2085 91.3752 65.6388 94.5837 64.732C97.6097 64.105 100.902 64.1568 103.962 64.4697C104.987 64.6845 105.96 64.9617 106.965 65.2737C108.428 66.7948 109.855 68.3588 111.093 70.0977C111.356 70.627 111.609 71.1616 111.844 71.7056C111.932 73.7504 112.007 75.7366 111.593 77.7449C111.324 78.6907 111.039 79.6227 110.718 80.5495C110.514 80.7386 110.311 80.9278 110.101 81.1226C109.832 81.3729 109.564 81.6232 109.287 81.8811C109.021 82.1283 108.756 82.3754 108.482 82.6301C107.728 83.3314 107.728 83.3314 107.13 84.0214C106.952 84.2022 106.773 84.3831 106.589 84.5694C105.486 85.1149 104.377 85.6007 103.247 86.0769C102.601 86.358 101.968 86.6687 101.335 86.9814C100.963 87.3793 100.592 87.7773 100.209 88.1874C97.6081 88.9833 97.6081 88.9833 94.9547 89.7953C94.7069 90.0606 94.4592 90.326 94.204 90.5993C93.7241 90.6491 93.2442 90.6988 92.7497 90.7501C91.1422 90.9399 89.5765 91.2448 87.9952 91.6043C86.2159 91.9921 84.5238 92.2575 82.7051 92.2529C82.2995 92.2529 81.8939 92.2529 81.476 92.2528C81.0443 92.2508 80.6126 92.2487 80.1678 92.2465C79.7212 92.246 79.2745 92.2454 78.8143 92.2448C77.3918 92.2426 75.9694 92.2375 74.5469 92.2324C73.5808 92.2304 72.6146 92.2286 71.6485 92.2269C69.2837 92.2225 66.9189 92.2158 64.5542 92.2073C64.4303 92.0746 64.3064 91.942 64.1788 91.8053C63.8605 91.7949 63.5422 91.7846 63.2142 91.7739C59.805 91.5973 56.921 90.9331 53.67 89.7953C53.67 89.53 53.67 89.2647 53.67 88.9913C52.5553 88.726 51.4407 88.4607 50.2922 88.1874C49.7968 87.7894 49.3014 87.3914 48.7909 86.9814C48.7909 86.7161 48.7909 86.4507 48.7909 86.1774C48.1717 85.9121 47.5524 85.6468 46.9144 85.3734C46.2951 84.5775 45.6758 83.7815 45.0378 82.9614C45.0378 82.4308 45.0378 81.9002 45.0378 81.3535C44.7901 81.3535 44.5424 81.3535 44.2872 81.3535C43.9118 80.3485 43.9118 80.3485 43.5365 78.9415C43.4749 77.8585 43.5015 76.8123 43.5365 75.7256C43.7842 75.7256 44.0319 75.7256 44.2872 75.7256C44.3336 75.4354 44.38 75.1452 44.4279 74.8462C44.664 73.708 44.9461 72.7588 45.4131 71.7056C46.3187 70.38 47.3276 69.2408 48.4156 68.0877C48.6832 68.0193 48.9507 67.9509 49.2264 67.8804C51.3019 67.3435 51.3019 67.3435 53.2713 66.486C53.4725 66.3513 53.6738 66.2165 53.8811 66.0777C55.0068 65.3762 55.8374 65.0326 57.0713 64.6707C58.0018 64.3953 58.8165 64.1307 59.6648 63.6359C60.1813 63.2632 60.6813 62.8644 61.1763 62.4598C61.5479 62.4598 61.9194 62.4598 62.3023 62.4598C62.3023 62.1945 62.3023 61.9291 62.3023 61.6558C62.8132 61.4071 62.8132 61.4071 63.3344 61.1533C64.5622 60.5148 64.5622 60.5148 65.4455 59.5704C65.6468 59.33 65.848 59.0896 66.0554 58.8418C66.1793 58.3112 66.3031 57.7806 66.4307 57.2339C66.6784 57.2339 66.9261 57.2339 67.1814 57.2339C67.0575 56.1726 66.9337 55.1113 66.806 54.0179C62.967 54.4063 59.2616 54.8576 55.5466 56.0279C55.4227 56.1605 55.2989 56.2932 55.1713 56.4299C54.9492 56.4786 54.7271 56.5273 54.4984 56.5775C53.2059 56.8711 51.987 57.1491 50.7613 57.6861C50.3433 57.8602 50.3433 57.8602 49.9169 58.0379C48.8613 58.0881 48.8613 58.0881 48.0403 58.0379C48.0403 58.3032 48.0403 58.5685 48.0403 58.8418C46.7453 59.5354 45.4502 60.2289 44.1552 60.9225C43.926 61.0453 43.6967 61.1682 43.4606 61.2948C42.8233 61.6358 42.1852 61.9748 41.5471 62.3137C40.223 63.03 38.9763 63.8543 37.7191 64.6959C36.7809 65.2737 36.7809 65.2737 35.9041 65.6396C34.8697 66.0929 33.9429 66.6252 32.9808 67.2335C32.6624 67.4314 32.3441 67.6293 32.0161 67.8333C31.1236 68.4445 31.1236 68.4445 30.531 69.3361C30.3641 69.5874 30.1972 69.8387 30.0252 70.0977C29.7233 70.2884 29.4214 70.479 29.1104 70.6755C28.793 70.8828 28.4756 71.0901 28.1486 71.3036C27.9009 71.6353 27.6532 71.9669 27.398 72.3086C27.1503 72.6403 26.9026 72.9719 26.6474 73.3136C26.0218 73.7156 25.3963 74.1176 24.7708 74.5196C24.2627 75.1829 23.7624 75.8532 23.2695 76.5295C22.9759 76.7757 22.6822 77.0218 22.3796 77.2754C21.3872 78.1425 20.6565 79.0196 19.8682 80.0972C19.6104 80.4496 19.3525 80.802 19.0868 81.165C18.546 81.9358 18.0336 82.7049 17.546 83.5142C16.8892 84.5694 16.8892 84.5694 16.1151 85.3734C15.3098 86.1908 15.3098 86.1907 14.7311 87.4839C14.4989 88.0311 14.4989 88.0311 14.262 88.5893C13.8904 88.722 13.5188 88.8547 13.136 88.9913C13.0431 89.2567 12.9502 89.522 12.8545 89.7953C12.4869 90.7403 12.0946 91.6259 11.6582 92.5339C10.9011 94.1285 10.3197 95.7491 9.75819 97.4332C8.6435 98.2291 8.6435 98.2291 7.5063 99.0412C6.02005 99.0412 4.5338 99.0412 3.00252 99.0412C2.23937 98.5259 1.4897 97.9873 0.75063 97.4332C0.502921 97.0352 0.255211 96.6373 0 96.2272C0 95.166 0 94.1047 0 93.0113C0.232224 92.7874 0.464453 92.5636 0.703715 92.3329C0.966904 92.0261 1.23009 91.7194 1.50126 91.4033C1.9165 90.4423 1.9165 90.4423 2.25189 89.3933C3.78276 85.868 5.75496 82.6911 7.94465 79.601C8.6662 78.4871 9.2183 77.3521 9.75819 76.1276C10.0988 75.8954 10.4394 75.6633 10.7903 75.4241C11.8473 74.6403 12.6677 73.9399 13.5113 72.9116C13.8937 72.2462 14.2688 71.5759 14.6373 70.9016C15.8952 69.0053 17.4547 67.5262 19.1411 66.0777C20.267 65.2989 20.267 65.2989 21.0176 64.8717C21.3892 64.8717 21.7608 64.8717 22.1436 64.8717C22.1436 64.3411 22.1436 63.8105 22.1436 63.2638C22.5573 62.8777 22.9719 62.4926 23.3868 62.108C23.6176 61.8935 23.8484 61.679 24.0861 61.4579C24.7708 60.8518 24.7708 60.8518 25.8967 60.0478C26.2683 60.0478 26.6398 60.0478 27.0227 60.0478C27.0227 59.7825 27.0227 59.5172 27.0227 59.2438C30.5558 56.336 34.086 53.6934 38.2821 52.0079C38.2821 51.7426 38.2821 51.4773 38.2821 51.204C40.7657 50.1559 43.219 49.1689 45.7884 48.39C46.4077 48.1177 47.0253 47.8409 47.6415 47.5609C48.8624 47.0222 49.9657 46.6521 51.2774 46.4805C51.6954 46.4474 52.1134 46.4142 52.5441 46.38C52.5441 46.1147 52.5441 45.8494 52.5441 45.5761C54.2161 45.3771 54.2161 45.3771 55.9219 45.1741C56.0458 45.0414 56.1696 44.9087 56.2972 44.7721C56.9939 44.6974 56.9939 44.6975 57.7047 44.6213C58.5019 44.549 58.5019 44.549 59.2997 44.3701C60.1264 43.9779 60.1264 43.9779 60.801 43.5661C60.7154 43.3459 60.6297 43.1256 60.5415 42.8987C60.1621 41.7779 59.8835 40.7196 59.6751 39.5462C59.6518 37.5147 59.7653 35.5251 60.0504 33.5163C60.4448 32.3307 60.4448 32.3307 60.801 31.5063C61.7918 30.5777 62.7827 29.6491 63.8035 28.6923C64.0512 28.6923 64.2989 28.6923 64.5542 28.6923C64.678 28.2944 64.8019 27.8964 64.9295 27.4864C65.747 26.7168 66.5359 26.0212 67.5156 25.5031C68.1502 25.2143 68.7913 24.942 69.4333 24.6724C69.5571 24.4071 69.681 24.1418 69.8086 23.8684C70.7994 23.3378 71.7902 22.8071 72.8111 22.2604C73.0588 22.2604 73.3065 22.2604 73.5617 22.2604C73.6856 21.7298 73.8094 21.1992 73.937 20.6525C74.208 20.3706 74.4789 20.0887 74.758 19.7982C75.8129 18.6716 76.7501 17.4676 77.6902 16.2305C77.814 14.904 77.9379 13.5774 78.0655 12.2106C77.6939 11.8126 77.3224 11.4147 76.9395 11.0046C75.3288 10.981 73.7182 10.9669 72.1074 10.9544C71.4296 10.9443 71.4296 10.9443 70.7381 10.934C68.0793 10.9185 65.6326 11.1009 63.0529 11.8086C63.0529 12.2066 63.0529 12.6046 63.0529 13.0146C61.9911 13.5391 61.0856 13.8327 59.9228 14.0133C59.4772 14.0485 59.0317 14.0838 58.5726 14.1201C58.128 14.1595 57.6833 14.1988 57.2253 14.2394C55.9219 14.2206 55.9219 14.2206 54.6303 13.8249C54.3134 13.6901 53.9965 13.5554 53.67 13.4166C53.4223 13.1513 53.1746 12.886 52.9194 12.6126C52.9194 11.1534 52.9194 9.69413 52.9194 8.19067C53.3374 7.84244 53.3374 7.84244 53.7639 7.48718C54.6696 6.69348 55.4782 5.86701 56.2972 4.97472C56.8139 4.77807 56.8139 4.77807 57.3411 4.57744C57.8017 4.40177 58.2622 4.22611 58.7368 4.04511C58.9775 3.95381 59.2182 3.86252 59.4661 3.76845C60.7359 3.28491 61.9922 2.77935 63.2406 2.23614C64.5542 1.75878 64.5542 1.75878 65.8678 1.6834C66.3322 1.72071 66.3322 1.72071 66.806 1.75878C66.806 1.49346 66.806 1.22815 66.806 0.95479C69.5973 0.233612 72.2659 -0.00419076 75.1333 5.54929e-05Z" fill="rgb(232,192,55)" fill-rule="nonzero" />
	</g>
</svg>
