<svg viewBox="0 0 169 106" xmlns="http://www.w3.org/2000/svg" xmlns:xlink="http://www.w3.org/1999/xlink" width="169.000061" height="106.000000" fill="none" customFrame="#000000">
	<g id="组合 3">
		<path id="矢量 28" d="M38.9995 0.00430007C39.8618 0.575476 40.607 1.14214 41.3034 1.92277C41.5315 2.63501 41.5315 2.63501 41.7641 3.36163C42.2203 3.5199 42.6765 3.67818 43.1464 3.84125C43.2216 4.00601 43.2967 4.17078 43.3741 4.34054C43.4748 4.55662 43.5755 4.7727 43.6792 4.99533C43.8275 5.31667 43.8275 5.31667 43.9789 5.6445C44.261 6.23303 44.261 6.23303 44.6439 6.59905C44.9895 6.95877 44.9895 6.95877 45.309 7.55361C45.4079 7.76783 45.5068 7.98206 45.6087 8.20278C45.7094 8.41886 45.81 8.63494 45.9137 8.85757C45.9889 9.02234 46.064 9.1871 46.1414 9.35686C46.1414 9.51513 46.1414 9.67341 46.1414 9.83648C46.4455 9.99475 46.7496 10.153 47.063 10.3161C47.6743 11.0841 48.1866 11.8581 48.6757 12.7142C48.8277 12.8725 48.9798 13.0307 49.1364 13.1938C49.3645 14.3809 49.3645 14.3809 49.5972 15.5919C49.7492 15.5919 49.9013 15.5919 50.058 15.5919C50.1331 15.7511 50.2082 15.9103 50.2856 16.0743C50.7906 17.1364 51.2911 18.1866 51.901 19.189C52.1291 19.3473 52.3572 19.5056 52.5922 19.6687C53.1709 22.0998 53.4376 24.3965 53.3272 26.8986C53.1685 29.3721 52.8771 31.8365 52.5922 34.297C52.4401 34.4553 52.2881 34.6136 52.1314 34.7766C52.1035 34.9386 52.0756 35.1006 52.0468 35.2675C51.9889 35.5884 51.9889 35.5884 51.9298 35.9157C51.8737 36.2329 51.8737 36.2329 51.8164 36.5565C51.678 37.1434 51.491 37.6078 51.2099 38.134C51.2859 38.5297 51.3619 38.9253 51.4403 39.333C51.5781 39.5061 51.7159 39.6792 51.8578 39.8576C52.3618 40.5321 52.3618 40.5321 52.693 41.1316C53.0392 41.7639 53.0392 41.7639 53.6145 42.2857C54.2049 42.9302 54.2049 42.9302 54.4839 43.4323C54.7073 43.9007 54.9225 44.3707 55.1264 44.8486C55.2794 44.976 55.4323 45.1034 55.5899 45.2346C56.2033 45.7454 56.8168 46.2563 57.4303 46.7671C57.6322 46.9303 57.8341 47.0935 58.0422 47.2617C58.7122 47.8382 59.1942 48.4588 59.7341 49.1652C59.8101 49.5609 59.8861 49.9566 59.9645 50.3642C60.3446 50.6017 60.7247 50.8391 61.1164 51.0837C61.1924 51.3211 61.2685 51.5585 61.3468 51.8031C61.5226 51.8723 61.6984 51.9416 61.8795 52.0129C62.4987 52.2827 62.4987 52.2827 63.1899 52.7623C63.9501 52.7623 64.7104 52.7623 65.4937 52.7623C65.6838 52.515 65.8738 52.2677 66.0697 52.0129C66.8476 51.0617 67.7364 50.3536 68.7191 49.6448C68.8711 49.6448 69.0232 49.6448 69.1798 49.6448C69.2369 49.5063 69.2939 49.3678 69.3526 49.2251C69.6406 48.6856 69.6406 48.6856 70.0582 48.176C70.3076 47.9534 70.3076 47.9534 70.5621 47.7263C70.9423 47.5568 71.326 47.3955 71.7141 47.2467C71.8661 47.0884 72.0182 46.9302 72.1748 46.7671C72.4029 46.7671 72.631 46.7671 72.866 46.7671C72.866 46.6088 72.866 46.4506 72.866 46.2875C73.2461 46.0501 73.6263 45.8127 74.0179 45.5681C74.17 45.3306 74.322 45.0932 74.4787 44.8486C75.3709 44.2576 76.2687 43.8275 77.2433 43.4098C77.3383 43.2908 77.4333 43.1717 77.5313 43.0491C78.7393 41.5699 80.0351 40.3033 81.5486 39.1681C82.7265 38.2691 83.7675 37.214 84.8325 36.1771C85.3635 35.6607 85.9028 35.1592 86.4586 34.6717C87.2328 33.9834 87.9581 33.2625 88.6329 32.4685C88.9929 32.1387 88.9929 32.1387 90.3752 31.4193C91.4395 31.4193 92.5039 31.4193 93.6005 31.4193C93.6766 31.5776 93.7526 31.7359 93.8309 31.8989C94.2111 32.0572 94.5912 32.2155 94.9828 32.3785C95.078 32.4934 95.1733 32.6082 95.2713 32.7266C96.2966 33.9557 97.3511 35.1515 98.4242 36.3354C98.5818 36.5098 98.7393 36.6841 98.9016 36.8637C99.2846 37.2874 99.6678 37.7108 100.051 38.134C100.208 38.1847 100.365 38.2354 100.526 38.2876C101.42 38.7182 102.079 39.3204 102.816 39.9925C102.955 40.1155 103.094 40.2386 103.237 40.3653C103.894 40.9567 104.498 41.5501 105.048 42.251C105.506 42.8351 105.949 43.3029 106.502 43.7845C107.229 44.4294 107.911 45.0942 108.576 45.8079C108.576 45.9661 108.576 46.1244 108.576 46.2875C108.706 46.3521 108.836 46.4167 108.971 46.4833C109.522 46.7808 110.031 47.1134 110.548 47.4715C110.724 47.5924 110.9 47.7133 111.082 47.8378C111.57 48.206 111.57 48.206 112.262 48.9254C112.946 48.8462 113.63 48.7671 114.335 48.6856C114.492 48.5372 114.649 48.3888 114.81 48.2359C115.487 47.7263 115.487 47.7263 115.923 47.5559C116.312 47.4421 116.706 47.3432 117.1 47.2467C117.176 47.0884 117.252 46.9302 117.33 46.7671C117.478 46.7235 117.625 46.6799 117.777 46.635C118.976 46.2724 120.111 45.8678 121.247 45.3282C121.323 45.17 121.399 45.0117 121.477 44.8486C121.653 44.7448 121.829 44.6409 122.01 44.5339C122.681 44.1287 122.681 44.1287 123.32 43.4098C124.08 43.3306 124.841 43.2515 125.624 43.17C125.852 42.9326 126.08 42.6951 126.315 42.4505C126.767 42.193 127.23 41.9564 127.697 41.7311C127.866 41.6486 128.034 41.566 128.208 41.481C128.962 41.1189 129.667 40.7983 130.476 40.592C130.624 40.5722 130.771 40.5524 130.923 40.5321C130.923 40.3738 130.923 40.2155 130.923 40.0524C131.075 40.0524 131.227 40.0524 131.384 40.0524C131.46 39.815 131.536 39.5776 131.614 39.333C131.908 39.2839 132.202 39.2347 132.505 39.1841C132.889 39.1189 133.274 39.0536 133.659 38.9883C133.853 38.956 134.046 38.9237 134.246 38.8904C134.432 38.8587 134.617 38.827 134.809 38.7944C135.066 38.7511 135.066 38.7511 135.328 38.7069C135.779 38.6298 135.779 38.6298 136.222 38.3738C136.298 38.1364 136.374 37.899 136.452 37.6544C137.364 37.4169 138.277 37.1795 139.217 36.9349C139.397 36.7519 139.578 36.5689 139.764 36.3804C140.142 36.0488 140.142 36.0488 140.599 35.7359C141.18 35.5096 141.757 35.3373 142.357 35.1785C142.983 35.0114 142.983 35.0114 143.824 34.5368C143.9 28.0476 143.976 21.5584 144.055 14.8725C143.302 14.6765 142.794 14.6061 142.039 14.6177C141.855 14.6198 141.671 14.622 141.481 14.6242C141.342 14.627 141.203 14.6298 141.06 14.6327C140.832 14.7909 140.604 14.9492 140.368 15.1123C140.226 15.1256 140.083 15.1388 139.936 15.1525C139.279 15.2138 138.621 15.2755 137.964 15.3371C137.74 15.358 137.515 15.3788 137.284 15.4003C135.929 15.5277 134.578 15.6703 133.227 15.8317C133.227 15.99 133.227 16.1483 133.227 16.3113C132.314 16.4696 131.402 16.6279 130.462 16.7909C130.298 17.6431 130.196 18.3407 130.167 19.1918C130.154 19.5236 130.154 19.5236 130.141 19.8621C130.124 20.3255 130.108 20.7889 130.092 21.2522C130.079 21.5826 130.079 21.5826 130.066 21.9197C130.059 22.1205 130.052 22.3214 130.045 22.5283C130.023 22.7746 130.023 22.7746 130.001 23.026C129.925 23.1843 129.849 23.3425 129.771 23.5056C129.771 25.0883 129.771 26.6711 129.771 28.3018C130.683 28.3018 131.595 28.3018 132.535 28.3018C133.106 27.9457 133.106 27.9457 133.687 27.5824C134.354 27.4072 134.354 27.4072 135.026 27.2976C135.251 27.2596 135.476 27.2215 135.708 27.1824C135.877 27.1561 136.047 27.1298 136.222 27.1027C136.526 26.7862 136.83 26.4696 137.143 26.1435C137.662 24.792 138.017 23.4935 138.295 22.0667C138.827 21.3545 139.359 20.6423 139.908 19.9085C140.516 19.8293 141.124 19.7502 141.751 19.6687C141.827 19.7478 141.903 19.8269 141.981 19.9085C141.981 23.707 141.981 27.5056 141.981 31.4193C141.639 31.6567 141.639 31.6567 141.29 31.8989C141.138 32.3738 140.986 32.8486 140.829 33.3378C140.297 33.4961 139.765 33.6543 139.217 33.8174C139.065 34.0548 138.912 34.2922 138.756 34.5368C138.606 34.5977 138.455 34.6586 138.3 34.7214C137.196 35.1741 136.12 35.64 135.07 36.2155C134.918 36.2155 134.766 36.2155 134.609 36.2155C134.609 36.4529 134.609 36.6903 134.609 36.9349C134.424 37.0487 134.238 37.1624 134.047 37.2796C133.492 37.599 133.492 37.599 133.227 37.8942C132.618 37.9733 132.01 38.0524 131.384 38.134C131.308 38.2131 131.231 38.2922 131.153 38.3738C130.317 38.4529 129.481 38.5321 128.619 38.6136C128.619 38.7719 128.619 38.9301 128.619 39.0932C127.928 39.5728 127.928 39.5728 127.28 39.8426C125.928 40.2324 124.478 40.0885 123.09 40.0524C122.471 39.7677 122.471 39.7677 121.707 39.333C121.327 38.9373 120.947 38.5416 120.555 38.134C120.555 29.1915 120.555 20.249 120.555 11.0355C122.122 9.13327 122.122 9.13327 123.133 8.3077C123.423 8.0675 123.423 8.0675 123.719 7.82246C124.242 7.43839 124.242 7.43839 124.933 7.19858C125.41 7.15166 125.888 7.1162 126.366 7.0871C126.799 7.05951 126.799 7.05951 127.241 7.03137C127.393 7.022 127.546 7.01263 127.702 7.00297C129.892 6.86688 132.082 6.72504 134.263 6.47915C134.423 6.46217 134.582 6.44518 134.746 6.42769C135.414 6.34771 136.008 6.23318 136.642 5.99731C137.4 5.75123 138.027 5.68489 138.819 5.66043C139.085 5.65115 139.35 5.64188 139.624 5.63232C139.898 5.6249 140.172 5.61749 140.455 5.60984C140.734 5.60057 141.014 5.59129 141.302 5.58174C141.989 5.55921 142.676 5.53866 143.363 5.51991C143.516 5.44078 143.668 5.36164 143.824 5.2801C145.562 4.98285 147.368 4.9182 149.123 5.04029C149.625 5.12949 150.032 5.2467 150.494 5.46722C151.081 5.83104 151.552 6.27106 152.057 6.74894C152.242 6.92267 152.426 7.0964 152.616 7.27539C152.826 7.47478 152.826 7.47478 153.04 7.6782C153.037 7.92801 153.034 8.17782 153.031 8.43521C153.003 10.829 152.976 13.2227 152.95 15.6165C152.936 16.8462 152.922 18.0758 152.908 19.3055C152.891 20.7302 152.875 22.1549 152.86 23.5796C152.857 23.8127 152.854 24.0459 152.852 24.2861C152.826 26.6661 152.805 29.0458 152.81 31.426C152.811 31.6113 152.811 31.7966 152.811 31.9875C152.813 32.839 152.817 33.6904 152.824 34.5419C152.83 35.9252 152.827 37.2524 152.579 38.6136C152.288 39.1256 152.012 39.5894 151.657 40.0524C150.966 40.607 150.966 40.607 150.275 41.0117C149.728 41.1915 149.728 41.1915 149.353 41.2515C149.277 41.4098 149.201 41.568 149.123 41.7311C148.965 41.8121 148.807 41.8931 148.643 41.9765C148.436 42.0835 148.228 42.1905 148.014 42.3007C147.706 42.4592 147.706 42.4592 147.391 42.621C146.786 42.9346 146.786 42.9346 146.128 43.4098C145.672 43.4098 145.216 43.4098 144.746 43.4098C144.746 43.5681 144.746 43.7263 144.746 43.8894C144.618 43.9531 144.49 44.0168 144.359 44.0824C144.192 44.1671 144.025 44.2518 143.853 44.339C143.687 44.4225 143.522 44.506 143.351 44.592C142.868 44.8404 142.868 44.8404 142.442 45.3282C141.369 45.6171 140.314 45.8763 139.217 46.0477C139.141 46.2851 139.065 46.5225 138.986 46.7671C138.651 46.8879 138.314 47.0076 137.978 47.1268C137.791 47.1936 137.604 47.2604 137.411 47.3292C136.913 47.4865 136.913 47.4865 136.452 47.4865C136.376 47.7239 136.3 47.9614 136.222 48.206C135.951 48.3098 135.68 48.4137 135.401 48.5207C134.511 48.8689 133.635 49.2444 132.766 49.6448C132.573 49.7311 132.381 49.8173 132.183 49.9062C130.887 50.499 129.69 51.1685 128.486 51.9408C127.647 52.4548 126.78 52.9232 125.854 53.242C125.55 53.242 125.246 53.242 124.933 53.242C124.933 53.4002 124.933 53.5585 124.933 53.7216C124.486 54.0513 124.486 54.0513 123.781 54.441C123.461 54.5079 123.139 54.5673 122.816 54.6209C122.263 54.7193 122.263 54.7193 121.707 54.9206C121.319 55.186 120.94 55.467 120.57 55.7599C119.989 56.2124 119.989 56.2124 119.404 56.5993C118.643 56.8586 117.891 56.9684 117.1 57.0789C116.705 57.1649 116.312 57.2547 115.919 57.3487C115.477 57.4526 115.477 57.4525 115.026 57.5585C114.722 57.7959 114.418 58.0333 114.105 58.2779C113.026 58.32 111.957 58.3403 110.879 58.2779C110.258 58.1043 109.828 57.8925 109.267 57.5585C109.267 57.4002 109.267 57.242 109.267 57.0789C108.24 56.7228 108.24 56.7228 107.193 56.3595C107.041 56.0429 106.889 55.7264 106.732 55.4002C106.428 55.3211 106.124 55.242 105.811 55.1604C105.688 55.0241 105.565 54.8878 105.438 54.7473C104.199 53.4104 102.909 52.3595 101.434 51.3235C100.924 50.9463 100.509 50.578 100.051 50.1244C99.6994 49.5785 99.4176 49.0334 99.1298 48.4458C98.4419 47.9514 97.8239 47.5213 97.0563 47.1718C96.8282 47.0382 96.6002 46.9047 96.3652 46.7671C95.9925 46.3541 95.6563 45.928 95.3266 45.4772C95.2132 45.3489 95.0997 45.2206 94.9828 45.0884C94.5022 44.798 94.5022 44.798 94.0613 44.6088C94.0613 44.4505 94.0613 44.2923 94.0613 44.1292C93.9235 44.0649 93.7857 44.0006 93.6437 43.9344C93.1398 43.6496 93.1398 43.6496 92.7366 43.2599C92.6416 43.1511 92.5465 43.0423 92.4486 42.9302C91.9164 42.851 91.3843 42.7719 90.8359 42.6903C90.8359 42.8486 90.8359 43.0069 90.8359 43.17C90.5865 43.3183 90.5865 43.3183 90.332 43.4697C89.4422 44.046 88.6933 44.6723 87.9705 45.4631C87.7757 45.656 87.5809 45.8489 87.3802 46.0477C86.9194 46.2875 86.4586 46.5273 85.9979 46.7671C85.4386 47.2225 84.9091 47.7074 84.3852 48.206C84.2331 48.206 84.0811 48.206 83.9244 48.206C83.7724 48.5225 83.6203 48.8391 83.4636 49.1652C83.3116 49.1652 83.1595 49.1652 83.0029 49.1652C83.0029 49.3235 83.0029 49.4817 83.0029 49.6448C82.6227 49.8822 82.2426 50.1196 81.851 50.3642C81.6229 50.3642 81.3948 50.3642 81.1598 50.3642C81.0838 50.6017 81.0078 50.8391 80.9294 51.0837C80.4648 51.4647 79.9991 51.8441 79.5327 52.2228C79.4034 52.3291 79.2741 52.4354 79.1408 52.545C78.2407 53.2731 77.3228 53.8729 76.3217 54.441C76.0937 54.441 75.8656 54.441 75.6306 54.441C75.6306 54.7575 75.6306 55.0741 75.6306 55.4002C75.374 55.5857 75.374 55.5857 75.1122 55.7749C74.4955 56.289 74.4955 56.289 74.2294 56.7716C74.1176 56.9905 74.1176 56.9905 74.0035 57.2138C73.8562 57.4858 73.7089 57.7579 73.5571 58.0381C73.0388 58.5028 73.0388 58.5028 72.6356 58.7576C72.3315 58.7576 72.0274 58.7576 71.7141 58.7576C71.7141 59.3115 71.7141 59.8655 71.7141 60.4362C71.8724 60.5809 72.0306 60.7256 72.1937 60.8746C72.5051 61.1621 72.5051 61.1621 72.8228 61.4554C73.0286 61.6446 73.2344 61.8338 73.4464 62.0287C74.1116 62.6873 74.5813 63.3218 75.0366 64.1486C75.4259 64.7955 75.8501 65.2602 76.3793 65.787C77.3355 66.7578 78.2232 67.7693 79.0863 68.8296C79.0863 68.9878 79.0863 69.1461 79.0863 69.3092C79.4665 69.3883 79.8466 69.4674 80.2383 69.549C80.344 69.6763 80.4497 69.8037 80.5586 69.9349C81.2738 70.792 81.985 71.6398 82.7725 72.4267C82.8485 72.6641 82.9246 72.9015 83.0029 73.1461C83.7631 73.1461 84.5234 73.1461 85.3067 73.1461C85.4588 73.0126 85.6108 72.879 85.7675 72.7414C86.5768 72.0921 87.4086 71.5055 88.3017 70.9878C88.573 70.8914 88.573 70.8914 88.8498 70.793C89.5024 70.5198 89.5024 70.5198 90.1223 69.9181C90.3569 69.6868 90.59 69.4538 90.8215 69.2192C91.7001 68.3366 92.565 67.589 93.6005 66.9111C93.5321 66.2479 93.5321 66.2479 93.3702 65.4722C93.1607 64.9897 92.9342 64.5148 92.6934 64.0484C92.1737 63.0067 91.7765 62.0584 91.5271 60.9158C90.6148 59.8475 90.6148 59.8475 89.684 58.7576C89.3039 58.7576 88.9238 58.7576 88.5321 58.7576C88.38 58.9158 88.228 59.0741 88.0713 59.2372C87.6929 59.4038 87.3142 59.5702 86.9302 59.7224C86.2744 60.0481 85.6809 60.4963 85.0763 60.9158C85.0003 63.1317 84.9243 65.3475 84.846 67.6305C84.7699 67.7096 84.6939 67.7888 84.6156 67.8703C83.8553 67.8703 83.095 67.8703 82.3117 67.8703C81.0611 65.8491 81.0611 65.8491 80.699 64.7528C80.547 64.6737 80.3949 64.5945 80.2383 64.513C79.8962 63.4446 79.8962 63.4446 79.5471 62.3547C79.4711 62.2756 79.3951 62.1964 79.3167 62.1149C79.1047 60.8182 79.0669 59.5937 79.0863 58.2779C79.9987 56.7348 79.9987 56.7348 80.9294 55.1604C81.243 55.0269 81.5566 54.8933 81.8798 54.7557C82.5756 54.4326 83.0938 54.1297 83.7084 53.6466C84.0434 53.3276 84.0434 53.3276 84.3852 53.0021C85.3461 52.1031 86.2521 51.2705 87.3802 50.604C87.7683 50.2898 88.1535 49.9714 88.5321 49.6448C89.1446 49.4361 89.6472 49.3996 90.2996 49.3816C90.6128 49.3832 90.9259 49.386 91.2391 49.39C91.3998 49.3911 91.5604 49.3922 91.726 49.3933C92.1205 49.3961 92.5149 49.4004 92.9094 49.405C93.7077 49.9985 93.7077 49.9985 94.5221 50.604C94.5221 50.7623 94.5221 50.9206 94.5221 51.0837C94.7502 51.1628 94.9782 51.2419 95.2132 51.3235C95.3389 51.5841 95.3389 51.5841 95.467 51.8499C96.1399 53.2146 96.1399 53.2146 96.9951 54.4569C97.3121 54.7829 97.6435 55.0936 97.9778 55.4002C98.0539 55.8751 98.1299 56.3499 98.2082 56.8391C98.4363 56.9182 98.6644 56.9974 98.8994 57.0789C99.0514 57.5537 99.2035 58.0285 99.3601 58.5178C99.536 58.7008 99.7118 58.8838 99.8929 59.0723C100.097 59.285 100.302 59.4977 100.512 59.7168C100.63 59.8299 100.748 59.9431 100.869 60.0597C101.203 60.4362 101.203 60.4362 101.432 60.8756C101.499 61.0323 101.566 61.189 101.635 61.3505C101.939 62.0128 102.25 62.5529 102.715 63.1041C103.268 63.7835 103.617 64.4243 103.968 65.2324C103.968 65.549 103.968 65.8655 103.968 66.1917C104.12 66.1917 104.272 66.1917 104.429 66.1917C104.429 67.2204 104.429 68.2492 104.429 69.3092C104.201 69.3092 103.972 69.3092 103.737 69.3092C103.585 69.784 103.433 70.2588 103.277 70.748C103.096 70.8915 102.916 71.0349 102.73 71.1827C102.091 71.6859 102.091 71.6859 101.664 72.4267C101.512 72.4267 101.36 72.4267 101.203 72.4267C101.203 72.585 101.203 72.7432 101.203 72.9063C101.086 72.9851 100.968 73.064 100.847 73.1452C99.5555 74.0246 98.3175 74.9637 97.0878 75.9339C96.5959 76.3216 96.1029 76.7066 95.6065 77.088C95.3627 77.2759 95.1189 77.4639 94.8677 77.6575C94.6467 77.8272 94.4258 77.997 94.1981 78.1718C93.6479 78.6229 93.1616 79.0938 92.679 79.621C92.3012 79.7323 92.3012 79.7323 91.9159 79.8458C91.3994 80.0007 90.885 80.1635 90.3752 80.3404C90.2991 80.5778 90.2231 80.8152 90.1448 81.0598C89.7646 81.139 89.3845 81.2181 88.9929 81.2996C88.9929 81.4579 88.9929 81.6162 88.9929 81.7793C88.0214 82.5546 87.0627 83.3042 85.9979 83.9375C85.7698 84.0958 85.5417 84.2541 85.3067 84.4172C84.3184 84.4172 83.33 84.4172 82.3117 84.4172C81.9316 84.1797 81.5515 83.9423 81.1598 83.6977C81.1598 83.5395 81.1598 83.3812 81.1598 83.2181C80.9674 83.1365 80.9674 83.1365 80.771 83.0532C80.2306 82.734 79.8642 82.3602 79.4321 81.9013C78.7589 81.1967 78.0562 80.5239 77.3585 79.8458C77.2085 79.6991 77.0585 79.5524 76.904 79.4013C75.485 78.0134 75.485 78.0134 73.8883 76.8632C73.289 76.4793 72.8703 76.0929 72.4052 75.5442C72.313 75.3688 72.2207 75.1934 72.1257 75.0126C71.589 74.1424 70.9317 73.4714 70.2256 72.7489C70.081 72.5991 69.9364 72.4493 69.7874 72.2949C69.3268 71.8181 68.8646 71.343 68.4023 70.8679C68.0932 70.5486 67.7842 70.2292 67.4754 69.9096C66.9062 69.3211 66.3365 68.7333 65.766 68.1462C64.5774 66.9218 63.4347 65.6798 62.3331 64.3697C61.8048 63.7906 61.2713 63.31 60.6556 62.8343C60.387 62.6804 60.387 62.6804 60.113 62.5233C59.2283 61.9302 58.5487 61.1604 57.819 60.3763C56.7768 59.2701 55.7448 58.1848 54.5765 57.2203C54.2049 56.8391 54.2049 56.8391 53.7964 56.179C53.0033 54.9751 52.0033 53.9878 51.0132 52.9615C50.6481 52.5822 50.2862 52.1998 49.9243 51.8171C49.691 51.5737 49.4574 51.3305 49.2237 51.0874C49.0136 50.868 48.8035 50.6486 48.5871 50.4226C48.0135 49.8612 48.0135 49.8612 47.3311 49.5696C47.1666 49.5153 47.0021 49.461 46.8326 49.405C42.8533 44.9736 42.8533 44.9736 42.2186 43.6271C42.1077 43.4008 42.1077 43.4008 41.9945 43.17C41.7664 42.9326 41.5384 42.6951 41.3034 42.4505C41.3034 40.4721 41.3034 38.4937 41.3034 36.4553C41.4554 36.3762 41.6075 36.297 41.7641 36.2155C42.5443 34.2209 43.1745 32.382 43.4776 30.2437C43.6072 29.5008 43.6072 29.5008 43.8502 28.7046C44.1064 27.6664 44.1196 26.7435 44.0968 25.6789C44.0947 25.492 44.0926 25.3051 44.0905 25.1126C44.0851 24.6568 44.0768 24.2011 44.068 23.7454C43.7639 23.4289 43.4598 23.1123 43.1464 22.7862C42.9184 21.8365 42.9184 21.8365 42.6857 20.8677C42.422 20.5487 42.422 20.5487 42.1529 20.2232C41.7718 19.7508 41.4739 19.3216 41.1738 18.7844C41.0645 18.6014 40.9552 18.4184 40.8426 18.2298C40.3658 17.8021 40.3658 17.8021 39.9211 17.5104C39.9211 17.3521 39.9211 17.1938 39.9211 17.0308C39.769 17.0308 39.617 17.0308 39.4603 17.0308C39.4175 16.8082 39.3748 16.5856 39.3307 16.3563C39.0883 15.4528 38.6611 14.7323 38.1788 13.9432C37.7147 13.1702 37.7147 13.1702 37.1565 12.4744C36.6243 12.4744 36.0921 12.4744 35.5438 12.4744C35.1636 12.8701 34.7835 13.2658 34.3918 13.6734C34.2398 13.6734 34.0877 13.6734 33.9311 13.6734C33.8551 13.9108 33.779 14.1482 33.7007 14.3929C33.581 14.5001 33.4613 14.6074 33.338 14.7179C32.4278 15.5393 31.5461 16.3708 30.7057 17.2706C30.4753 17.5104 30.2449 17.7502 30.0146 17.99C29.8625 17.99 29.7104 17.99 29.5538 17.99C29.5081 18.1208 29.4623 18.2515 29.4152 18.3862C29.093 18.9492 29.093 18.9492 28.4253 19.5947C28.1596 19.8258 27.8926 20.0553 27.6243 20.2832C27.4913 20.3986 27.3582 20.5141 27.2211 20.633C26.5528 21.2104 25.8777 21.7726 25.1765 22.3066C24.9484 22.3066 24.7203 22.3066 24.4853 22.3066C24.3971 22.5161 24.3971 22.5161 24.3071 22.73C24.0246 23.2658 24.0246 23.2658 23.6268 23.7267C23.4825 23.8714 23.3381 24.016 23.1894 24.1651C23.0439 24.3122 22.8984 24.4594 22.7485 24.611C22.6374 24.721 22.5263 24.8311 22.4119 24.9445C22.2598 24.9445 22.1078 24.9445 21.9511 24.9445C21.723 25.4193 21.723 25.4193 21.4903 25.9037C21.3383 25.9037 21.1862 25.9037 21.0296 25.9037C20.9298 26.1856 20.9298 26.1856 20.828 26.4732C20.7425 26.681 20.6569 26.8887 20.5688 27.1027C20.4168 27.261 20.2647 27.4193 20.108 27.5824C20.032 27.978 19.956 28.3737 19.8777 28.7814C20.3831 29.074 20.8293 29.2687 21.3932 29.4128C21.5963 29.4517 21.7994 29.4907 22.0087 29.5308C22.2142 29.571 22.4197 29.6112 22.6315 29.6526C22.7871 29.6817 22.9427 29.7107 23.103 29.7406C23.3311 29.9781 23.5592 30.2155 23.7942 30.4601C25.0486 30.6975 25.0486 30.6975 26.3284 30.9397C26.5565 31.1771 26.7846 31.4145 27.0196 31.6591C27.7038 31.7383 28.388 31.8174 29.093 31.8989C29.4351 32.1363 29.4351 32.1363 29.7842 32.3785C30.2403 32.3785 30.6965 32.3785 31.1665 32.3785C31.2556 32.2657 31.3447 32.1529 31.4365 32.0366C32.0639 31.2558 32.6439 30.5429 33.4703 29.9805C33.6224 29.9805 33.7744 29.9805 33.9311 29.9805C34.185 28.9231 34.1791 27.946 34.1615 26.8629C33.9334 26.4672 33.7053 26.0716 33.4703 25.6639C33.3183 25.5848 33.1662 25.5056 33.0095 25.4241C32.6931 25.3881 32.3753 25.3645 32.0574 25.3482C31.8718 25.3382 31.6862 25.3281 31.4949 25.3178C31.301 25.3083 31.1071 25.2989 30.9073 25.2892C30.6137 25.2737 30.6137 25.2737 30.3142 25.2578C29.8304 25.2323 29.3465 25.2082 28.8626 25.1843C28.8626 24.472 28.8626 23.7598 28.8626 23.026C29.4708 22.472 30.0791 21.9181 30.7057 21.3473C30.8578 21.3473 31.0098 21.3473 31.1665 21.3473C31.233 21.2039 31.2995 21.0604 31.3681 20.9127C31.6272 20.3881 31.6272 20.3881 32.088 19.6687C33.2284 19.6687 34.3688 19.6687 35.5438 19.6687C37.1284 20.7683 37.1284 20.7683 37.8908 21.3623C38.0414 21.4789 38.1919 21.5954 38.3471 21.7155C38.7481 22.0492 39.1053 22.4007 39.4603 22.7862C39.4603 22.9445 39.4603 23.1027 39.4603 23.2658C39.5933 23.3251 39.7264 23.3845 39.8635 23.4457C40.4512 23.7855 40.8379 24.2039 41.3034 24.7047C41.3304 25.6938 41.3466 26.6829 41.361 27.6723C41.3687 27.9496 41.3764 28.2269 41.3844 28.5126C41.3961 29.595 41.3996 30.5912 41.1108 31.6369C40.8882 32.2171 40.6463 32.7771 40.3818 33.3378C40.2936 33.5604 40.2054 33.7829 40.1146 34.0122C40.0459 34.1854 39.9773 34.3585 39.9067 34.5368C39.5979 35.3329 39.3478 36.1224 39.1291 36.9499C38.7881 38.178 38.2426 39.199 37.6172 40.2923C37.4001 40.6963 37.1841 41.1009 36.9693 41.5063C36.8013 41.821 36.6333 42.1358 36.4653 42.4505C36.1612 42.6879 35.8571 42.9254 35.5438 43.17C34.3273 43.17 33.1109 43.17 31.8576 43.17C31.7056 43.0117 31.5535 42.8534 31.3969 42.6903C31.224 42.6468 31.0512 42.6032 30.8731 42.5583C30.125 42.367 29.3784 42.1702 28.6322 41.9709C28.4345 41.919 28.2367 41.8671 28.0329 41.8135C26.4388 41.3595 25.0201 40.6175 23.5638 39.8126C23.5638 39.6544 23.5638 39.4961 23.5638 39.333C23.2739 39.3182 22.9841 39.3033 22.6855 39.2881C22.0069 39.2134 21.4723 39.0856 20.837 38.8187C20.4034 38.6042 19.9708 38.3875 19.5393 38.1686C18.9282 37.8559 18.9282 37.8559 18.1066 37.6993C17.9308 37.6845 17.755 37.6696 17.5738 37.6544C17.5738 37.4961 17.5738 37.3378 17.5738 37.1747C17.0416 37.1747 16.5094 37.1747 15.9611 37.1747C15.8851 36.9373 15.8091 36.6999 15.7307 36.4553C15.5778 36.4262 15.4249 36.3972 15.2673 36.3672C14.218 36.16 13.2584 35.9387 12.275 35.4961C11.7388 35.3314 11.2014 35.1705 10.6623 35.0164C10.5863 34.9373 10.5102 34.8582 10.4319 34.7766C9.8237 34.6975 9.21548 34.6184 8.58884 34.5368C7.9046 33.8246 7.22036 33.1124 6.51538 32.3785C6.51538 30.9541 6.51538 29.5296 6.51538 28.062C7.04757 27.508 7.57975 26.9541 8.12807 26.3833C8.2041 25.8294 8.28012 25.2754 8.35845 24.7047C8.81249 24.197 9.22066 23.7814 9.79835 23.4307C10.5386 22.9579 11.139 22.3928 11.7773 21.7829C12.275 21.3473 12.275 21.3473 12.9157 20.9183C13.8271 20.2667 14.6003 19.5164 15.3996 18.7244C15.5485 18.5787 15.6974 18.4329 15.8509 18.2827C16.8671 17.2852 17.8636 16.2709 18.8265 15.2172C19.4169 14.6327 19.4169 14.6327 20.0936 14.183C20.688 13.7537 20.9951 13.4613 21.4327 12.894C22.1669 11.9544 23.0348 11.2584 23.9508 10.5184C24.5607 10.014 25.0941 9.45786 25.6373 8.87724C26.2845 8.23467 26.9147 7.62067 27.7116 7.18734C28.0903 7.01852 28.4759 6.86682 28.8626 6.71896C29.1477 6.35542 29.1477 6.35542 29.4386 5.98454C30.1206 5.15326 30.8645 4.44436 31.6659 3.74008C32.0562 3.39016 32.4201 3.02632 32.7792 2.6422C33.0072 2.56306 33.2353 2.48393 33.4703 2.40239C33.5463 2.24412 33.6224 2.08584 33.7007 1.92277C34.3089 1.7645 34.9171 1.60623 35.5438 1.44316C35.6958 1.04747 35.8479 0.651785 36.0045 0.244109C37.0169 0.0384881 37.9687 -0.0171594 38.9995 0.00430007Z" fill="rgb(232,192,55)" fill-rule="nonzero" />
		<path id="矢量 29" d="M8.12809 35.2563C8.25371 35.3463 8.37934 35.4362 8.50877 35.5289C9.4182 36.1713 10.3234 36.7755 11.2959 37.3097C11.6271 37.4954 11.9543 37.6894 12.275 37.8942C12.4603 38.092 12.6456 38.2899 12.8366 38.4937C13.3803 39.1009 13.3803 39.1009 13.9759 39.4014C14.3849 39.6044 14.7944 39.8064 15.2043 40.0075C15.7308 40.2923 15.7308 40.2923 16.2203 40.7869C16.3629 40.9402 16.5054 41.0936 16.6523 41.2515C17.2521 41.605 17.8685 41.913 18.4954 42.2108C18.6308 42.4259 18.6308 42.4259 18.769 42.6454C18.9068 42.8185 19.0446 42.9916 19.1865 43.17C19.5656 43.418 19.9507 43.6562 20.3384 43.8894C20.8069 44.2585 21.2692 44.6345 21.7289 45.0154C22.1699 45.3529 22.1699 45.3529 22.699 45.4913C22.8323 45.5166 22.9657 45.542 23.1031 45.5681C23.1031 45.8055 23.1031 46.0429 23.1031 46.2875C23.2551 46.337 23.4072 46.3864 23.5638 46.4374C24.1841 46.7333 24.569 47.0146 25.0901 47.4566C25.644 47.9072 26.1323 48.2214 26.7802 48.5133C27.3944 48.7433 28.0092 48.9626 28.6323 49.1652C28.7843 49.7192 28.9364 50.2732 29.093 50.8439C29.3354 50.9082 29.5777 50.9725 29.8274 51.0387C30.7057 51.3235 30.7057 51.3235 31.2961 51.6083C32.0697 52.2071 32.6413 52.94 33.24 53.7216C33.6201 53.8799 34.0002 54.0382 34.3919 54.2012C34.9621 54.9135 34.9621 54.9135 35.5438 55.6401C36.076 55.7984 36.6082 55.9566 37.1565 56.1197C37.2687 56.2387 37.381 56.3577 37.4967 56.4804C38.2922 57.2738 39.0458 57.9353 40.021 58.4803C40.2988 58.6195 40.5775 58.7569 40.857 58.8925C41.8635 59.3869 42.7233 59.8693 43.564 60.6311C43.9861 61.0405 43.9861 61.0405 44.2984 61.3955C44.3744 61.5538 44.4504 61.7121 44.5288 61.8751C45.6692 62.3499 46.8096 62.8248 47.9845 63.314C48.2126 63.6305 48.4407 63.9471 48.6757 64.2732C48.861 64.3227 49.0463 64.3721 49.2372 64.4231C50.3156 64.8563 51.1892 65.5042 52.1314 66.1917C52.3595 66.35 52.5876 66.5082 52.8226 66.6713C52.8226 66.8296 52.8226 66.9879 52.8226 67.1509C53.2027 67.2301 53.5829 67.3092 53.9745 67.3907C53.9745 67.7073 53.9745 68.0238 53.9745 68.35C54.1171 68.4192 54.2596 68.4885 54.4065 68.5598C54.568 68.6488 54.7296 68.7379 54.8961 68.8296C55.0481 68.9879 55.2002 69.1461 55.3568 69.3092C55.8905 69.5582 56.4279 69.799 56.9695 70.0286C56.9695 70.1869 56.9695 70.3452 56.9695 70.5083C57.2261 70.5528 57.2261 70.5528 57.4879 70.5982C58.0757 70.7372 58.5192 70.9248 59.043 71.2277C59.043 71.386 59.043 71.5442 59.043 71.7073C59.2283 71.7889 59.2283 71.7889 59.4173 71.8722C59.9645 72.1869 59.9645 72.1869 60.6413 72.7864C60.8741 72.9843 61.1069 73.1821 61.3468 73.386C61.5369 73.4602 61.7269 73.5343 61.9228 73.6108C62.1128 73.6949 62.3029 73.779 62.4987 73.8656C62.8281 74.2163 63.1571 74.5675 63.4797 74.9251C64.08 75.4925 64.7684 75.8373 65.4838 76.2253C65.9545 76.5035 65.9545 76.5035 66.4873 77.0281C66.6155 77.1715 66.7438 77.3149 66.876 77.4627C67.3675 77.7589 67.3675 77.7589 67.7976 77.9424C67.8736 78.1006 67.9496 78.2589 68.0279 78.422C68.256 78.5011 68.4841 78.5802 68.7191 78.6618C68.8221 78.7919 68.9252 78.9221 69.0314 79.0562C69.8922 80.1226 69.8922 80.1226 70.9221 80.9999C71.1075 81.0988 71.2928 81.1978 71.4837 81.2997C72.3503 81.8703 73.0889 82.435 73.7875 83.2182C73.7875 83.3764 73.7875 83.5347 73.7875 83.6978C74.2437 83.856 74.6999 84.0143 75.1698 84.1774C75.1698 84.3357 75.1698 84.4939 75.1698 84.657C75.3583 84.7539 75.3583 84.7539 75.5505 84.8528C76.1625 85.1739 76.7685 85.5047 77.3729 85.8411C77.5918 85.9619 77.8106 86.0828 78.0361 86.2073C78.5596 86.5342 78.896 86.8469 79.3168 87.2949C79.7121 87.4735 80.1078 87.6514 80.5074 87.8195C81.3973 88.2303 82.15 88.8305 82.8877 89.4832C83.4602 89.9736 83.4602 89.9736 84.2268 90.2326C84.4311 90.2919 84.6355 90.3513 84.846 90.4124C84.922 90.4916 84.998 90.5707 85.0764 90.6522C85.5325 90.6522 85.9887 90.6522 86.4587 90.6522C86.5999 90.4904 86.5999 90.4904 86.7439 90.3253C87.1498 89.9328 87.1498 89.9328 87.6205 89.6527C87.7835 89.572 87.9466 89.4913 88.1146 89.4082C88.2794 89.3257 88.4442 89.2432 88.614 89.1581C88.7391 89.0972 88.8641 89.0363 88.9929 88.9736C89.1449 88.9736 89.297 88.9736 89.4537 88.9736C89.6057 88.657 89.7578 88.3405 89.9144 88.0143C90.0395 87.9188 90.1645 87.8233 90.2933 87.7249C90.4581 87.5978 90.6229 87.4708 90.7928 87.3399C90.9558 87.2147 91.1189 87.0895 91.2868 86.9605C91.7572 86.5923 91.7572 86.5923 92.1319 86.1811C92.2887 86.0202 92.2887 86.0202 92.4487 85.856C92.8326 85.6962 93.2166 85.5363 93.6006 85.3764C94.9019 84.6148 96.128 83.7173 97.2867 82.7385C97.4022 82.6124 97.5178 82.4863 97.6368 82.3563C97.7494 82.245 97.8619 82.1338 97.9779 82.0191C98.2345 81.9103 98.4911 81.8015 98.7554 81.6894C99.031 81.5608 99.3066 81.4322 99.5906 81.2997C99.9794 80.9051 100.363 80.5052 100.742 80.1006C101.136 79.8355 101.538 79.6039 101.95 79.3718C102.852 78.8585 103.656 78.2534 104.443 77.5676C105.12 76.9831 105.12 76.9831 105.681 76.6684C106.275 76.2612 106.632 75.8639 107.092 75.3044C107.221 75.1412 107.35 74.978 107.482 74.8098C107.894 74.3345 108.296 73.9817 108.806 73.6258C109.343 73.386 109.881 73.1462 110.419 72.9064C110.957 72.5315 110.957 72.5315 111.34 72.1869C111.492 71.8704 111.644 71.5538 111.801 71.2277C112.105 71.2277 112.409 71.2277 112.722 71.2277C112.798 70.9903 112.875 70.7529 112.953 70.5083C113.105 70.4539 113.257 70.3994 113.414 70.3434C114.321 69.9304 115.142 69.4282 115.948 68.8296C116.143 68.6219 116.337 68.4141 116.538 68.2001C116.724 68.0121 116.909 67.8242 117.1 67.6305C117.49 67.4621 117.88 67.2941 118.274 67.1378C118.996 66.7647 119.55 66.2063 120.142 65.6446C120.515 65.2726 120.883 64.896 121.247 64.513C121.582 64.4388 121.582 64.4388 121.923 64.3631C122.47 64.2026 122.897 64.0101 123.388 63.7065C123.746 63.4546 124.102 63.1995 124.457 62.9412C124.933 62.5946 124.933 62.5946 125.552 62.2198C126.134 61.8626 126.134 61.8626 126.776 61.2606C127.004 61.0677 127.232 60.8748 127.467 60.6761C127.652 60.6019 127.838 60.5277 128.029 60.4513C128.608 60.2361 128.608 60.2361 128.976 59.8911C129.105 59.7693 129.235 59.6475 129.368 59.522C130.125 58.815 130.917 58.3254 131.818 57.8405C132.325 57.547 132.771 57.211 133.227 56.8391C133.379 56.8391 133.531 56.8391 133.687 56.8391C133.687 56.6809 133.687 56.5226 133.687 56.3595C134.372 56.1221 134.372 56.1221 135.07 55.8799C135.146 55.6425 135.222 55.4051 135.3 55.1605C135.504 55.0665 135.709 54.9725 135.919 54.8757C136.727 54.4154 137.192 53.9257 137.834 53.242C138.514 52.6669 139.209 52.1132 139.908 51.5633C140.06 51.5633 140.212 51.5633 140.369 51.5633C140.445 51.3259 140.521 51.0885 140.599 50.8439C140.841 50.7153 141.084 50.5867 141.333 50.4542C141.813 50.1723 142.188 49.9097 142.575 49.5006C142.847 49.1569 143.107 48.8022 143.364 48.4458C143.668 48.4458 143.972 48.4458 144.285 48.4458C144.285 48.2875 144.285 48.1293 144.285 47.9662C147.096 46.1291 147.096 46.1291 147.957 45.748C148.649 45.3803 148.649 45.3803 149.057 44.9096C149.397 44.4967 149.726 44.0794 150.045 43.6496C150.32 43.5556 150.596 43.4617 150.88 43.3648C151.395 43.1653 151.829 42.9735 152.277 42.6407C152.611 42.3407 152.941 42.036 153.27 41.7311C153.652 41.4874 154.035 41.2466 154.422 41.0117C154.574 40.8534 154.726 40.6952 154.883 40.5321C155.187 40.5321 155.491 40.5321 155.804 40.5321C155.956 40.2155 156.108 39.899 156.265 39.5729C156.861 39.0437 157.399 38.6225 158.108 38.2689C158.45 38.0834 158.45 38.0834 158.799 37.8942C158.994 37.6914 159.189 37.4886 159.39 37.2797C159.575 37.0868 159.76 36.8939 159.951 36.6952C160.498 36.4254 160.498 36.4254 161.103 36.2155C161.35 36.0869 161.597 35.9583 161.852 35.8258C162.716 35.4961 162.716 35.4961 163.215 35.4249C163.921 35.3996 164.574 35.4493 165.266 35.6001C165.762 35.7629 166.18 35.9482 166.632 36.2155C167.283 36.7383 167.886 37.2985 168.475 37.8942C168.818 39.511 169.021 41.0764 168.998 42.7344C168.938 43.395 168.812 43.9288 168.591 44.5489C168.477 44.8061 168.363 45.0633 168.245 45.3283C168.093 45.3283 167.941 45.3283 167.784 45.3283C167.632 45.6448 167.48 45.9614 167.323 46.2875C167.019 46.5249 166.715 46.7623 166.402 47.007C166.25 47.007 166.098 47.007 165.941 47.007C165.789 47.3235 165.637 47.64 165.48 47.9662C164.72 48.5993 163.96 49.2324 163.177 49.8847C162.659 50.0018 162.142 50.1189 161.624 50.2359C161.07 50.364 161.07 50.364 160.412 50.6041C160.336 50.9998 160.26 51.3955 160.182 51.8031C160.106 51.8823 160.03 51.9614 159.951 52.0429C159.571 52.0429 159.191 52.0429 158.799 52.0429C158.799 52.2012 158.799 52.3595 158.799 52.5226C158.115 52.6413 158.115 52.6413 157.417 52.7624C157.341 52.9998 157.265 53.2372 157.187 53.4818C157.035 53.4818 156.882 53.4818 156.726 53.4818C156.65 53.7192 156.574 53.9566 156.495 54.2012C156.153 54.3199 156.153 54.3199 155.804 54.441C155.728 54.6785 155.652 54.9159 155.574 55.1605C155.361 55.3037 155.361 55.3037 155.145 55.4499C154.865 55.6405 154.865 55.6405 154.58 55.8349C154.396 55.9601 154.212 56.0853 154.021 56.2143C153.564 56.5523 153.19 56.8921 152.809 57.3187C152.277 57.3979 151.745 57.477 151.197 57.5586C151.045 57.8751 150.892 58.1917 150.736 58.5178C150.432 58.7552 150.128 58.9926 149.814 59.2372C149.662 59.2372 149.51 59.2372 149.354 59.2372C149.277 59.4746 149.201 59.712 149.123 59.9566C148.962 60.0556 148.8 60.1545 148.634 60.2564C147.939 60.6967 147.263 61.1618 146.589 61.6353C146.437 61.6353 146.285 61.6353 146.128 61.6353C146.128 61.7936 146.128 61.9519 146.128 62.1149C145.929 62.2534 145.729 62.3919 145.523 62.5346C145.332 62.6677 145.332 62.6677 145.137 62.8035C144.793 63.0417 144.446 63.2756 144.098 63.5088C142.958 64.323 141.808 65.1725 140.829 66.1917C140.525 66.1917 140.221 66.1917 139.908 66.1917C139.832 66.5082 139.756 66.8248 139.677 67.1509C139.497 67.235 139.316 67.3191 139.13 67.4057C138.005 67.9859 137.007 68.7864 135.991 69.549C135.839 69.549 135.687 69.549 135.53 69.549C135.454 69.7864 135.378 70.0238 135.3 70.2684C135.096 70.3327 134.891 70.397 134.681 70.4633C133.971 70.7282 133.397 71.0427 132.766 71.4675C132.538 71.4675 132.31 71.4675 132.075 71.4675C131.923 71.784 131.771 72.1006 131.614 72.4267C131.31 72.4267 131.006 72.4267 130.692 72.4267C130.692 72.585 130.692 72.7433 130.692 72.9064C130.084 72.9855 129.476 73.0646 128.849 73.1462C128.849 73.4627 128.849 73.7793 128.849 74.1054C128.745 74.2093 128.64 74.3131 128.533 74.4202C128.112 74.8507 128.112 74.8507 127.697 75.5443C126.671 76.1378 126.671 76.1378 125.624 76.7433C125.396 76.7433 125.168 76.7433 124.933 76.7433C124.933 76.9016 124.933 77.0599 124.933 77.2229C124.705 77.2229 124.477 77.2229 124.242 77.2229C124.166 77.6186 124.09 78.0143 124.011 78.422C123.707 78.5011 123.403 78.5802 123.09 78.6618C123.09 78.8201 123.09 78.9783 123.09 79.1414C122.71 79.2205 122.329 79.2997 121.938 79.3812C121.767 79.5593 121.596 79.7373 121.419 79.9208C121.106 80.2472 121.106 80.2472 120.786 80.5802C120.572 80.8251 120.572 80.8251 120.354 81.0749C119.844 81.5583 119.314 81.8563 118.71 82.1943C118.152 82.565 117.699 83.0036 117.215 83.4729C116.72 83.9472 116.276 84.3607 115.688 84.701C115.32 84.8627 114.943 85.0027 114.566 85.1366C114.489 85.2949 114.413 85.4532 114.335 85.6162C114.168 85.7158 114 85.8153 113.828 85.9179C113.199 86.3256 112.656 86.7695 112.089 87.2649C111.05 88.1432 109.99 88.8129 108.806 89.4532C108.421 89.6906 108.036 89.929 107.654 90.1726C107.502 90.1726 107.35 90.1726 107.193 90.1726C107.041 90.4892 106.889 90.8057 106.732 91.1319C106.485 91.2407 106.238 91.3495 105.984 91.4616C104.784 92.0827 103.818 92.9789 102.808 93.8812C101.494 95.0509 100.141 96.1788 98.669 97.1271C98.4409 97.2062 98.2129 97.2854 97.9779 97.3669C97.9779 97.5252 97.9779 97.6834 97.9779 97.8465C97.2099 98.3261 96.442 98.8058 95.674 99.2854C95.522 99.2854 95.3699 99.2854 95.2133 99.2854C95.1372 99.5228 95.0612 99.7602 94.9829 100.005C94.8356 100.094 94.6883 100.183 94.5365 100.275C93.5921 100.876 92.6763 101.52 91.7575 102.163C91.5294 102.321 91.3013 102.48 91.0663 102.643C90.9903 102.88 90.9143 103.118 90.836 103.362C90.7023 103.417 90.5687 103.473 90.431 103.53C89.5317 103.921 88.7129 104.303 87.9562 104.951C87.7661 105.139 87.576 105.327 87.3802 105.52C87.3042 105.679 87.2281 105.837 87.1498 106C86.3135 106 85.4772 106 84.6156 106C83.6605 105.538 82.8754 105.042 82.0814 104.321C81.6928 103.927 81.3084 103.527 80.9295 103.122C80.7917 102.979 80.6539 102.835 80.5119 102.688C80.4216 102.594 80.3313 102.5 80.2383 102.403C80.2383 102.245 80.2383 102.086 80.2383 101.923C80.11 101.899 79.9817 101.874 79.8495 101.848C79.2034 101.648 78.7279 101.35 78.1648 100.964C77.7791 100.647 77.3949 100.327 77.0129 100.005C76.8609 99.9257 76.7088 99.8465 76.5522 99.765C76.5522 99.6067 76.5522 99.4484 76.5522 99.2854C76.3241 99.2062 76.096 99.1271 75.861 99.0456C75.785 98.8873 75.7089 98.729 75.6306 98.5659C75.4691 98.5016 75.3075 98.4373 75.1411 98.3711C73.5344 97.6803 72.2007 96.7352 70.7925 95.6882C70.5645 95.53 70.3364 95.3717 70.1014 95.2086C70.1014 95.0503 70.1014 94.8921 70.1014 94.729C69.7213 94.729 69.3411 94.729 68.9495 94.729C68.8592 94.6202 68.7689 94.5114 68.6759 94.3993C68.5381 94.2707 68.4003 94.1421 68.2583 94.0096C67.6595 93.7241 67.6595 93.7241 67.1064 93.53C66.9353 93.2826 66.7643 93.0353 66.588 92.7805C66.2102 92.2966 66.2102 92.2966 65.7241 91.8513C65.0399 91.4503 64.3418 91.1099 63.629 90.7675C62.8638 90.3617 62.3032 89.8765 61.6798 89.2715C61.3323 88.9313 61.3323 88.9313 60.7564 88.7038C60.5711 88.6345 60.3858 88.5653 60.1949 88.494C59.4893 88.0593 59.4893 88.0593 58.8126 87.5347C58.2654 86.8752 58.2654 86.8752 57.891 86.3357C57.663 86.2565 57.4349 86.1774 57.1999 86.0959C57.1999 85.9376 57.1999 85.7793 57.1999 85.6162C56.9558 85.5838 56.9558 85.5838 56.7067 85.5507C56.048 85.3764 56.048 85.3764 55.4036 84.9924C55.0668 84.7522 55.0668 84.7522 54.7233 84.5071C54.4818 84.3349 54.2404 84.1628 53.9916 83.9854C53.1918 83.3898 52.4169 82.7687 51.6482 82.1306C51.1428 81.7255 50.6072 81.3962 50.058 81.0599C49.6404 80.6552 49.6404 80.6552 49.3668 80.3404C49.3668 80.103 49.3668 79.8656 49.3668 79.621C48.7586 79.5419 48.1504 79.4627 47.5238 79.3812C47.3717 79.2229 47.2197 79.0647 47.063 78.9016C47.063 78.6642 47.063 78.4268 47.063 78.1822C46.9294 78.1414 46.7957 78.1005 46.658 78.0585C45.7634 77.7696 44.9497 77.4859 44.1688 76.9381C43.9835 76.7947 43.7982 76.6513 43.6072 76.5035C43.5312 76.2661 43.4552 76.0287 43.3769 75.7841C43.2201 75.7297 43.0632 75.6752 42.9017 75.6192C42.0415 75.2191 41.3675 74.6912 40.6122 74.1054C40.6122 73.9471 40.6122 73.7888 40.6122 73.6258C40.2321 73.5466 39.852 73.4675 39.4603 73.386C39.0802 73.0694 38.7001 72.7529 38.3084 72.4267C37.3961 72.1893 37.3961 72.1893 36.4653 71.9471C36.3513 71.8185 36.2373 71.6899 36.1198 71.5574C35.3654 70.8114 34.5409 70.1858 33.7007 69.549C33.7007 69.2325 33.7007 68.9159 33.7007 68.5898C33.0165 68.3524 33.0165 68.3524 32.3184 68.1102C31.8623 67.5562 31.4061 67.0023 30.9361 66.4315C30.2519 66.1941 30.2519 66.1941 29.5538 65.9519C29.4778 65.7936 29.4018 65.6353 29.3234 65.4723C28.9813 65.3536 28.9813 65.3536 28.6323 65.2325C28.6323 64.995 28.6323 64.7576 28.6323 64.513C28.4793 64.4694 28.3264 64.4258 28.1688 64.3809C27.319 64.1291 26.5045 63.8831 25.7093 63.4789C25.0958 63.0128 24.5387 62.4964 23.9697 61.9735C23.5366 61.5884 23.5366 61.5884 22.8439 61.2606C22.6253 61.1469 22.4067 61.0331 22.1815 60.9159C22.02 60.7279 21.8584 60.54 21.692 60.3463C21.4734 60.1386 21.2548 59.9309 21.0296 59.7168C20.5982 59.514 20.1605 59.3256 19.7193 59.1473C18.4982 58.6514 17.4938 58.034 16.4354 57.2344C16.0159 56.8848 15.6394 56.5251 15.27 56.1197C15.27 55.9614 15.27 55.8032 15.27 55.6401C15.1179 55.6203 14.9659 55.6005 14.8092 55.5801C14.051 55.3828 13.4098 55.1095 12.716 54.7389C12.275 54.441 12.275 54.441 11.9492 54.0832C11.8572 53.9589 11.7651 53.8347 11.6702 53.7066C11.4897 53.4742 11.3091 53.2417 11.1231 53.0022C10.6644 52.7581 10.2033 52.5188 9.74078 52.2828C9.42284 52.0052 9.1112 51.7197 8.80485 51.4284C8.26445 50.9167 7.8722 50.5914 7.20656 50.2594C6.97848 50.1926 6.97848 50.1926 6.74579 50.1245C6.66976 49.8871 6.59373 49.6497 6.5154 49.405C6.39186 49.3407 6.26832 49.2764 6.14103 49.2102C5.96047 49.1162 5.7799 49.0222 5.59387 48.9254C5.25175 48.7622 5.25175 48.7622 4.90272 48.5957C4.21156 48.206 4.21156 48.206 3.7364 47.7264C3.58909 47.5681 3.44179 47.4098 3.29003 47.2468C3.01918 47.0835 3.01918 47.0835 2.74287 46.917C1.95299 46.408 1.39719 45.7872 0.755803 45.0885C0.412827 44.2703 0.106284 43.5267 0.0025548 42.6379C-0.0178678 41.5402 0.0833524 40.4645 0.334632 39.3977C0.62585 38.5669 1.06348 37.8807 1.55495 37.1635C1.94583 36.6446 2.3544 36.1732 2.82926 35.7359C4.58086 35.1406 6.30878 35.2119 8.12809 35.2563Z" fill="rgb(232,192,55)" fill-rule="nonzero" />
	</g>
</svg>
