<svg viewBox="0 0 112 156" xmlns="http://www.w3.org/2000/svg" xmlns:xlink="http://www.w3.org/1999/xlink" width="111.999992" height="156.000000" fill="none" customFrame="#000000">
	<g id="组合 7">
		<path id="矢量 185" d="M89.7736 0C90.8504 0 91.9272 0 93.0367 0C93.2655 0.369442 93.4944 0.738883 93.7301 1.11952C94.3621 2.13199 95.0166 3.12489 95.688 4.11169C96.423 5.2016 97.0395 6.30213 97.6051 7.49061C97.7128 7.59808 97.8205 7.70555 97.9314 7.81628C98.0391 9.32092 98.1468 10.8256 98.2577 12.3758C98.4731 12.6982 98.6885 13.0206 98.9104 13.3528C99.0543 13.9656 99.175 14.5841 99.2775 15.2051C99.3322 15.5288 99.3868 15.8525 99.4432 16.186C99.4827 16.4332 99.5223 16.6805 99.563 16.9353C99.886 17.0428 100.209 17.1502 100.542 17.261C100.542 24.4617 100.542 31.6625 100.542 39.0814C100.327 39.4038 100.111 39.7263 99.8893 40.0585C99.695 40.7559 99.695 40.7559 99.563 41.5037C99.4151 42.2827 99.2729 42.9182 98.9129 43.6269C98.5247 44.4125 98.3757 45.142 98.2169 46.0021C98.1623 46.2926 98.1076 46.5831 98.0512 46.8824C98.0117 47.1024 97.9722 47.3224 97.9314 47.5491C97.8237 47.6565 97.7161 47.764 97.6051 47.8747C97.3897 48.842 97.1744 49.8093 96.9525 50.8058C96.7371 50.9133 96.5218 51.0208 96.2999 51.1315C96.2246 51.3448 96.1493 51.5581 96.0717 51.7778C95.4694 53.46 94.8446 55.132 94.1788 56.7902C94.0543 57.1017 93.9298 57.4132 93.8015 57.7341C93.3241 58.7009 92.744 59.4201 92.0578 60.2505C91.5793 60.9655 91.1106 61.6817 90.6505 62.4081C90.4599 62.7063 90.4599 62.7063 90.2654 63.0104C89.6627 63.9537 89.0646 64.8996 88.4683 65.8468C88.2731 66.1563 88.078 66.4657 87.8769 66.7844C87.7065 67.0569 87.5361 67.3294 87.3606 67.6101C86.7953 68.4544 86.1772 69.2366 85.5315 70.0209C85.3161 70.0209 85.1008 70.0209 84.8789 70.0209C84.804 70.2018 84.7291 70.3828 84.652 70.5692C84.1087 71.5319 83.424 72.1981 82.6354 72.9723C82.3536 73.2515 82.0718 73.5307 81.7814 73.8183C81.0985 74.4542 80.4184 75.019 79.6578 75.5574C79.5745 75.7501 79.4913 75.9428 79.4054 76.1413C79.0052 76.8601 79.0052 76.8601 78.4622 77.4059C78.251 77.5818 78.0399 77.7577 77.8223 77.9389C76.8885 78.7243 75.9729 79.5214 75.069 80.3408C73.9481 81.3252 72.8056 82.0069 71.5 82.7223C71.325 82.897 71.15 83.0716 70.9697 83.2516C70.7476 83.4732 70.7476 83.4732 70.521 83.6994C70.1475 83.8404 70.1475 83.8404 69.7664 83.9843C69.477 84.1053 69.1876 84.2262 68.8895 84.3507C68.5664 84.6194 68.2434 84.8881 67.9105 85.1649C67.5875 85.4336 67.2644 85.7023 66.9316 85.9791C66.3886 86.1985 65.8448 86.4158 65.3 86.6305C65.0981 86.8387 64.8962 87.0469 64.6882 87.2615C64.4593 87.4831 64.2305 87.7048 63.9947 87.9332C62.6165 88.5955 61.2097 89.1005 59.7527 89.5616C59.7527 89.9915 59.7527 90.4214 59.7527 90.8643C59.4229 90.9382 59.0931 91.0121 58.7533 91.0882C58.06 91.2841 57.5098 91.4895 56.9 91.8757C56.5226 92.1577 56.1462 92.4411 55.7706 92.7255C54.7743 93.4367 53.6766 93.9225 52.5737 94.4468C49.9798 95.7052 49.9798 95.7052 47.4547 97.0929C45.6477 98.1137 43.7392 98.9071 41.8054 99.6576C41.5496 99.7651 41.2939 99.8726 41.0304 99.9833C40.1738 100.309 40.1738 100.309 39.1158 100.563C38.1543 100.875 37.5822 101.105 36.773 101.642C36.4087 101.9 36.0467 102.162 35.687 102.426C35.5032 102.557 35.3193 102.689 35.13 102.824C34.6346 103.178 34.141 103.535 33.6475 103.891C33.3245 104.106 33.0014 104.321 32.6686 104.543C32.3455 104.543 32.0225 104.543 31.6896 104.543C31.4743 105.08 31.2589 105.618 31.037 106.171C30.46 106.546 29.882 106.919 29.3035 107.291C28.9817 107.499 28.6599 107.706 28.3283 107.92C27.4476 108.451 27.4476 108.451 26.4686 108.777C26.4686 108.992 26.4686 109.207 26.4686 109.428C25.4995 109.75 24.5303 110.073 23.5318 110.405C23.3164 110.835 23.101 111.265 22.8792 111.708C22.251 112.321 21.6231 112.903 20.9621 113.479C19.7338 114.554 18.6456 115.607 17.6581 116.919C17.4428 116.919 17.2274 116.919 17.0055 116.919C16.8743 117.191 16.8743 117.191 16.7404 117.468C16.1876 118.543 15.5688 119.566 14.8845 120.562C14.1765 121.887 13.8121 123.291 13.416 124.735C13.093 124.842 12.7699 124.95 12.4371 125.061C12.4371 125.598 12.4371 126.135 12.4371 126.689C12.3294 126.796 12.2217 126.904 12.1108 127.015C11.8954 129.916 11.68 132.818 11.4582 135.808C11.3505 135.915 11.2428 136.023 11.1318 136.134C11.0242 137.638 10.9165 139.143 10.8055 140.693C11.7747 140.586 12.7438 140.478 13.7424 140.367C14.4094 139.914 15.0755 139.459 15.741 139.004C15.9269 138.877 16.1129 138.751 16.3044 138.621C18.496 137.118 20.5246 135.468 22.21 133.398C22.6569 132.836 23.1015 132.272 23.5433 131.705C24.1539 130.96 24.8063 130.298 25.4897 129.62C26.2439 128.476 26.8458 127.267 27.4475 126.038C27.4475 125.608 27.4475 125.178 27.4475 124.735C26.829 124.717 26.2103 124.705 25.5916 124.694C25.0749 124.683 25.0749 124.683 24.5477 124.671C24.0448 124.703 24.0448 124.703 23.5318 124.735C22.9844 124.943 22.4401 125.159 21.9002 125.386C21.1698 125.45 21.1698 125.45 20.493 125.427C20.0959 125.413 19.6988 125.4 19.2897 125.386C19.182 125.279 19.0743 125.171 18.9634 125.061C18.9634 124.416 18.9634 123.771 18.9634 123.106C19.5005 122.119 20.0365 121.38 20.8193 120.562C21.0683 120.327 21.3173 120.092 21.5739 119.85C21.7893 119.85 22.0046 119.85 22.2265 119.85C22.4419 119.42 22.6573 118.99 22.8792 118.547C23.5253 118.44 24.1714 118.332 24.837 118.221C25.0524 117.899 25.2678 117.576 25.4897 117.244C28.0205 116.687 30.4059 116.512 32.9949 116.593C33.5194 116.896 34.0426 117.202 34.5653 117.509C34.8568 117.679 35.1483 117.849 35.4486 118.024C36.1498 118.477 36.6802 118.909 37.237 119.524C37.5695 121.429 37.6018 123.272 37.5837 125.203C37.5822 125.503 37.5807 125.804 37.5792 126.113C37.5754 126.848 37.5701 127.583 37.5633 128.317C37.4556 128.532 37.3479 128.747 37.237 128.969C37.1637 129.469 37.1038 129.972 37.0534 130.475C37.0124 130.874 37.0124 130.874 36.9706 131.282C36.9508 131.486 36.931 131.69 36.9107 131.9C36.6953 132.222 36.4799 132.545 36.258 132.877C36.1705 133.159 36.083 133.441 35.9929 133.732C35.4808 135.184 34.8116 136.469 33.9738 137.762C33.436 138.431 32.8733 139.064 32.2926 139.696C31.2629 140.843 30.3399 142.074 29.4054 143.299C29.0824 143.406 28.7593 143.513 28.4265 143.624C28.3188 143.947 28.2111 144.269 28.1002 144.601C27.8714 144.715 27.6425 144.83 27.4068 144.947C26.3613 145.65 25.6765 146.429 24.8817 147.394C24.698 147.624 24.698 147.624 24.5107 147.858C24.1944 147.992 23.8781 148.127 23.5522 148.265C22.3304 148.785 21.1224 149.334 19.9156 149.887C19.709 149.97 19.5025 150.053 19.2897 150.138C19.0743 150.138 18.859 150.138 18.6371 150.138C18.6371 150.353 18.6371 150.568 18.6371 150.789C18.2295 150.946 17.8215 151.102 17.4134 151.257C17.1862 151.344 16.9591 151.431 16.7251 151.521C16.0623 151.754 15.4054 151.933 14.7213 152.092C14.7213 152.307 14.7213 152.522 14.7213 152.743C14.2522 153.171 14.2522 153.171 13.416 153.72C12.6817 153.987 11.9399 154.218 11.1943 154.45C10.3293 154.749 9.60065 155.158 8.84764 155.674C8.73995 155.782 8.63227 155.889 8.52133 156C6.6907 156 4.86008 156 2.97398 156C2.75861 155.463 2.54325 154.925 2.32135 154.372C2.1531 154.096 1.98484 153.821 1.81149 153.537C1.34241 152.418 1.34241 152.418 1.2073 151.424C1.12723 150.453 1.06188 149.483 1.0161 148.509C0.800729 148.509 0.58536 148.509 0.363469 148.509C0.0338882 147.42 -0.00232029 146.431 0.000109542 145.295C0.000129458 144.91 0.000159333 144.526 0.00017925 144.129C0.00187216 143.716 0.00355512 143.302 0.00528787 142.876C0.00574595 142.452 0.00621399 142.027 0.00669199 141.589C0.00792682 140.463 0.0111334 139.336 0.0147483 138.21C0.0180943 137.059 0.0195781 135.909 0.0212212 134.758C0.0247166 132.503 0.0302832 130.247 0.0371545 127.992C0.521726 127.347 0.521726 127.347 1.0161 126.689C1.23147 125.614 1.44683 124.539 1.66873 123.432C1.88409 123.217 2.09946 123.002 2.32135 122.781C2.3571 122.592 2.39286 122.403 2.4297 122.208C2.68627 120.947 2.96558 119.868 3.50424 118.689C3.72634 118.297 3.72634 118.297 3.95293 117.896C4.16829 117.896 4.38366 117.896 4.60555 117.896C4.71323 117.036 4.82092 116.176 4.93187 115.29C5.36261 114.968 5.79334 114.645 6.23712 114.313C6.34481 113.883 6.45249 113.453 6.56344 113.01C6.77881 113.01 6.99418 113.01 7.21607 113.01C7.21607 112.473 7.21607 111.936 7.21607 111.382C7.53912 111.06 7.86217 110.737 8.19501 110.405C8.51806 110.298 8.84111 110.19 9.17395 110.079C9.28164 109.864 9.38932 109.649 9.50027 109.428C9.71564 109.428 9.931 109.428 10.1529 109.428C10.2606 108.998 10.3683 108.568 10.4792 108.125C11.9329 106.836 11.9329 106.836 13.416 105.52C13.6314 105.52 13.8468 105.52 14.0687 105.52C14.284 104.875 14.4994 104.23 14.7213 103.566C14.9615 103.431 15.2017 103.296 15.4491 103.157C16.3268 102.605 17.0107 102.019 17.7601 101.306C18.4852 100.647 19.1474 100.064 20.0022 99.5813C20.4405 99.3796 20.8797 99.1801 21.3202 98.9834C22.0002 98.6623 22.0002 98.6623 22.7772 97.846C23.1507 97.4531 23.1507 97.4531 23.5318 97.0522C24.4193 96.4461 25.2734 96.0284 26.2647 95.607C27.4892 95.0802 28.5858 94.4723 29.7318 93.7954C30.0548 93.7954 30.3779 93.7954 30.7107 93.7954C30.7107 93.5805 30.7107 93.3655 30.7107 93.1441C32.9482 91.9015 35.1268 90.6979 37.5633 89.8873C38.1017 89.2424 38.6401 88.5976 39.1949 87.9332C39.5254 86.4475 39.6262 85.0489 39.6168 83.5289C39.4417 81.4554 38.8671 79.4848 38.2159 77.5115C37.9996 77.0766 37.7823 76.6423 37.5633 76.2088C37.4257 75.6969 37.3033 75.1808 37.1962 74.6618C37.1415 74.4015 37.0868 74.1412 37.0305 73.873C36.9712 73.5783 36.9712 73.5783 36.9107 73.2777C36.4261 72.6328 36.4261 72.6328 35.9317 71.9749C35.6087 71.8675 35.2856 71.76 34.9528 71.6493C34.8266 71.496 34.7004 71.3428 34.5704 71.1849C33.5182 69.9177 33.5182 69.9177 32.2811 68.8403C32.0859 68.6925 31.8907 68.5447 31.6896 68.3925C31.3612 67.851 31.0351 67.308 30.7107 66.7641C30.4348 66.4954 30.1588 66.2267 29.8745 65.9499C29.612 65.6812 29.3496 65.4125 29.0791 65.1357C28.9975 64.8972 28.9159 64.6588 28.8318 64.4131C28.4831 63.5336 28.4831 63.5336 28.0043 62.9749C27.4685 62.382 26.9214 61.8028 26.3666 61.2276C26.1809 61.0311 25.9952 60.8346 25.8039 60.6322C24.9795 59.7632 24.1445 58.908 23.296 58.0624C21.8718 56.6386 20.5858 55.1857 19.616 53.4113C19.293 53.1963 18.9699 52.9814 18.6371 52.7599C18.6371 52.545 18.6371 52.33 18.6371 52.1086C18.4217 52.1086 18.2063 52.1086 17.9844 52.1086C17.7691 51.3562 17.5537 50.6039 17.3318 49.8288C17.1164 49.7213 16.9011 49.6139 16.6792 49.5031C16.6396 49.3104 16.6001 49.1177 16.5594 48.9192C16.4773 48.5332 16.4773 48.5332 16.3937 48.1394C16.3407 47.8862 16.2877 47.633 16.233 47.3722C16.0453 46.5605 16.0453 46.5605 15.6888 45.7858C15.3739 44.9436 15.3739 44.9436 15.2503 43.9526C15.2305 43.6147 15.2107 43.2767 15.1904 42.9285C15.1521 42.2969 15.1064 41.6656 15.0476 41.0355C14.9399 40.8205 14.8322 40.6056 14.7213 40.3841C14.7213 37.1599 14.7213 33.9357 14.7213 30.6138C14.829 30.5063 14.9367 30.3988 15.0476 30.2881C15.0659 29.9739 15.0659 29.9739 15.0846 29.6533C15.2641 27.1901 15.7471 24.8637 16.3529 22.4718C16.4606 22.3643 16.5682 22.2569 16.6792 22.1461C17.433 22.1461 18.1868 22.1461 18.9634 22.1461C19.2693 22.7771 19.2693 22.7771 19.616 23.7745C19.7645 24.7486 19.8609 25.7239 19.9423 26.7056C20.2654 26.8131 20.5884 26.9206 20.9213 27.0313C21.1654 29.3197 21.2926 31.5693 21.2476 33.8706C21.4629 33.8706 21.6783 33.8706 21.9002 33.8706C22.5541 35.4574 23.1907 37.0396 23.7153 38.6743C24.0981 39.8514 24.5889 40.9136 25.1634 42.0125C25.3114 42.3753 25.4595 42.738 25.612 43.1117C26.1288 44.2622 26.7259 45.2637 27.4195 46.3125C27.7739 46.8977 27.7739 46.8977 28.1002 47.8747C28.2546 48.0053 28.4089 48.1359 28.568 48.2704C30.088 49.5746 31.5122 50.943 32.9171 52.3694C33.7909 53.2262 34.7119 54.0089 35.6628 54.7789C36.258 55.3653 36.258 55.3653 36.852 56.2775C37.8228 57.6996 39.0242 58.7973 40.2751 59.9719C40.807 60.485 41.3201 60.996 41.8054 61.5532C42.152 62.1941 42.4799 62.8455 42.7843 63.5073C43.2268 64.1541 43.6824 64.7923 44.1508 65.4207C44.3842 65.7355 44.6177 66.0504 44.8582 66.3748C45.0353 66.6107 45.2124 66.8467 45.3948 67.0898C45.3948 67.3047 45.3948 67.5197 45.3948 67.7411C45.7179 67.8486 46.0409 67.9561 46.3738 68.0668C46.4764 68.3263 46.579 68.5857 46.6848 68.853C46.8244 69.1981 46.9641 69.5432 47.108 69.8988C47.2443 70.2388 47.3806 70.5789 47.521 70.9292C47.9745 71.99 47.9745 71.9899 48.6605 72.9062C49.3218 73.9467 49.6451 74.8312 49.9734 76.0052C50.0374 76.247 50.1013 76.4889 50.1672 76.738C50.7057 78.8196 50.7057 78.8196 51.5948 80.7683C52.0255 80.8757 52.4563 80.9832 52.9001 81.0939C53.0077 80.7715 53.1154 80.4491 53.2264 80.1169C53.8725 79.902 54.5186 79.687 55.1843 79.4656C55.3996 79.2506 55.615 79.0357 55.8369 78.8142C56.3622 78.5848 56.8883 78.3571 57.4188 78.1399C58.7696 77.5576 60.0733 76.8748 61.3842 76.2088C61.5188 75.9602 61.6534 75.7117 61.7921 75.4556C61.9806 75.1668 62.169 74.878 62.3632 74.5804C63.077 73.9901 63.077 73.9901 63.6684 73.6033C64.0539 71.4918 64.0317 69.4144 64.0151 67.273C64.0129 66.7292 64.0129 66.7292 64.0107 66.1744C64.0069 65.2854 64.0015 64.3963 63.9947 63.5073C63.6717 63.1849 63.3486 62.8625 63.0158 62.5303C62.9081 61.8854 62.8004 61.2406 62.6895 60.5762C62.4472 60.3478 62.2049 60.1194 61.9553 59.8841C61.0783 58.9691 60.4446 58.0512 59.7527 56.9937C59.2239 56.328 58.6752 55.6849 58.1211 55.0397C58.1211 54.7172 58.1211 54.3948 58.1211 54.0626C57.6904 53.9552 57.2596 53.8477 56.8158 53.737C55.7794 52.5588 54.9581 51.4327 54.2142 50.0553C53.8514 49.4157 53.8514 49.4157 53.0836 48.6482C52.6706 48.1813 52.6706 48.1813 52.2474 47.5491C51.7814 46.4678 51.3727 45.3775 50.9791 44.2681C50.6406 43.2737 50.6406 43.2737 49.9632 42.3382C49.7702 41.5995 49.6345 40.8596 49.4942 40.1093C49.4336 39.8776 49.373 39.6459 49.3106 39.4071C49.0952 39.0847 48.8799 38.7623 48.658 38.4301C47.8713 34.4762 47.5211 30.7334 47.679 26.7056C47.6929 26.2762 47.7068 25.8467 47.7211 25.4042C47.7758 24.3067 47.8486 23.2338 48.0053 22.1461C48.3175 21.3803 48.6426 20.6195 48.9843 19.8664C49.1588 18.6752 49.2475 17.4857 49.3106 16.2839C49.4587 16.0555 49.6067 15.8272 49.7593 15.5919C50.31 14.6969 50.31 14.6969 50.5547 13.8006C51.1406 12.1387 52.0325 10.6492 52.9001 9.119C53.9769 9.119 55.0537 9.119 56.1632 9.119C56.1651 9.35631 56.167 9.59363 56.169 9.83814C56.1881 12.0987 56.2117 14.3593 56.2401 16.6198C56.2546 17.7813 56.2674 18.9428 56.2762 20.1044C56.287 26.7182 56.287 26.7182 57.1666 33.258C57.4781 34.2262 57.8959 34.9736 58.4474 35.8246C58.6691 36.3631 58.8801 36.906 59.0796 37.453C59.4641 38.4388 59.8111 39.1645 60.4257 40.0381C60.7943 40.4297 61.1716 40.8142 61.5678 41.178C61.7226 41.3459 61.8774 41.5138 62.0369 41.6868C62.2388 42.1403 62.2388 42.1403 62.4448 42.6028C62.6332 42.9454 62.8216 43.288 63.0158 43.6409C63.5474 44.1507 64.1088 44.6033 64.6831 45.0645C65.552 45.8117 66.263 46.6669 67.0042 47.5376C67.9075 48.5699 68.8845 49.525 69.8684 50.4802C69.9895 50.863 70.1107 51.2459 70.2355 51.6404C70.4943 52.3721 70.4943 52.3721 70.8473 53.0856C71.3173 53.6905 71.8227 54.2419 72.3425 54.8043C72.8052 55.3653 72.8052 55.3653 73.3559 56.5459C73.4972 56.9087 73.6385 57.2714 73.7842 57.6451C74.0467 58.038 74.0467 58.038 74.3144 58.4389C74.4625 58.7143 74.6106 58.9897 74.7631 59.2735C74.9349 60.1455 75.014 60.9908 75.0894 61.8789C75.7355 61.8789 76.3816 61.8789 77.0473 61.8789C77.5302 61.4792 77.5302 61.4792 78.0263 60.9019C78.1205 60.6466 78.2147 60.3914 78.3118 60.1284C78.4329 59.8463 78.5541 59.5642 78.6789 59.2735C78.9279 59.0317 79.1769 58.7899 79.4335 58.5407C80.383 57.571 80.9396 56.6281 81.5711 55.4391C82.2544 54.1037 82.2544 54.1037 82.921 52.7599C83.1363 52.7599 83.3517 52.7599 83.5736 52.7599C83.598 52.5353 83.6224 52.3107 83.6475 52.0793C83.7869 51.0848 83.9575 50.146 84.2262 49.1775C84.8011 48.1093 85.4491 47.2192 86.1841 46.2463C86.2918 44.9567 86.3995 43.667 86.5104 42.3382C86.8335 42.2307 87.1565 42.1233 87.4894 42.0125C87.5054 41.7333 87.5213 41.4542 87.5378 41.1665C87.5622 40.7941 87.5866 40.4218 87.6117 40.0381C87.6345 39.6716 87.6572 39.3051 87.6806 38.9275C87.8157 37.7787 87.8157 37.7787 88.142 36.7202C88.5691 35.1218 88.6181 33.5842 88.6723 31.9368C88.6849 31.6209 88.6975 31.305 88.7105 30.9795C88.741 30.2063 88.769 29.4331 88.7946 28.6597C89.01 28.4448 89.2254 28.2298 89.4473 28.0084C89.8565 25.4823 89.821 22.9583 89.8169 20.4071C89.8171 19.9213 89.8174 19.4355 89.8179 18.9497C89.8183 17.935 89.8176 16.9203 89.8161 15.9055C89.8143 14.612 89.8153 13.3185 89.8173 12.025C89.8185 11.0228 89.8181 10.0205 89.8172 9.01829C89.817 8.54167 89.8173 8.06505 89.818 7.58843C89.8211 5.14649 89.7851 2.74833 89.4473 0.325678C89.5549 0.218205 89.6626 0.110731 89.7736 0Z" fill="rgb(232,192,55)" fill-rule="nonzero" />
		<path id="矢量 186" d="M106.742 37.453C107.388 37.453 108.034 37.453 108.7 37.453C109.378 38.7551 109.923 40.0094 110.237 41.4489C110.392 42.3954 110.535 43.3411 110.658 44.2923C111.304 44.6147 111.304 44.6147 111.963 44.9436C111.972 46.3752 111.978 47.8068 111.983 49.2385C111.986 49.6442 111.989 50.05 111.992 50.4681C111.993 50.8595 111.994 51.251 111.995 51.6544C111.997 52.0142 111.998 52.3741 112 52.7449C111.966 53.6581 111.846 54.4776 111.637 55.3653C111.421 55.3653 111.206 55.3653 110.984 55.3653C110.963 55.7591 110.943 56.1529 110.922 56.5586C110.643 60.6081 110.643 60.6081 110.103 62.2466C109.532 63.5987 108.801 64.8557 108.047 66.1127C107.747 66.6548 107.447 67.1975 107.15 67.7411C107.022 67.9674 106.893 68.1937 106.761 68.4268C106.166 69.4895 105.623 70.5764 105.131 71.69C104.693 72.4606 104.105 72.9781 103.479 73.6033C103.138 74.1374 102.808 74.6784 102.5 75.2317C102.284 75.2317 102.069 75.2317 101.847 75.2317C101.632 75.7691 101.416 76.3064 101.195 76.8601C101.025 77.0058 100.856 77.1515 100.681 77.3015C100.453 77.4984 100.226 77.6953 99.9913 77.8982C99.7679 78.0909 99.5446 78.2836 99.3144 78.4821C98.1438 79.5363 97.0519 80.6648 95.957 81.7962C92.7658 85.0751 92.7658 85.0751 91.4052 85.857C91.2058 85.9653 91.0064 86.0736 90.801 86.1852C89.7878 86.8286 88.9184 87.6316 88.0196 88.4217C86.4959 89.7522 85.0197 90.7757 83.1593 91.611C82.973 91.687 82.7867 91.763 82.5947 91.8413C82.487 92.0563 82.3793 92.2712 82.2683 92.4927C81.5146 92.6001 80.7608 92.7076 79.9841 92.8183C79.8765 93.1408 79.7688 93.4632 79.6578 93.7954C79.3348 94.0103 79.0117 94.2253 78.6789 94.4467C76.7406 94.7692 76.7406 94.7692 74.7631 95.0981C74.4401 96.0654 74.4401 96.0654 74.1105 97.0522C73.6798 97.1596 73.249 97.2671 72.8052 97.3778C72.5899 97.8077 72.3745 98.2376 72.1526 98.6806C71.8094 98.8216 71.4661 98.9627 71.1125 99.108C70.0967 99.5405 69.182 100.064 68.2368 100.635C67.693 100.852 67.1491 101.069 66.6053 101.286C65.7962 101.739 65.0521 102.202 64.3211 102.772C63.6684 103.24 63.6684 103.24 62.8934 103.545C61.8492 103.967 61.0061 104.558 60.079 105.194C59.5372 105.523 58.9941 105.85 58.4474 106.171C58.232 106.171 58.0167 106.171 57.7948 106.171C57.7948 106.386 57.7948 106.601 57.7948 106.823C57.6375 106.929 57.4801 107.035 57.3181 107.144C57.1119 107.287 56.9058 107.429 56.6935 107.576C56.3868 107.785 56.3868 107.785 56.074 107.999C55.8881 108.148 55.7021 108.297 55.5106 108.451C55.2952 108.773 55.0798 109.096 54.858 109.428C54.5349 109.428 54.2119 109.428 53.879 109.428C53.805 109.609 53.7309 109.791 53.6547 109.978C53.2264 110.731 53.2264 110.731 52.4514 111.484C51.477 112.479 50.9391 113.414 50.2896 114.639C49.805 114.961 49.805 114.961 49.3106 115.29C48.5568 115.29 47.803 115.29 47.0264 115.29C46.9187 115.183 46.811 115.075 46.7001 114.964C46.6913 114.116 46.6848 113.268 46.6797 112.42C46.6756 112.06 46.6756 112.06 46.6714 111.692C46.6685 111.046 46.6834 110.4 46.7001 109.754C46.8078 109.431 46.9155 109.109 47.0264 108.777C47.511 108.454 47.511 108.454 48.0054 108.125C48.4361 107.158 48.8668 106.191 49.3106 105.194C49.6337 105.087 49.9567 104.979 50.2896 104.868C50.3569 104.6 50.4242 104.331 50.4935 104.054C50.9773 102.825 51.5771 101.951 52.3889 100.92C53.6468 99.4169 55.1046 98.1682 56.5966 96.9059C56.7766 96.7392 56.9567 96.5725 57.1422 96.4008C57.2498 96.1859 57.3575 95.9709 57.4685 95.7495C57.6771 95.6353 57.8857 95.5211 58.1007 95.4034C58.933 94.8779 59.6308 94.3388 60.3849 93.714C62.4853 92.0517 64.9021 90.984 67.3331 89.8834C67.9756 89.5253 68.3779 89.1105 68.8895 88.5845C70.3204 87.4859 71.7826 86.4098 73.4375 85.6738C73.7673 85.5596 74.097 85.4454 74.4368 85.3277C74.7599 85.3277 75.0829 85.3277 75.4157 85.3277C75.4157 85.1128 75.4157 84.8978 75.4157 84.6764C75.5861 84.5656 75.7565 84.4547 75.932 84.3405C78.745 82.4918 81.4893 80.585 83.9955 78.3333C84.459 77.9204 84.9422 77.5296 85.4295 77.1451C86.2115 76.5339 86.2115 76.5339 86.9591 75.7609C87.5936 75.1277 88.2029 74.5881 88.8966 74.0308C90.1504 72.9784 91.1046 71.7419 92.1062 70.4547C92.9875 69.3468 93.9746 68.3903 95.0354 67.4561C95.7163 66.7523 95.7163 66.7523 96.1571 65.6649C96.3119 65.2753 96.4667 64.8857 96.6262 64.4843C97.0706 63.555 97.5395 62.6469 98.0449 61.7491C99.2672 59.5714 100.277 57.3613 101.195 55.0396C101.41 54.9322 101.625 54.8247 101.847 54.714C101.93 54.3529 102.013 53.9919 102.098 53.6199C102.212 53.1432 102.325 52.6666 102.439 52.19C102.493 51.9523 102.547 51.7147 102.602 51.4699C102.763 50.803 102.931 50.1525 103.152 49.5031C103.466 49.0594 103.791 48.6234 104.131 48.2004C105.009 45.7219 105.303 43.097 105.591 40.4973C105.75 39.4905 105.98 38.6963 106.416 37.7787C106.523 37.6712 106.631 37.5637 106.742 37.453Z" fill="rgb(232,192,55)" fill-rule="nonzero" />
		<path id="矢量 187" d="M110.331 73.6033C110.87 73.7108 111.408 73.8183 111.963 73.929C111.963 77.7981 111.963 81.6671 111.963 85.6534C111.64 85.8684 111.317 86.0833 110.984 86.3048C110.877 86.7532 110.877 86.7532 110.767 87.2106C109.929 90.4492 109.929 90.4492 109.202 91.6556C108.871 92.0729 108.533 92.4845 108.187 92.8896C107.709 93.4841 107.421 94.0382 107.109 94.7317C106.284 96.4681 105.086 97.9084 103.805 99.3319C103.068 100.03 102.318 100.656 101.521 101.286C101.306 101.286 101.09 101.286 100.868 101.286C100.707 101.77 100.707 101.77 100.542 102.263C100.302 102.342 100.062 102.421 99.8141 102.502C98.848 102.833 97.8963 103.176 96.9525 103.566C96.0609 104.191 96.0609 104.191 95.3209 104.868C94.5724 105.33 93.8082 105.748 93.0367 106.171C92.8214 106.494 92.606 106.816 92.3841 107.148C91.2534 107.309 91.2534 107.309 90.0999 107.474C89.8845 107.689 89.6692 107.904 89.4473 108.125C88.8012 108.34 88.1551 108.555 87.4894 108.777C87.274 108.992 87.0586 109.207 86.8367 109.428C86.5608 109.502 86.2849 109.576 86.0006 109.652C85.0583 110.011 84.5653 110.279 83.7979 110.873C83.1514 111.359 82.5785 111.715 81.8311 112.031C81.1088 112.276 80.4 112.508 79.6578 112.685C79.3348 112.685 79.0117 112.685 78.6789 112.685C78.6789 113.007 78.6789 113.33 78.6789 113.662C78.1492 113.88 77.6188 114.097 77.0881 114.313C76.7928 114.434 76.4975 114.555 76.1933 114.68C75.9367 114.774 75.6801 114.868 75.4157 114.965C75.2004 114.965 74.985 114.965 74.7631 114.965C74.7631 115.179 74.7631 115.394 74.7631 115.616C72.9863 116.422 72.9863 116.422 71.1737 117.244C70.9583 117.244 70.7429 117.244 70.521 117.244C70.198 117.889 70.198 117.889 69.8684 118.547C69.5958 118.658 69.5958 118.658 69.3177 118.771C68.3438 119.323 67.7061 120.018 66.9316 120.827C64.9192 122.928 64.9192 122.928 63.6888 123.737C63.4667 123.852 63.2446 123.966 63.0158 124.083C62.8004 124.836 62.5851 125.588 62.3632 126.363C61.6094 126.363 60.8556 126.363 60.079 126.363C60.079 125.074 60.079 123.784 60.079 122.455C60.2405 122.133 60.2405 122.133 60.4053 121.804C60.4957 120.822 60.551 119.839 60.608 118.855C60.7316 117.896 60.7316 117.896 61.0694 117.12C61.1733 116.946 61.2772 116.772 61.3842 116.593C61.5996 116.485 61.815 116.378 62.0369 116.267C62.1403 116.03 62.2438 115.794 62.3504 115.55C63.4563 113.171 64.7545 111.297 66.4536 109.327C67.2431 108.467 68.0561 107.641 68.8895 106.823C69.1721 106.54 69.4548 106.258 69.746 105.968C70.0018 105.712 70.2575 105.457 70.521 105.194C70.6826 105.013 70.8441 104.831 71.0105 104.645C71.172 104.504 71.3336 104.362 71.5 104.217C72.3769 103.83 72.3769 103.83 73.1315 103.566C73.5623 102.921 73.993 102.276 74.4368 101.612C74.9752 101.612 75.5136 101.612 76.0684 101.612C76.0684 101.182 76.0684 100.752 76.0684 100.309C78.0067 99.9865 78.0067 99.9865 79.9841 99.6576C80.4149 99.3352 80.8456 99.0128 81.2894 98.6806C81.975 98.4401 82.6698 98.2246 83.3697 98.0292C84.8408 97.6166 86.1388 97.1175 87.4894 96.4008C87.5971 96.1859 87.7047 95.9709 87.8157 95.7495C88.6772 95.3196 89.5386 94.8897 90.4262 94.4468C90.8569 93.9094 91.2877 93.372 91.7315 92.8184C92.0747 92.6907 92.4179 92.5631 92.7716 92.4316C93.193 92.2496 93.6083 92.0527 94.0157 91.8413C94.8239 91.1355 95.5055 90.3802 96.1979 89.5629C97.782 87.7058 97.782 87.7058 98.8288 87.0172C99.0711 86.8896 99.3134 86.762 99.563 86.6305C100.066 86.1827 100.066 86.1827 100.542 85.6534C102.174 84.025 102.174 84.025 102.989 83.3126C103.934 82.2523 104.427 81.179 105.029 79.9044C105.437 79.1399 105.437 79.1399 106.252 78.3053C106.522 78.0434 106.791 77.7814 107.068 77.5115C107.661 76.5589 108.188 75.5781 108.7 74.5804C109.507 74.0967 109.507 74.0967 110.331 73.6033Z" fill="rgb(232,192,55)" fill-rule="nonzero" />
	</g>
</svg>
