<svg viewBox="0 0 117 156" xmlns="http://www.w3.org/2000/svg" xmlns:xlink="http://www.w3.org/1999/xlink" width="117.000008" height="156.000000" fill="none" customFrame="#000000">
	<g id="组合 6">
		<path id="矢量 182" d="M113.049 25.14C113.751 25.14 114.453 25.14 115.177 25.14C115.377 25.3398 115.578 25.5397 115.784 25.7456C115.784 26.5451 115.784 27.3445 115.784 28.1682C116.386 28.468 116.386 28.468 117 28.7739C117 32.971 117 37.1682 117 41.4926C116.9 41.6924 116.799 41.8923 116.696 42.0982C116.496 42.0982 116.295 42.0982 116.088 42.0982C116.063 42.4355 116.038 42.7728 116.012 43.1203C115.887 44.1285 115.638 44.9523 115.234 45.8836C114.666 47.2057 114.306 48.537 113.98 49.9339C113.405 52.3651 112.624 54.6688 111.361 56.8409C111.062 57.3181 110.758 57.7916 110.447 58.2616C110.036 59.0101 109.819 59.6958 109.606 60.5174C109.152 61.9887 108.52 63.4092 107.883 64.8102C107.783 64.9101 107.683 65.0101 107.579 65.113C107.576 65.675 107.576 65.675 107.572 66.2484C107.548 69.7817 107.522 73.315 107.492 76.8483C107.477 78.6647 107.463 80.4811 107.451 82.2976C107.44 84.051 107.426 85.8044 107.41 87.5578C107.404 88.2263 107.399 88.8948 107.396 89.5633C107.391 90.5006 107.382 91.4379 107.372 92.3751C107.371 92.7885 107.371 92.7885 107.37 93.2101C107.355 94.3864 107.302 95.4654 106.982 96.6021C106.724 97.3525 106.454 98.066 106.117 98.7835C105.344 100.462 104.64 102.168 103.932 103.875C103.732 103.975 103.531 104.075 103.325 104.178C102.924 105.277 102.522 106.376 102.109 107.509C101.877 107.721 101.645 107.933 101.406 108.152C100.555 108.988 100.555 108.988 100.039 110.026C99.9197 110.295 99.8006 110.563 99.6779 110.84C99.4774 110.84 99.2768 110.84 99.0701 110.84C98.9667 111.093 98.9667 111.093 98.8612 111.351C98.3488 112.251 97.6934 112.852 96.9429 113.565C96.6921 113.815 96.4414 114.065 96.1831 114.322C95.9324 114.572 95.6817 114.822 95.4234 115.079C95.0285 115.482 95.0285 115.482 94.6257 115.893C93.9039 116.593 93.9039 116.593 92.9922 117.199C92.8154 117.672 92.8154 117.672 92.6349 118.155C92.3813 118.743 92.3813 118.743 92.0805 119.319C91.3457 120.18 91.3457 120.18 90.5041 120.984C90.3568 121.127 90.2095 121.27 90.0577 121.416C89.1882 122.251 88.2897 123.045 87.3701 123.823C86.6594 124.426 86.2339 124.876 85.6987 125.659C85.5984 125.865 85.4981 126.072 85.3948 126.284C85.186 126.383 84.9772 126.481 84.7621 126.583C84.4883 126.716 84.2144 126.848 83.9323 126.984C83.5251 127.179 83.5251 127.179 83.1097 127.378C82.2701 127.801 82.2701 127.801 81.4442 128.707C80.6419 129.006 79.8396 129.306 79.013 129.615C78.9127 129.915 78.8124 130.215 78.7091 130.523C78.1074 130.723 77.5057 130.923 76.8857 131.129C76.8857 131.629 76.8857 132.128 76.8857 132.643C76.6182 132.779 76.3506 132.914 76.0749 133.054C75.722 133.237 75.369 133.42 75.0054 133.609C74.6563 133.788 74.3073 133.967 73.9477 134.151C72.9351 134.763 72.2291 135.428 71.4156 136.277C70.6558 136.637 70.6559 136.637 69.8961 136.883C69.6141 136.995 69.332 137.108 69.0414 137.224C68.822 137.311 68.6027 137.398 68.3766 137.488C68.2763 137.788 68.1761 138.088 68.0727 138.397C67.8722 138.397 67.6716 138.397 67.4649 138.397C67.4649 138.697 67.4649 138.997 67.4649 139.305C67.0638 139.705 66.6627 140.105 66.2494 140.517C65.5474 140.517 64.8454 140.517 64.1221 140.517C63.6207 140.817 63.1192 141.116 62.6026 141.425C62.3017 141.425 62.0009 141.425 61.6909 141.425C61.5906 141.725 61.4903 142.025 61.387 142.334C61.105 142.409 60.8229 142.484 60.5323 142.561C58.9641 143.005 57.4436 143.584 55.9169 144.151C55.1647 145.2 55.1647 145.2 54.3974 146.27C53.194 146.37 51.9905 146.47 50.7507 146.573C50.1677 146.929 50.1677 146.929 49.5731 147.292C48.7668 147.743 48.0503 148.078 47.1573 148.323C46.4317 148.464 45.7087 148.591 44.9766 148.693C44.2245 149.293 44.2245 149.293 43.4571 149.904C43.2652 149.938 43.0732 149.971 42.8755 150.005C41.954 150.168 41.0341 150.338 40.1143 150.51C39.7672 150.572 39.4201 150.635 39.0625 150.699C37.3336 151.034 35.7996 151.394 34.2263 152.194C33.2367 152.681 32.4295 152.948 31.3357 153.143C30.499 153.249 29.6608 153.334 28.8215 153.416C27.3955 153.565 26.0128 153.829 24.6156 154.144C24.5153 154.244 24.415 154.344 24.3117 154.447C23.4 154.649 22.4883 154.851 21.5766 155.052C21.3834 155.102 21.1901 155.151 20.991 155.202C19.1265 155.659 17.3191 155.788 15.4037 155.847C15.0863 155.858 14.7689 155.869 14.4418 155.881C13.4773 155.912 12.5128 155.938 11.5481 155.961C11.1192 155.971 11.1192 155.971 10.6818 155.982C7.54337 156.05 4.61192 155.942 1.51948 155.355C0.767336 153.856 0.767336 153.856 0 152.327C0 145.931 0 139.536 0 132.946C0.200573 132.646 0.401145 132.346 0.607792 132.038C0.708074 129.339 0.808365 126.641 0.911688 123.861C1.21254 123.562 1.51341 123.262 1.82338 122.953C2.02395 122.953 2.22452 122.953 2.43117 122.953C2.42957 122.677 2.42799 122.401 2.42635 122.116C2.42112 121.076 2.41733 120.036 2.41448 118.996C2.41296 118.548 2.4109 118.101 2.40824 117.654C2.39327 115.065 2.42748 112.507 2.73507 109.931C2.93564 109.632 3.13621 109.332 3.34286 109.023C3.35422 108.734 3.36558 108.444 3.37728 108.146C3.48906 105.956 3.6958 103.994 4.34951 101.886C4.54761 101.188 4.64567 100.546 4.71039 99.8245C4.7856 99.2811 4.7856 99.2811 4.86234 98.7267C5.14804 98.2116 5.45461 97.7077 5.77403 97.2126C6.63979 95.3345 7.20384 93.4852 7.5974 91.4589C7.74156 91.3238 7.88573 91.1888 8.03425 91.0496C8.19095 90.8849 8.34765 90.7201 8.50909 90.5504C8.72078 90.0494 8.92268 89.5443 9.11688 89.0363C9.41238 88.5266 9.71423 88.0205 10.0286 87.5222C10.2291 87.5222 10.4297 87.5222 10.6364 87.5222C10.6851 87.2598 10.6851 87.2598 10.7349 86.9922C10.9403 86.3109 10.9403 86.3109 11.3261 85.7052C11.5582 85.4054 11.5582 85.4054 11.795 85.0995C11.9587 84.8876 12.1225 84.6756 12.2912 84.4572C12.7636 83.8882 12.7636 83.8882 13.4284 83.2637C13.988 82.7222 13.988 82.7222 14.2558 82.134C14.48 81.6135 14.6869 81.0858 14.8909 80.5572C15.2921 80.4572 15.6932 80.3573 16.1065 80.2543C16.3071 79.5548 16.5076 78.8553 16.7143 78.1345C17.7488 77.0924 18.8024 76.0785 19.8862 75.0874C20.1616 74.834 20.437 74.5807 20.7207 74.3196C21.856 73.3547 23.0045 72.57 24.3497 71.9266C25.2305 71.5212 25.2305 71.5212 25.8312 70.8856C26.0317 70.6795 26.2323 70.4734 26.439 70.2611C26.7335 70.0674 27.0281 69.8738 27.3317 69.6743C28.2747 69.0415 28.9906 68.3448 29.7818 67.5356C30.1805 67.2243 30.5832 66.9176 30.9974 66.6272C31.075 66.448 31.1525 66.2688 31.2325 66.0842C31.6052 65.4158 31.6052 65.4158 32.1109 64.9084C32.3076 64.7448 32.5042 64.5813 32.7068 64.4127C32.9231 64.2289 33.1393 64.045 33.3621 63.8556C33.7964 63.4952 34.233 63.1377 34.6726 62.7839C35.7896 61.8614 36.6794 60.9594 37.4932 59.7568C38.0205 58.9304 38.457 58.1199 38.8987 57.2395C38.8987 54.1416 38.8987 51.0437 38.8987 47.8519C38.5978 47.2523 38.297 46.6527 37.987 46.035C37.5881 45.625 37.183 45.221 36.7714 44.8237C36.6398 44.5926 36.5082 44.3615 36.3726 44.1234C35.6534 42.9821 34.7086 42.1145 33.7325 41.1897C31.5855 40.38 29.4955 39.6879 27.194 39.5076C25.7271 39.4259 24.2611 39.3893 22.7922 39.3728C22.6919 39.7725 22.5916 40.1722 22.4883 40.5841C20.6832 40.8839 20.6832 40.8839 18.8416 41.1897C18.2447 41.8191 17.6499 42.4501 17.0562 43.0824C16.8873 43.26 16.7185 43.4376 16.5445 43.6206C16.382 43.7943 16.2194 43.9681 16.0519 44.147C15.9023 44.3056 15.7527 44.4642 15.5986 44.6276C15.1584 45.1715 14.8689 45.6991 14.587 46.3378C14.4518 46.9816 14.4518 46.9816 14.3971 47.6248C14.3407 48.1869 14.3407 48.1869 14.2831 48.7604C14.0825 49.0602 13.882 49.36 13.6753 49.6689C13.4224 51.1947 13.3387 52.6404 13.3524 54.1923C13.3538 54.3994 13.3552 54.6065 13.3566 54.8199C13.3601 55.3236 13.3656 55.8273 13.3714 56.3311C13.8227 57.0806 13.8227 57.0805 14.2831 57.8452C14.2831 58.0451 14.2831 58.2449 14.2831 58.4508C15.2988 58.4868 16.3068 58.502 17.3221 58.4508C18.374 58.1871 18.374 58.1871 19.1455 57.8452C19.346 57.3455 19.5466 56.8459 19.7532 56.3311C19.9538 56.3311 20.1544 56.3311 20.361 56.3311C20.361 55.9313 20.361 55.5316 20.361 55.1198C20.5616 55.1198 20.7622 55.1198 20.9688 55.1198C21.1694 54.2204 21.37 53.321 21.5766 52.3943C22.1783 51.9446 22.1783 51.9446 22.7922 51.4858C23.6948 51.4858 24.5974 51.4858 25.5273 51.4858C25.6276 51.5858 25.7278 51.6857 25.8312 51.7887C25.8312 53.2877 25.8312 54.7866 25.8312 56.3311C24.555 59.2588 24.555 59.2588 24.0078 60.2678C23.2698 61.0768 22.5313 61.7481 21.6716 62.4254C21.4397 62.6128 21.2078 62.8002 20.9688 62.9932C20.7683 63.293 20.5677 63.5928 20.361 63.9017C19.9474 64.0329 19.9474 64.0329 19.5253 64.1667C18.4794 64.5036 18.4794 64.5036 17.3221 65.113C15.0155 65.113 12.7089 65.113 10.3325 65.113C10.2322 64.7133 10.1319 64.3136 10.0286 63.9017C9.828 63.9017 9.62743 63.9017 9.42078 63.9017C9.21638 63.3661 9.0142 62.8297 8.81299 62.2929C8.64375 61.845 8.64375 61.845 8.4711 61.388C8.38335 61.1183 8.2956 60.8485 8.2052 60.5706C8.2052 60.2708 8.2052 59.971 8.2052 59.6621C8.00462 59.6621 7.80405 59.6621 7.5974 59.6621C7.57052 58.6149 7.55459 57.5678 7.54042 56.5203C7.53278 56.2279 7.52515 55.9356 7.51727 55.6343C7.50517 54.4359 7.52096 53.3241 7.79706 52.1534C7.95275 51.6485 8.11647 51.1459 8.29126 50.6471C8.62149 49.6232 8.7137 48.6176 8.81299 47.5491C8.95244 47.3516 9.09191 47.154 9.23559 46.9505C11.1843 44.2102 11.1843 44.2102 12.8966 41.3222C13.369 40.4602 13.7723 39.8747 14.4541 39.1457C14.6985 38.9208 14.943 38.696 15.1948 38.4643C15.4016 38.202 15.6085 37.9397 15.8216 37.6694C16.4104 36.9502 16.4104 36.9502 16.9315 36.49C17.626 36.0417 17.626 36.0417 18.5662 35.7093C18.9077 35.6129 19.2494 35.5165 19.6013 35.4171C20.7328 35.0952 21.7467 34.757 22.7922 34.2247C25.1915 33.765 27.6525 33.8954 30.0857 33.9219C30.2769 34.0242 30.4681 34.1265 30.665 34.2318C32.2875 35.0743 33.7627 35.6777 35.5558 36.0417C35.7693 36.2587 35.9828 36.4758 36.2028 36.6994C36.9138 37.4086 37.6568 38.0739 38.4132 38.735C39.6899 39.8588 40.8466 40.932 41.7857 42.3632C41.9691 42.6712 41.9691 42.6712 42.1561 42.9854C42.6318 43.7514 43.1874 44.4314 43.761 45.1265C44.3339 49.4383 44.7549 53.7608 44.1219 58.0912C43.983 58.911 43.983 58.911 43.761 59.6621C43.4623 60.1699 43.1579 60.6744 42.8494 61.1763C42.5643 61.8588 42.2923 62.5468 42.0326 63.2393C41.8998 63.591 41.767 63.9427 41.6302 64.3051C41.5311 64.5717 41.432 64.8383 41.3299 65.113C40.8327 65.5281 40.325 65.9308 39.8104 66.3243C39.5095 66.4243 39.2087 66.5242 38.8987 66.6272C38.3973 67.6265 37.8958 68.6258 37.3792 69.6554C36.7775 69.9552 36.7775 69.9552 36.1636 70.2611C36.099 70.4281 36.0344 70.5952 35.9678 70.7673C35.5558 71.4724 35.5558 71.4724 34.7736 72.2342C34.4594 72.5116 34.144 72.7875 33.8274 73.0622C32.5325 74.2126 31.3409 75.3839 30.2222 76.7091C29.6094 77.4284 28.9404 78.0823 28.2623 78.7402C27.9803 79.0213 27.6982 79.3023 27.4076 79.5919C27.1883 79.8105 26.9689 80.0291 26.7429 80.2543C26.6426 80.6541 26.5423 81.0538 26.439 81.4656C26.2384 81.4656 26.0378 81.4656 25.8312 81.4656C25.6306 81.8654 25.43 82.2651 25.2234 82.6769C25.0228 82.6769 24.8222 82.6769 24.6156 82.6769C24.0878 83.6536 23.7371 84.6493 23.4 85.7052C22.6479 86.4547 22.6479 86.4547 21.8805 87.2193C21.6799 87.2193 21.4794 87.2193 21.2727 87.2193C20.9719 88.1187 20.9719 88.1187 20.6649 89.0363C20.4644 89.2362 20.2638 89.436 20.0571 89.6419C19.5628 90.979 19.287 92.2789 19.0719 93.6816C18.8197 94.5635 18.3951 95.2508 17.9253 96.0334C17.4198 97.002 17.2102 98.0253 16.9802 99.0863C16.6966 100.351 16.4125 101.511 15.8026 102.663C15.0875 104.958 14.7242 107.234 14.587 109.628C14.3864 109.628 14.1859 109.628 13.9792 109.628C13.9389 109.906 13.8985 110.183 13.857 110.468C13.7765 111.008 13.7765 111.008 13.6943 111.559C13.6414 111.917 13.5885 112.276 13.5341 112.645C13.3714 113.565 13.3714 113.565 13.0675 114.171C12.867 114.171 12.6664 114.171 12.4597 114.171C12.1321 116.749 12.0902 119.324 12.0597 121.919C12.0534 122.375 12.047 122.832 12.0406 123.288C12.0273 124.243 12.0148 125.197 12.0031 126.152C11.9882 127.356 11.9719 128.561 11.9551 129.765C11.8867 134.661 11.8277 139.557 11.8519 144.453C12.0525 144.553 12.2531 144.653 12.4597 144.756C14.7436 144.836 16.9257 144.731 19.1455 144.151C19.5466 143.951 19.9477 143.751 20.361 143.545C22.5673 143.545 24.7736 143.545 27.0468 143.545C27.0468 143.345 27.0468 143.145 27.0468 142.939C28.2502 142.64 29.4536 142.34 30.6935 142.031C30.6935 141.831 30.6935 141.631 30.6935 141.425C30.9391 141.389 31.1848 141.352 31.4378 141.314C31.7626 141.263 32.0873 141.213 32.4219 141.16C32.7428 141.111 33.0636 141.062 33.3941 141.011C34.2804 140.832 35.0267 140.555 35.8597 140.214C36.7145 140.176 36.7145 140.176 37.3792 140.214C37.3792 139.914 37.3792 139.614 37.3792 139.305C37.9809 139.206 38.5827 139.106 39.2026 139.003C39.2026 138.803 39.2026 138.603 39.2026 138.397C39.5499 138.314 39.5499 138.314 39.9042 138.23C41.6036 137.818 43.2751 137.382 44.9268 136.807C45.3879 136.648 45.852 136.497 46.318 136.353C46.5586 136.278 46.7991 136.203 47.0469 136.126C47.262 136.06 47.4771 135.995 47.6986 135.927C48.34 135.697 48.34 135.697 48.8655 135.235C49.5351 134.763 49.5351 134.763 50.5975 134.386C51.1965 134.202 51.7972 134.024 52.3989 133.849C52.9716 133.672 53.5331 133.461 54.0935 133.249C54.6119 132.86 55.1199 132.458 55.613 132.038C56.1052 131.77 56.6056 131.517 57.1135 131.281C58.004 130.853 58.7808 130.436 59.6016 129.88C60.3396 129.4 60.8559 129.163 61.6719 128.896C62.3798 128.65 62.9111 128.4 63.5238 127.965C64.0497 127.521 64.5564 127.082 65.0338 126.587C65.1341 126.387 65.2343 126.187 65.3377 125.981C65.7552 125.747 66.1732 125.514 66.5912 125.281C66.8239 125.151 67.0566 125.021 67.2964 124.887C67.8485 124.588 68.4116 124.309 68.9809 124.045C69.9409 123.535 70.6389 122.97 71.4346 122.234C71.8265 121.873 71.8265 121.873 72.2264 121.505C72.7618 120.997 73.2904 120.487 73.8088 119.962C74.397 119.376 74.9909 118.887 75.6701 118.41C75.8707 118.41 76.0713 118.41 76.2779 118.41C76.3657 118.223 76.4534 118.036 76.5438 117.843C76.6567 117.63 76.7695 117.418 76.8857 117.199C77.0863 116.999 77.2869 116.799 77.4935 116.593C77.9949 116.593 78.4964 116.593 79.013 116.593C79.2136 116.194 79.4141 115.794 79.6208 115.382C79.9216 115.282 80.2225 115.182 80.5325 115.079C80.733 114.68 80.9336 114.28 81.1403 113.868C81.4206 113.692 81.4206 113.692 81.7065 113.513C81.9521 113.355 82.1978 113.198 82.4508 113.035C82.6941 112.881 82.9374 112.726 83.188 112.567C83.8997 112.076 83.8997 112.076 84.4202 111.384C84.5413 111.204 84.6623 111.025 84.787 110.84C84.9876 110.84 85.1882 110.84 85.3948 110.84C85.3948 110.54 85.3948 110.24 85.3948 109.931C85.5562 109.84 85.7176 109.748 85.8839 109.653C86.5485 109.261 87.1942 108.861 87.826 108.417C88.2461 107.925 88.6524 107.42 89.0416 106.903C89.6431 106.391 90.2509 105.886 90.8649 105.389C91.276 104.991 91.6823 104.588 92.0805 104.178C92.2372 104.034 92.3939 103.89 92.5554 103.742C93.1246 103.126 93.5009 102.491 93.9039 101.755C94.1201 101.221 94.1201 101.221 94.3408 100.676C94.4975 100.333 94.6541 99.9891 94.8156 99.6352C95.11 99.3577 95.11 99.3577 95.4103 99.0745C95.6152 98.8598 95.8201 98.6451 96.0312 98.4239C96.4163 97.5947 96.4163 97.5947 96.7149 96.6637C97.2941 95.0537 97.9952 93.5792 98.8185 92.0799C98.9307 91.8731 99.0428 91.6663 99.1584 91.4532C99.4317 90.9497 99.7066 90.4472 99.9818 89.9448C99.9855 89.4671 99.9855 89.4671 99.9893 88.9798C100.013 85.9767 100.039 82.9736 100.069 79.9706C100.084 78.4267 100.098 76.8829 100.11 75.339C100.121 73.8487 100.135 72.3584 100.151 70.8681C100.157 70.3 100.162 69.7318 100.165 69.1636C100.17 68.3669 100.179 67.5703 100.189 66.7737C100.19 66.4224 100.19 66.4224 100.191 66.0641C100.207 65.0436 100.295 64.1721 100.584 63.1899C100.737 62.7928 100.737 62.7928 100.894 62.3876C101.003 61.8846 101.108 61.3803 101.197 60.8734C101.398 60.8734 101.599 60.8734 101.805 60.8734C101.867 60.6435 101.93 60.4136 101.994 60.1767C102.117 59.7253 102.117 59.7253 102.242 59.2647C102.323 58.9661 102.404 58.6674 102.488 58.3598C102.65 57.78 102.83 57.2049 103.021 56.6339C103.221 56.6339 103.422 56.6339 103.629 56.6339C103.629 56.434 103.629 56.2341 103.629 56.0282C103.929 56.0282 104.23 56.0282 104.54 56.0282C104.622 55.8096 104.703 55.591 104.787 55.3658C105.148 54.5141 105.148 54.5141 105.566 53.8327C106.122 52.8958 106.546 51.9343 106.982 50.9381C107.452 49.8747 107.963 48.8415 108.549 47.8365C109.462 46.2638 110.094 44.7437 110.618 43.0067C110.768 42.5329 110.92 42.0597 111.074 41.5872C111.173 41.2763 111.173 41.2763 111.273 40.9591C111.598 40.1004 112.03 39.2851 112.442 38.4643C112.542 34.1672 112.642 29.8701 112.745 25.4428C112.846 25.3428 112.946 25.2429 113.049 25.14Z" fill="rgb(232,192,55)" fill-rule="nonzero" />
		<path id="矢量 183" d="M70.8078 0.005416C70.9081 0.105349 71.0084 0.205281 71.1117 0.308242C71.1117 1.30757 71.1117 2.3069 71.1117 3.3365C70.8108 3.73624 70.51 4.13597 70.2 4.54781C69.9994 5.54714 69.7989 6.54646 69.5922 7.57607C69.3916 7.57607 69.1911 7.57607 68.9844 7.57607C68.8841 8.5754 68.7838 9.57473 68.6805 10.6043C68.2794 10.9041 67.8782 11.2039 67.4649 11.5128C66.7891 13.2858 66.2546 14.9895 66.1116 16.8821C66.0579 17.8305 66.0266 18.7787 65.9989 19.7282C65.9454 20.9004 65.9454 20.9004 65.7927 21.5034C65.6359 22.1343 65.6023 22.6777 65.6012 23.3266C65.6008 23.5563 65.6004 23.786 65.6 24.0227C65.6012 24.2603 65.6024 24.4978 65.6036 24.7425C65.6024 24.9742 65.6012 25.2059 65.6 25.4446C65.6019 26.5911 65.6455 27.7092 65.7876 28.8472C66.0554 31.028 66.0527 33.2305 66.1027 35.4249C66.1654 37.5175 66.3952 39.4536 66.8571 41.4926C67.001 42.4144 67.1353 43.3367 67.2643 44.2606C67.4266 45.147 67.4266 45.147 67.9184 45.9285C68.3766 46.9435 68.3766 46.9435 68.5076 47.7112C68.6012 48.603 68.6744 49.4937 68.7375 50.3881C68.7748 50.8525 68.7748 50.8525 68.8129 51.3262C68.8734 52.0858 68.9305 52.8455 68.9844 53.6057C69.0847 53.7056 69.185 53.8055 69.2883 53.9085C69.5271 55.35 69.6339 56.7543 69.6807 58.214C69.7321 60.6187 69.7321 60.6187 70.1181 62.9826C70.2015 63.211 70.285 63.4394 70.3709 63.6746C70.7037 64.5881 70.8207 65.3008 70.8885 66.2841C70.9248 68.1699 70.8408 69.8594 70.3401 71.6874C69.9777 73.4808 70.0771 75.3694 70.0546 77.1924C69.9942 79.6271 69.9942 79.6271 69.695 80.6169C69.4788 81.1112 69.2335 81.5926 68.9844 82.0713C68.8539 82.4656 68.7304 82.8624 68.6235 83.2637C68.5421 83.5698 68.4606 83.8758 68.3766 84.1911C68.176 84.1911 67.9755 84.1911 67.7688 84.1911C67.725 84.4097 67.6811 84.6283 67.6359 84.8535C67.4776 85.6422 67.3193 86.4308 67.161 87.2194C66.7599 87.2194 66.3587 87.2194 65.9454 87.2194C65.9454 87.719 65.9454 88.2187 65.9454 88.7335C65.444 88.9334 64.9426 89.1332 64.426 89.3392C63.8243 90.4384 63.2225 91.5377 62.6026 92.6702C62.3017 92.8701 62.0009 93.07 61.6909 93.2759C61.5906 93.5757 61.4903 93.8755 61.387 94.1844C61.1864 94.1844 60.9859 94.1844 60.7792 94.1844C60.5786 94.5841 60.3781 94.9838 60.1714 95.3957C59.9709 95.3957 59.7703 95.3957 59.5636 95.3957C59.4633 95.7954 59.3631 96.1952 59.2597 96.607C59.0592 96.607 58.8586 96.607 58.6519 96.607C58.5368 96.8693 58.5368 96.8693 58.4193 97.1369C57.8606 98.1517 57.0759 98.8632 56.2493 99.666C55.4657 100.374 54.6999 100.916 53.7896 101.452C53.5828 101.546 53.3759 101.64 53.1628 101.736C52.4971 102.063 52.4971 102.063 51.8333 102.815C51.4478 103.19 51.4478 103.19 51.0545 103.572C50.1998 103.969 50.1998 103.969 49.5351 104.178C49.5351 104.378 49.5351 104.577 49.5351 104.783C49.0556 105.036 49.0556 105.036 48.5664 105.294C47.503 105.895 46.7417 106.635 45.8883 107.509C45.4831 107.711 45.0779 107.913 44.6727 108.114C44.1546 108.607 43.6459 109.11 43.1532 109.629C42.8524 109.728 42.5515 109.828 42.2416 109.931C42.041 110.331 41.8404 110.731 41.6338 111.143C41.2326 111.343 40.8315 111.542 40.4182 111.748C40.3179 112.148 40.2176 112.548 40.1143 112.96C39.9137 113.159 39.7131 113.359 39.5065 113.565C39.2056 113.565 38.9048 113.565 38.5948 113.565C38.4945 113.965 38.3942 114.365 38.2909 114.777C37.9901 114.976 37.6892 115.176 37.3792 115.382C36.9173 116.065 36.9173 116.065 36.4675 116.896C36.2528 117.712 36.2528 117.712 36.1636 118.41C35.8628 118.61 35.5619 118.81 35.2519 119.016C35.1517 119.416 35.0514 119.816 34.9481 120.227C34.6472 120.427 34.3463 120.627 34.0364 120.833C33.7355 122.032 33.7355 122.032 33.4286 123.256C33.1277 123.356 32.8269 123.456 32.5169 123.559C32.3163 124.258 32.1157 124.958 31.9091 125.678C31.7085 125.678 31.5079 125.678 31.3013 125.678C31.201 126.278 31.1007 126.878 30.9974 127.495C30.8094 127.714 30.6213 127.932 30.4276 128.158C29.7604 128.971 29.7604 128.971 29.4019 129.861C29.3267 130.08 29.2515 130.298 29.174 130.524C28.5723 130.524 27.9706 130.524 27.3506 130.524C27.3052 128.78 27.4631 127.199 27.7875 125.489C28.164 123.406 28.3896 121.382 28.4725 119.265C28.5034 118.983 28.5343 118.701 28.5662 118.41C28.7626 118.004 28.965 117.6 29.174 117.199C29.311 116.416 29.311 116.416 29.364 115.609C29.398 115.204 29.398 115.204 29.4328 114.791C29.4551 114.484 29.4551 114.484 29.4779 114.171C29.9292 113.571 29.9292 113.571 30.3896 112.96C30.4899 112.26 30.5902 111.561 30.6935 110.84C30.8251 110.721 30.9568 110.602 31.0924 110.48C31.6853 109.846 32.0884 109.169 32.5169 108.417C32.8177 108.317 33.1186 108.217 33.4286 108.114C33.4881 107.931 33.5477 107.747 33.609 107.558C34.0358 106.367 34.4895 105.31 35.2128 104.264C36.4424 102.724 37.7292 101.295 39.2204 100.001C41.0106 98.4455 42.6218 96.8361 44.0269 94.9225C45.1812 93.6032 46.6366 92.6127 48.0619 91.5997C49.322 90.6959 50.3251 89.7734 51.2896 88.5573C51.4126 88.4156 51.5356 88.2738 51.6623 88.1279C51.8629 88.0279 52.0635 87.928 52.2701 87.825C52.3391 87.6064 52.408 87.3878 52.4791 87.1626C52.6107 86.8815 52.7423 86.6005 52.8779 86.3109C53.3709 85.7931 53.879 85.2893 54.3974 84.7968C55.2161 83.9541 55.2161 83.9541 55.9169 82.9798C56.2806 82.1813 56.5539 81.3928 56.8286 80.5572C57.0291 80.5572 57.2297 80.5572 57.4364 80.5572C57.4587 80.1573 57.4587 80.1573 57.4815 79.7493C57.5042 79.3976 57.5269 79.0458 57.5503 78.6835C57.5715 78.3356 57.5926 77.9878 57.6144 77.6295C57.7403 76.6205 57.7403 76.6205 58.0477 75.8979C58.3795 75.1282 58.3795 75.1282 58.4211 74.3494C58.4198 74.0838 58.4184 73.8182 58.417 73.5445C58.417 73.2415 58.417 72.9385 58.4169 72.6263C58.4138 72.3029 58.4106 71.9795 58.4074 71.6463C58.4061 71.1454 58.4061 71.1454 58.4048 70.6344C58.4014 69.5699 58.3938 68.5055 58.386 67.441C58.383 66.7185 58.3802 65.9959 58.3777 65.2733C58.371 63.5039 58.3609 61.7345 58.348 59.965C58.1475 59.965 57.9469 59.965 57.7403 59.965C57.7254 59.723 57.7105 59.481 57.6951 59.2316C57.5373 56.9217 57.2525 54.6705 56.8286 52.3944C56.628 52.3944 56.4274 52.3944 56.2208 52.3944C56.1804 52.0516 56.1401 51.7089 56.0985 51.3558C56.0444 50.907 55.9901 50.4583 55.9359 50.0096C55.9094 49.7836 55.883 49.5576 55.8557 49.3247C55.7834 48.7317 55.6989 48.1403 55.613 47.5491C55.5127 47.3493 55.4124 47.1494 55.3091 46.9435C55.2367 46.1515 55.182 45.3667 55.1417 44.5729C55.129 44.3316 55.1163 44.0903 55.1032 43.8416C54.9764 41.2303 54.9486 38.62 54.9489 36.006C54.9482 35.1969 54.9426 34.388 54.9369 33.5789C54.936 33.0576 54.9354 32.5364 54.9352 32.0151C54.933 31.7766 54.9308 31.5381 54.9285 31.2924C54.9331 30.2047 55.0097 29.364 55.3135 28.3064C55.4123 28.0609 55.5112 27.8155 55.613 27.5626C55.7133 27.4627 55.8136 27.3627 55.9169 27.2598C55.9502 26.953 55.9835 26.6461 56.0178 26.33C56.0663 25.9207 56.115 25.5114 56.1638 25.1021C56.1851 24.9007 56.2065 24.6993 56.2285 24.4918C56.3017 23.8966 56.413 23.3065 56.5247 22.7174C56.8098 22.1027 57.1105 21.4946 57.4364 20.9004C57.6488 20.072 57.6488 20.072 57.7403 19.3863C57.9408 19.3863 58.1414 19.3863 58.348 19.3863C58.3962 19.0498 58.4444 18.7133 58.4941 18.3666C59.0467 14.7697 59.0467 14.7697 59.6372 13.2966C59.896 12.8054 60.1622 12.318 60.4373 11.8357C60.9128 10.9654 61.117 10.0407 61.387 9.0902C61.7589 8.35763 62.1718 7.67161 62.6026 6.97042C62.8032 6.97042 63.0037 6.97042 63.2104 6.97042C63.2981 6.73308 63.3859 6.49574 63.4763 6.25121C63.6455 5.85772 63.6455 5.85772 63.8182 5.45629C64.0188 5.25642 64.2193 5.05656 64.426 4.85064C64.5451 4.53835 64.6642 4.22606 64.7868 3.9043C65.0779 3.18674 65.3877 2.66709 65.8695 2.05304C66.3921 1.46195 66.9211 0.879909 67.4649 0.308242C68.5967 0.0984159 69.6563 -0.0283328 70.8078 0.005416Z" fill="rgb(232,192,55)" fill-rule="nonzero" />
	</g>
</svg>
