<svg viewBox="0 0 102 160" xmlns="http://www.w3.org/2000/svg" xmlns:xlink="http://www.w3.org/1999/xlink" width="102.000000" height="160.000000" fill="none" customFrame="#000000">
	<path id="差集" d="M21.869 0L27.2652 0L28.4013 0.57041L28.4013 1.14082L29.1069 1.29791L30.0343 1.51515L30.9529 1.72571C31.8094 1.99643 31.8094 1.99643 32.4884 2.45432L32.9455 2.85205L32.9455 3.42246L33.6844 3.51047C34.7305 3.7242 35.5159 4.08591 36.4601 4.5811L37.3721 5.05459L38.0577 5.41889L38.395 5.93583L38.9097 6.55971C39.5927 7.0205 39.5927 7.0205 40.3298 7.41533C43.0481 9.06308 45.3143 11.3282 47.4301 13.6898L47.9982 14.5455L47.9982 15.4011L48.5662 15.4011C49.2328 16.1263 49.8247 16.7857 50.2632 17.6721C50.5007 18.2652 50.7183 18.8613 50.927 19.4652L51.1539 20.0869C51.3427 20.6129 51.5176 21.144 51.6903 21.6756L51.6903 22.246L52.8264 22.8164L52.9207 23.32C53.4493 26.5905 53.4493 26.5905 54.546 29.6769C54.8145 30.2317 54.8145 30.2317 54.9321 30.9046L54.992 31.5865L55.0563 32.2772L55.0985 32.7986C55.8652 33.1974 56.6311 33.534 57.4416 33.8324L58.5066 34.2246L58.5066 34.795L59.5051 34.8797C62.1655 35.1276 64.5337 35.4949 67.027 36.5062L67.027 37.0766L67.5984 37.2237C68.3668 37.4355 69.1181 37.6587 69.8671 37.9323C70.3507 38.2994 70.8244 38.6799 71.2872 39.0731C71.6917 39.2541 72.1005 39.4256 72.512 39.59C73.2378 39.898 73.8311 40.2048 74.4635 40.6796C75.0296 41.1761 75.577 41.6838 76.1154 42.2103L76.5725 42.656C76.8975 42.9787 77.2173 43.3068 77.5355 43.6364L77.8195 44.492L78.9555 44.7772C79.5076 45.3161 80.0575 45.857 80.6064 46.3993L81.0773 46.8577C81.7608 47.5357 82.3462 48.1737 82.8873 48.975C83.2157 49.6257 83.2157 49.6257 83.411 50.4278L83.4997 51.0517L84.3518 51.3369L84.3518 53.0481L84.9198 53.0481C86.0673 54.8089 87.1855 56.5441 88.0439 58.467C88.257 59.3226 88.257 59.3226 88.328 59.893L89.748 61.3191L89.7902 62.1223C89.8999 63.9445 90.0829 65.5558 90.6001 67.3084C90.7294 68.4471 90.813 69.587 90.8841 70.7308L92.0201 71.3012L92.3041 75.8645L92.8722 75.8645L93.1562 76.4349C93.22 76.8732 93.272 77.3133 93.3159 77.754L93.388 78.4603L93.4402 79.0018L94.5762 80.4278L94.8603 84.7059L95.9963 85.8467L96.5643 89.5544L97.7004 90.6952L97.7326 91.3536C97.8398 93.045 98.0382 94.5608 98.6046 96.1598C98.8528 96.7615 98.8528 96.7615 99.4045 97.5401C99.5842 98.1852 99.5842 98.1852 99.724 98.877L99.8682 99.5755L99.9725 100.107L100.541 100.677L100.645 101.209L100.789 101.907L100.929 102.599L101.109 103.244L101.677 104.1C101.898 108.462 101.991 112.817 101.996 117.184L101.998 117.894C102 118.565 101.999 119.237 101.998 119.909L102 120.519C101.996 121.464 101.938 122.302 101.677 123.209C101.613 123.994 101.559 124.775 101.517 125.561L101.48 126.205C101.45 126.728 101.421 127.25 101.393 127.772L100.541 128.913L100.446 129.529C100.238 130.79 100.035 131.904 99.5287 133.084C99.1044 133.974 99.1044 133.974 99.0228 134.688C98.982 135.134 98.9427 135.579 98.9052 136.025C98.8364 136.613 98.8364 136.613 98.5702 137.362L98.2684 138.039L98.0021 139.055L97.7004 140.036L96.8483 141.176C96.6558 141.841 96.4666 142.507 96.2803 143.173L95.872 143.85C95.2505 144.899 94.8969 145.992 94.5762 147.166C94.4486 147.833 94.3639 148.485 94.2922 149.162L93.9195 149.465C93.3834 150.035 93.3834 150.035 92.9964 150.927C92.5524 152.025 92.2823 153.142 92.0201 154.296L91.6651 154.599C91.1158 155.21 90.7426 155.866 90.3471 156.584C90.0076 157.192 89.6512 157.785 89.2865 158.378L88.9381 158.945C88.612 159.43 88.612 159.43 88.0439 160L84.6358 160L84.5293 158.449C84.4425 157.382 84.3297 156.368 84.0678 155.33C83.7116 153.907 83.6895 152.486 83.6528 151.024C83.5584 150.075 83.5584 150.075 83.2504 149.497L82.9473 148.949C82.5932 148.289 82.3647 147.741 82.2091 147.004C82.0683 145.932 81.9626 144.858 81.8589 143.781C81.7405 142.721 81.6273 141.753 81.2321 140.758C80.9653 140.222 80.6731 139.699 80.3756 139.18L80.3756 137.469L79.8076 137.469L79.8076 136.613L79.2751 136.364L78.6715 136.043L78.1035 135.472L77.855 134.67C77.5674 133.733 77.5674 133.733 76.9675 132.906C76.7958 132.226 76.6439 131.542 76.5059 130.856L76.2818 129.756L76.1154 128.913L74.6954 128.342L74.4113 126.346L74.0186 126.005L73.5593 125.49C73.2775 124.833 73.2775 124.833 73.0268 124.1C72.8406 123.607 72.6404 123.118 72.4232 122.638C71.731 121.872 71.731 121.872 71.0032 121.212C70.582 120.563 70.2286 119.901 69.8671 119.216L69.8671 118.645L67.879 118.075L67.5418 117.701C66.9445 117.142 66.3132 116.771 65.6069 116.364L64.7549 115.793C63.3683 115.263 61.9433 114.956 60.4947 114.652L59.3587 113.797L57.0866 113.512L55.9505 112.656L53.3944 112.086L53.1104 111.8L53.1104 109.519C54.3178 108.879 55.5257 108.294 56.8025 107.807C57.7262 107.651 58.6042 107.578 59.5395 107.552L60.2107 107.522L60.7787 107.237L65.6069 107.237L65.891 107.807L66.4767 107.83C69.0111 107.979 71.4466 108.389 73.8433 109.234C74.8046 109.804 75.5919 110.46 76.3994 111.23L77.1982 111.854C77.825 112.375 78.38 112.934 78.9555 113.512C79.3214 113.828 79.6884 114.142 80.0561 114.456C80.982 115.262 81.7793 116.109 82.559 117.055C83.0297 117.622 83.5293 118.143 84.0678 118.645L84.6358 118.93L84.9198 121.212L85.7718 121.497C86.3974 122.523 86.9373 123.456 87.2629 124.617L87.4759 125.49L89.18 125.49C90.0605 119.537 90.2269 113.801 89.748 107.807L89.3431 107.077C88.4039 105.358 87.527 103.683 86.9079 101.818L86.3399 101.533L86.0026 100.945C85.5114 100.145 84.9856 99.3923 84.4317 98.6364C84.0678 98.1105 84.0678 98.1105 83.6895 97.4343C82.7405 95.9323 81.4135 94.7187 80.0916 93.5472C79.348 93.0849 78.6239 92.7607 77.8195 92.4064C77.1095 91.7647 77.1095 91.7647 76.6834 91.2656L74.9794 90.6952L74.9794 90.1248C74.0634 89.6295 73.1295 89.3004 72.1392 88.984L71.8552 87.8431L70.9322 87.6114L69.8671 87.2727C69.4843 86.9931 69.1054 86.7081 68.7311 86.4171L67.879 86.1319L67.027 85.8467L66.4767 85.4189L65.891 84.9911C65.4406 84.8497 64.989 84.7109 64.5319 84.5934C63.1676 84.2188 61.8341 83.7348 60.4947 83.2799L60.2107 82.9947L58.2226 82.7094C57.7407 82.3401 57.2682 81.9583 56.8025 81.5686L56.2345 80.713L53.3944 80.1426L53.3944 79.5722L52.6489 79.6078C51.6903 79.5722 51.6903 79.5722 50.7318 79.287L49.9862 79.0018L49.9862 78.4314L48.9212 78.3066C48.3308 78.2374 47.7727 78.1624 47.1994 78.0036C46.3109 77.7996 45.4277 77.7597 44.519 77.7005L43.4318 77.6281L42.6019 77.5758L41.1818 76.7201L40.5683 76.6878C39.7246 76.6297 38.8948 76.557 38.0577 76.4349C37.3915 76.1581 36.7285 75.8734 36.0696 75.5793C35.2202 75.4323 34.3732 75.3509 33.5135 75.2941L32.9455 74.7237L29.8213 74.1533L28.9693 73.2977L28.4678 73.1606C26.7654 72.6741 25.1566 72.0608 23.5331 71.3536C22.7198 71.0017 22.7198 71.0016 21.8479 70.7397C21.0275 70.4493 20.4298 70.1082 19.7211 69.6078C18.8434 68.9989 17.964 68.4171 17.0408 67.8788L16.7568 66.738L15.3367 66.4528L14.5734 65.6506C13.8405 64.9112 13.1084 64.4165 12.2125 63.8859L10.7925 62.4599C10.3241 62.1666 9.85132 61.88 9.37242 61.6043L8.90535 60.8757L8.28962 59.9287L7.68055 58.9862L7.10032 58.1818L6.24828 57.6114L5.89326 56.9697C5.414 56.2134 4.91094 55.653 4.26019 55.0446L4.10376 54.5332C3.70447 53.2727 3.30157 52.1567 2.55611 51.0517L2.55611 49.0553L1.98809 49.0553L0 45.0624L0.284013 43.9216L3.40815 43.9216L3.97951 44.5778C4.23273 44.8642 4.48605 45.1505 4.73946 45.4367L5.48832 46.289C6.21062 47.0741 6.21062 47.0741 7.05261 47.588L7.66834 47.9144L7.95236 49.0553L8.45271 49.2792C9.13392 49.6505 9.60953 50.0719 10.1712 50.6061C10.7473 51.1271 11.2675 51.5715 11.9496 51.943C12.4093 52.1377 12.8783 52.3104 13.3486 52.4777L13.9166 53.3333C14.6019 53.773 15.2112 54.1515 15.9935 54.385L16.4727 54.4742L17.8928 55.9002L20.4489 56.7558L20.4489 57.3262L22.153 57.8966L22.7388 58.5561C23.5337 59.3529 23.5337 59.3529 24.4961 59.8039C25.6906 60.2238 26.8763 60.5085 28.1173 60.7487L28.4013 61.0339L28.8905 61.0561C29.5933 61.108 30.2657 61.1817 30.9574 61.3191C31.4469 61.5961 31.9368 61.8737 32.4085 62.1803C32.9568 62.4918 32.9568 62.4918 33.6599 62.6415C34.1466 62.7308 34.6344 62.8142 35.1233 62.8899C35.806 63.0346 36.3014 63.2875 36.9217 63.6007C37.3684 63.7037 37.8186 63.7922 38.2707 63.8681C39.8207 64.1621 41.2194 64.6208 42.633 65.3253C43.2808 65.6437 43.908 65.9304 44.59 66.1676C45.3673 66.266 46.1377 66.3103 46.9198 66.3536C48.0485 66.4945 49.0064 66.8992 50.0428 67.354L50.5543 67.5936L50.5543 68.164C51.3642 68.3962 52.0784 68.4831 52.9196 68.477L53.6074 68.4743L54.3174 68.467L55.0408 68.4631C55.628 68.4598 56.2153 68.4547 56.8025 68.4492C56.7476 66.0703 56.7476 66.0703 56.31 63.7467C56.0647 63.1642 56.0647 63.1642 55.6665 62.4599L54.8145 61.8895L54.6014 61.3369C54.21 60.3737 53.7777 59.4338 53.3389 58.4915L53.1104 57.8966L53.1104 57.041L52.5424 57.041L52.5424 56.1854L51.6903 56.1854L51.4718 55.5492L51.1755 54.7059L50.886 53.8737C50.5768 53.0409 50.5768 53.0409 50.1072 52.305C49.7022 51.6221 49.7022 51.6221 49.5247 51.0316L49.4182 50.4456C49.1146 48.9134 48.6995 47.4229 48.2822 45.918L46.0101 43.6364L41.4659 42.4955L41.4659 41.9251L39.7618 41.9251L39.318 41.6756C38.5952 41.3173 38.5952 41.3173 37.6494 41.0873C36.6376 40.7843 36.6376 40.7843 35.9454 40.4456C35.0901 39.8381 34.3275 39.1574 33.5479 38.4559C32.9628 37.9473 32.3621 37.4827 31.7384 37.0232C30.9345 36.4304 30.2162 35.8188 29.5373 35.0802L28.4013 34.795L27.5492 33.6542L27.5492 33.0838L26.928 32.9947C26.1292 32.7986 26.1292 32.7986 25.4369 32.4242C24.6241 31.8868 23.8148 31.3442 23.005 30.8021C22.3496 30.3983 21.7045 30.0065 21.0169 29.6613L21.0169 29.0909L19.3129 29.0909L18.7448 28.8057L18.7448 28.2353L7.10032 27.9501L6.81631 27.3797L6.81631 25.3832L8.80439 23.672C13.7627 22.1586 13.7627 22.1586 15.938 21.7781C16.5337 21.6762 16.5337 21.6762 17.3248 21.3904C17.8076 21.3671 18.2914 21.3597 18.7748 21.3625L19.6207 21.3653L20.5022 21.3725L21.3936 21.3764C22.1201 21.3798 22.8466 21.3845 23.5731 21.3904L24.4251 21.9608L28.4013 22.5312L28.6853 23.1016L32.6615 24.5276L33.5135 25.3832C34.0409 25.6583 34.0409 25.6583 34.6318 25.8824C36.3315 26.6066 37.9191 27.5291 39.4778 28.5205L40.0458 29.0909L42.0339 29.0909L42.0339 26.8093L41.4659 26.2389C41.1709 25.5782 40.8858 24.9129 40.6138 24.2424L40.0458 23.9572L39.4778 21.9608L38.9097 21.6756L38.5725 20.7843C38.231 19.9749 37.9279 19.5227 37.3477 18.8235L36.6376 17.9679L36.2897 17.0474C36.04 16.4404 35.7883 15.9749 35.3802 15.459C34.8746 14.9161 34.3556 14.3922 33.8264 13.8725L33.248 13.2926C32.8459 12.8905 32.4425 12.4898 32.0377 12.0904C31.4199 11.4804 30.8067 10.866 30.1941 10.2507C29.8016 9.85935 29.4089 9.4683 29.0159 9.07754L28.4626 8.52386C27.5517 7.62821 26.7022 6.87377 25.5611 6.27451L25.5611 5.7041L25.0475 5.48017C24.4251 5.13369 24.4251 5.13369 23.9713 4.67135L23.5553 4.1533C23.0203 3.49354 22.4773 2.87443 21.869 2.28164L21.869 0ZM62.4828 47.344L61.0627 47.344L61.3467 51.0517L61.9148 51.0517C62.0973 52.7381 62.5368 54.2866 63.0508 55.9002L63.6189 55.9002L63.6189 56.4706L64.4709 58.1818L65.0389 58.1818L65.0389 58.7522L65.3196 59.5265L65.6957 60.4456C65.9312 61.0301 66.1841 61.6079 66.459 62.1747L66.8794 62.6237C67.3521 63.0367 67.3521 63.0367 67.737 63.6876L68.1631 64.4207C68.4477 64.9075 68.7317 65.3948 69.0151 65.8824C69.4047 66.569 69.7415 67.1822 70.2987 67.7418C70.7562 68.1683 70.7562 68.1683 71.113 68.8091L71.4825 69.5009L71.8586 70.1994L72.1392 70.7308L72.725 71.016C73.4596 71.5183 73.8819 71.9176 74.4468 72.5847C75.6496 74.0201 75.6496 74.0201 78.6715 77.0053L80.6596 77.0053L80.9436 76.7201C80.5993 73.7527 79.8436 71.0062 78.9555 68.164L78.3875 68.164C78.4547 66.1576 78.3273 64.404 77.8195 62.4599C77.263 61.9973 77.263 61.9973 76.6834 61.3191C76.411 60.8 76.411 60.8 76.1864 60.2496L75.8314 59.3226L75.2634 59.3226L75.2634 58.467C74.7311 58.1143 74.7311 58.1143 74.1273 57.6114C73.4523 56.8514 72.9692 56.1433 72.4942 55.2406L72.1392 54.4742L71.0032 53.9037L71.0032 53.3333L70.5772 52.8521C69.6643 52.0041 68.6617 51.401 67.595 50.7665C66.9466 50.3853 66.3104 50.0118 65.7068 49.5622C64.8741 48.936 64.1936 48.4874 63.2106 48.1105L62.4828 47.9144L62.4828 47.344Z" fill="rgb(232,192,55)" fill-rule="evenodd" />
</svg>
